<svg viewBox="0 0 780 585" xmlns="http://www.w3.org/2000/svg"><title>Gnuplot</title><desc>Produced by GNUPLOT 5.0 patchlevel 0</desc><path fill="none" d="M0 0h780v585H0z"/><path stroke="gray" stroke-dasharray="2,4" class="gridline" d="M108.9 504h633.2" fill="none" color="gray" stroke-width=".5" stroke-linecap="round" stroke-linejoin="round"/><g fill="none" color="#000" stroke="currentColor" stroke-linecap="round" stroke-linejoin="round"><path stroke="#000" d="M108.9 504h13.5m619.7 0h-13.5"/><text transform="translate(96.3 510.7)" stroke="none" fill="#000" font-family="Verdana" font-size="18" text-anchor="end"><tspan>0</tspan></text></g><path stroke="gray" stroke-dasharray="2,4" class="gridline" d="M108.9 419.4h633.2" fill="none" color="gray" stroke-width=".5" stroke-linecap="round" stroke-linejoin="round"/><g fill="none" color="#000" stroke="currentColor" stroke-linecap="round" stroke-linejoin="round"><path stroke="#000" d="M108.9 419.4h13.5m619.7 0h-13.5"/><text transform="translate(96.3 426.1)" stroke="none" fill="#000" font-family="Verdana" font-size="18" text-anchor="end"><tspan>500</tspan></text></g><path stroke="gray" stroke-dasharray="2,4" class="gridline" d="M108.9 334.8h633.2" fill="none" color="gray" stroke-width=".5" stroke-linecap="round" stroke-linejoin="round"/><g fill="none" color="#000" stroke="currentColor" stroke-linecap="round" stroke-linejoin="round"><path stroke="#000" d="M108.9 334.8h13.5m619.7 0h-13.5"/><text transform="translate(96.3 341.5)" stroke="none" fill="#000" font-family="Verdana" font-size="18" text-anchor="end"><tspan>1000</tspan></text></g><path stroke="gray" stroke-dasharray="2,4" class="gridline" d="M108.9 250.3h633.2" fill="none" color="gray" stroke-width=".5" stroke-linecap="round" stroke-linejoin="round"/><g fill="none" color="#000" stroke="currentColor" stroke-linecap="round" stroke-linejoin="round"><path stroke="#000" d="M108.9 250.3h13.5m619.7 0h-13.5"/><text transform="translate(96.3 257)" stroke="none" fill="#000" font-family="Verdana" font-size="18" text-anchor="end"><tspan>1500</tspan></text></g><path stroke="gray" stroke-dasharray="2,4" class="gridline" d="M108.9 165.7h633.2" fill="none" color="gray" stroke-width=".5" stroke-linecap="round" stroke-linejoin="round"/><g fill="none" color="#000" stroke="currentColor" stroke-linecap="round" stroke-linejoin="round"><path stroke="#000" d="M108.9 165.7h13.5m619.7 0h-13.5"/><text transform="translate(96.3 172.4)" stroke="none" fill="#000" font-family="Verdana" font-size="18" text-anchor="end"><tspan>2000</tspan></text></g><path stroke="gray" stroke-dasharray="2,4" class="gridline" d="M108.9 81.1h633.2" fill="none" color="gray" stroke-width=".5" stroke-linecap="round" stroke-linejoin="round"/><g fill="none" color="#000" stroke="currentColor" stroke-linecap="round" stroke-linejoin="round"><path stroke="#000" d="M108.9 81.1h13.5m619.7 0h-13.5"/><text transform="translate(96.3 87.8)" stroke="none" fill="#000" font-family="Verdana" font-size="18" text-anchor="end"><tspan>2500</tspan></text></g><path stroke="gray" stroke-dasharray="2,4" class="gridline" d="M362.2 504V81.1" fill="none" color="gray" stroke-width=".5" stroke-linecap="round" stroke-linejoin="round"/><g fill="none" color="#000" stroke="currentColor" stroke-linecap="round" stroke-linejoin="round"><path stroke="#000" d="M362.2 504v-13.5m0-409.4v13.5"/><text transform="translate(362.2 537.7)" stroke="none" fill="#000" font-family="Verdana" font-size="18" text-anchor="middle"><tspan>Both</tspan></text></g><path stroke="gray" stroke-dasharray="2,4" class="gridline" d="M488.8 504V81.1" fill="none" color="gray" stroke-width=".5" stroke-linecap="round" stroke-linejoin="round"/><g fill="none" color="#000" stroke="currentColor" stroke-linecap="round" stroke-linejoin="round"><path stroke="#000" d="M488.8 504v-13.5m0-409.4v13.5"/><text transform="translate(488.8 537.7)" stroke="none" fill="#000" font-family="Verdana" font-size="18" text-anchor="middle"><tspan>Fun</tspan></text></g><path stroke="gray" stroke-dasharray="2,4" class="gridline" d="M615.5 504V81.1" fill="none" color="gray" stroke-width=".5" stroke-linecap="round" stroke-linejoin="round"/><g fill="none" color="#000" stroke="currentColor" stroke-linecap="round" stroke-linejoin="round"><path stroke="#000" d="M615.5 504v-13.5m0-409.4v13.5"/><text transform="translate(615.5 537.7)" stroke="none" fill="#000" font-family="Verdana" font-size="18" text-anchor="middle"><tspan>Profit</tspan></text></g><path stroke="#000" d="M108.9 81.1V504h633.2V81.1H108.9z" fill="none" color="#000" stroke-linecap="round" stroke-linejoin="round"/><text transform="rotate(-90 159.55 133.05)" font-family="Verdana" font-size="18" text-anchor="middle" color="#000" stroke-linecap="round" stroke-linejoin="round"><tspan>Number of Responses</tspan></text><text transform="translate(425.5 47.3)" font-family="Verdana" font-size="18" text-anchor="middle" color="#000" stroke-linecap="round" stroke-linejoin="round"><tspan>Do you run Linux for fun or profit?</tspan></text><title>Desktop Linux</title><text transform="translate(336.4 564.7)" font-family="Verdana" font-size="18" text-anchor="end" color="#000" stroke-linecap="round" stroke-linejoin="round"><tspan>Desktop Linux</tspan></text><g fill="none" color="#000" stroke="currentColor" stroke-linecap="round" stroke-linejoin="round"><path fill="#C4A000" d="M349 564.7h63.9v-13.5H349" shape-rendering="crispEdges" stroke="none"/><path stroke="#000" d="M349 564.7h63.9v-13.4H349v13.4z"/></g><g fill="none" color="#000" stroke="currentColor" stroke-linecap="round" stroke-linejoin="round"><path fill="#C4A000" d="M319.8 504h84.9V250.7h-84.9" shape-rendering="crispEdges" stroke="none"/><path stroke="#000" d="M319.8 504V250.8h84.8V504h-84.8z"/></g><g fill="none" color="#000" stroke="currentColor" stroke-linecap="round" stroke-linejoin="round"><path fill="#C4A000" d="M446.4 504h84.9V242.7h-84.9" shape-rendering="crispEdges" stroke="none"/><path stroke="#000" d="M446.4 504V242.8h84.8V504h-84.8z"/></g><g fill="none" color="#000" stroke="currentColor" stroke-linecap="round" stroke-linejoin="round"><path fill="#C4A000" d="M573 504h85v-6.4h-85" shape-rendering="crispEdges" stroke="none"/><path stroke="#000" d="M573 504v-6.3h84.9v6.3H573z"/></g><title>Server Linux</title><text transform="translate(589.3 564.7)" font-family="Verdana" font-size="18" text-anchor="end" color="#000" stroke-linecap="round" stroke-linejoin="round"><tspan>Server Linux</tspan></text><g fill="none" color="#000" stroke="currentColor" stroke-linecap="round" stroke-linejoin="round"><path fill="#8F5902" d="M601.9 564.7h63.9v-13.5h-63.9" shape-rendering="crispEdges" stroke="none"/><path stroke="#000" d="M601.9 564.7h63.9v-13.4h-63.9v13.4z"/></g><g fill="none" color="#000" stroke="currentColor" stroke-linecap="round" stroke-linejoin="round"><path fill="#8F5902" d="M319.8 250.8h84.9V92.5h-84.9" shape-rendering="crispEdges" stroke="none"/><path stroke="#000" d="M319.8 250.8V92.6h84.8v158.2h-84.8z"/></g><g fill="none" color="#000" stroke="currentColor" stroke-linecap="round" stroke-linejoin="round"><path fill="#8F5902" d="M446.4 242.8h84.9V132.3h-84.9" shape-rendering="crispEdges" stroke="none"/><path stroke="#000" d="M446.4 242.8V132.4h84.8v110.4h-84.8z"/></g><g fill="none" color="#000" stroke="currentColor" stroke-linecap="round" stroke-linejoin="round"><path fill="#8F5902" d="M573 497.7h85V455h-85" shape-rendering="crispEdges" stroke="none"/><path stroke="#000" d="M573 497.7v-42.6h84.9v42.6H573z"/></g><path stroke="#000" d="M108.9 81.1V504h633.2V81.1H108.9z" fill="none" color="#000" stroke-linecap="round" stroke-linejoin="round"/></svg>