<svg viewBox="0 0 780 585" xmlns="http://www.w3.org/2000/svg"><title>Gnuplot</title><desc>Produced by GNUPLOT 5.0 patchlevel 0</desc><path fill="none" d="M0 0h780v585H0z"/><path stroke="gray" stroke-dasharray="2,4" class="gridline" d="M96.3 436.6h645.8" fill="none" color="gray" stroke-width=".5" stroke-linecap="round" stroke-linejoin="round"/><g fill="none" color="#000" stroke="currentColor" stroke-linecap="round" stroke-linejoin="round"><path stroke="#000" d="M96.3 436.6h13.5m632.3 0h-13.5"/><text transform="translate(83.7 443.3)" stroke="none" fill="#000" font-family="Verdana" font-size="18" text-anchor="end"><tspan>0</tspan></text></g><path stroke="gray" stroke-dasharray="2,4" class="gridline" d="M96.3 397.1h645.8" fill="none" color="gray" stroke-width=".5" stroke-linecap="round" stroke-linejoin="round"/><g fill="none" color="#000" stroke="currentColor" stroke-linecap="round" stroke-linejoin="round"><path stroke="#000" d="M96.3 397.1h13.5m632.3 0h-13.5"/><text transform="translate(83.7 403.8)" stroke="none" fill="#000" font-family="Verdana" font-size="18" text-anchor="end"><tspan>100</tspan></text></g><path stroke="gray" stroke-dasharray="2,4" class="gridline" d="M96.3 357.6h645.8" fill="none" color="gray" stroke-width=".5" stroke-linecap="round" stroke-linejoin="round"/><g fill="none" color="#000" stroke="currentColor" stroke-linecap="round" stroke-linejoin="round"><path stroke="#000" d="M96.3 357.6h13.5m632.3 0h-13.5"/><text transform="translate(83.7 364.3)" stroke="none" fill="#000" font-family="Verdana" font-size="18" text-anchor="end"><tspan>200</tspan></text></g><path stroke="gray" stroke-dasharray="2,4" class="gridline" d="M96.3 318.1h645.8" fill="none" color="gray" stroke-width=".5" stroke-linecap="round" stroke-linejoin="round"/><g fill="none" color="#000" stroke="currentColor" stroke-linecap="round" stroke-linejoin="round"><path stroke="#000" d="M96.3 318.1h13.5m632.3 0h-13.5"/><text transform="translate(83.7 324.8)" stroke="none" fill="#000" font-family="Verdana" font-size="18" text-anchor="end"><tspan>300</tspan></text></g><path stroke="gray" stroke-dasharray="2,4" class="gridline" d="M96.3 278.6h645.8" fill="none" color="gray" stroke-width=".5" stroke-linecap="round" stroke-linejoin="round"/><g fill="none" color="#000" stroke="currentColor" stroke-linecap="round" stroke-linejoin="round"><path stroke="#000" d="M96.3 278.6h13.5m632.3 0h-13.5"/><text transform="translate(83.7 285.3)" stroke="none" fill="#000" font-family="Verdana" font-size="18" text-anchor="end"><tspan>400</tspan></text></g><path stroke="gray" stroke-dasharray="2,4" class="gridline" d="M96.3 239.1h645.8" fill="none" color="gray" stroke-width=".5" stroke-linecap="round" stroke-linejoin="round"/><g fill="none" color="#000" stroke="currentColor" stroke-linecap="round" stroke-linejoin="round"><path stroke="#000" d="M96.3 239.1h13.5m632.3 0h-13.5"/><text transform="translate(83.7 245.8)" stroke="none" fill="#000" font-family="Verdana" font-size="18" text-anchor="end"><tspan>500</tspan></text></g><path stroke="gray" stroke-dasharray="2,4" class="gridline" d="M96.3 199.6h645.8" fill="none" color="gray" stroke-width=".5" stroke-linecap="round" stroke-linejoin="round"/><g fill="none" color="#000" stroke="currentColor" stroke-linecap="round" stroke-linejoin="round"><path stroke="#000" d="M96.3 199.6h13.5m632.3 0h-13.5"/><text transform="translate(83.7 206.3)" stroke="none" fill="#000" font-family="Verdana" font-size="18" text-anchor="end"><tspan>600</tspan></text></g><path stroke="gray" stroke-dasharray="2,4" class="gridline" d="M96.3 160.1h645.8" fill="none" color="gray" stroke-width=".5" stroke-linecap="round" stroke-linejoin="round"/><g fill="none" color="#000" stroke="currentColor" stroke-linecap="round" stroke-linejoin="round"><path stroke="#000" d="M96.3 160.1h13.5m632.3 0h-13.5"/><text transform="translate(83.7 166.8)" stroke="none" fill="#000" font-family="Verdana" font-size="18" text-anchor="end"><tspan>700</tspan></text></g><path stroke="gray" stroke-dasharray="2,4" class="gridline" d="M96.3 120.6h645.8" fill="none" color="gray" stroke-width=".5" stroke-linecap="round" stroke-linejoin="round"/><g fill="none" color="#000" stroke="currentColor" stroke-linecap="round" stroke-linejoin="round"><path stroke="#000" d="M96.3 120.6h13.5m632.3 0h-13.5"/><text transform="translate(83.7 127.3)" stroke="none" fill="#000" font-family="Verdana" font-size="18" text-anchor="end"><tspan>800</tspan></text></g><path stroke="gray" stroke-dasharray="2,4" class="gridline" d="M96.3 81.1h645.8" fill="none" color="gray" stroke-width=".5" stroke-linecap="round" stroke-linejoin="round"/><g fill="none" color="#000" stroke="currentColor" stroke-linecap="round" stroke-linejoin="round"><path stroke="#000" d="M96.3 81.1h13.5m632.3 0h-13.5"/><text transform="translate(83.7 87.8)" stroke="none" fill="#000" font-family="Verdana" font-size="18" text-anchor="end"><tspan>900</tspan></text></g><path stroke="gray" stroke-dasharray="2,4" class="gridline" d="M128.6 436.6V81.1" fill="none" color="gray" stroke-width=".5" stroke-linecap="round" stroke-linejoin="round"/><g fill="none" color="#000" stroke="currentColor" stroke-linecap="round" stroke-linejoin="round"><path stroke="#000" d="M128.6 436.6v-13.5m0-342v13.5"/><text transform="rotate(45 -480.882 372.712)" stroke="none" fill="#000" font-family="Verdana" font-size="18"><tspan>Arch Linux</tspan></text></g><path stroke="gray" stroke-dasharray="2,4" class="gridline" d="M193.2 436.6V81.1" fill="none" color="gray" stroke-width=".5" stroke-linecap="round" stroke-linejoin="round"/><g fill="none" color="#000" stroke="currentColor" stroke-linecap="round" stroke-linejoin="round"><path stroke="#000" d="M193.2 436.6v-13.5m0-342v13.5"/><text transform="rotate(45 -448.582 450.69)" stroke="none" fill="#000" font-family="Verdana" font-size="18"><tspan>Ubuntu</tspan></text></g><path stroke="gray" stroke-dasharray="2,4" class="gridline" d="M257.8 436.6V81.1" fill="none" color="gray" stroke-width=".5" stroke-linecap="round" stroke-linejoin="round"/><g fill="none" color="#000" stroke="currentColor" stroke-linecap="round" stroke-linejoin="round"><path stroke="#000" d="M257.8 436.6v-13.5m0-342v13.5"/><text transform="rotate(45 -416.282 528.67)" stroke="none" fill="#000" font-family="Verdana" font-size="18"><tspan>Debian</tspan></text></g><path stroke="gray" stroke-dasharray="2,4" class="gridline" d="M322.3 436.6V81.1" fill="none" color="gray" stroke-width=".5" stroke-linecap="round" stroke-linejoin="round"/><g fill="none" color="#000" stroke="currentColor" stroke-linecap="round" stroke-linejoin="round"><path stroke="#000" d="M322.3 436.6v-13.5m0-342v13.5"/><text transform="rotate(45 -384.032 606.53)" stroke="none" fill="#000" font-family="Verdana" font-size="18"><tspan>Fedora</tspan></text></g><path stroke="gray" stroke-dasharray="2,4" class="gridline" d="M386.9 436.6V81.1" fill="none" color="gray" stroke-width=".5" stroke-linecap="round" stroke-linejoin="round"/><g fill="none" color="#000" stroke="currentColor" stroke-linecap="round" stroke-linejoin="round"><path stroke="#000" d="M386.9 436.6v-13.5m0-342v13.5"/><text transform="rotate(45 -351.732 684.508)" stroke="none" fill="#000" font-family="Verdana" font-size="18"><tspan>Linux Mint</tspan></text></g><path stroke="gray" stroke-dasharray="2,4" class="gridline" d="M451.5 436.6V81.1" fill="none" color="gray" stroke-width=".5" stroke-linecap="round" stroke-linejoin="round"/><g fill="none" color="#000" stroke="currentColor" stroke-linecap="round" stroke-linejoin="round"><path stroke="#000" d="M451.5 436.6v-13.5m0-342v13.5"/><text transform="rotate(45 -319.432 762.487)" stroke="none" fill="#000" font-family="Verdana" font-size="18"><tspan>Xubuntu</tspan></text></g><path stroke="gray" stroke-dasharray="2,4" class="gridline" d="M516.1 436.6V81.1" fill="none" color="gray" stroke-width=".5" stroke-linecap="round" stroke-linejoin="round"/><g fill="none" color="#000" stroke="currentColor" stroke-linecap="round" stroke-linejoin="round"><path stroke="#000" d="M516.1 436.6v-13.5m0-342v13.5"/><text transform="rotate(45 -287.132 840.466)" stroke="none" fill="#000" font-family="Verdana" font-size="18"><tspan>Kubuntu</tspan></text></g><path stroke="gray" stroke-dasharray="2,4" class="gridline" d="M580.7 436.6V81.1" fill="none" color="gray" stroke-width=".5" stroke-linecap="round" stroke-linejoin="round"/><g fill="none" color="#000" stroke="currentColor" stroke-linecap="round" stroke-linejoin="round"><path stroke="#000" d="M580.7 436.6v-13.5m0-342v13.5"/><text transform="rotate(45 -254.832 918.445)" stroke="none" fill="#000" font-family="Verdana" font-size="18"><tspan>Gentoo</tspan></text></g><path stroke="gray" stroke-dasharray="2,4" class="gridline" d="M645.2 436.6V81.1" fill="none" color="gray" stroke-width=".5" stroke-linecap="round" stroke-linejoin="round"/><g fill="none" color="#000" stroke="currentColor" stroke-linecap="round" stroke-linejoin="round"><path stroke="#000" d="M645.2 436.6v-13.5m0-342v13.5"/><text transform="rotate(45 -222.582 996.303)" stroke="none" fill="#000" font-family="Verdana" font-size="18"><tspan>OpenSUSE</tspan></text></g><path stroke="gray" stroke-dasharray="2,4" class="gridline" d="M709.8 436.6V81.1" fill="none" color="gray" stroke-width=".5" stroke-linecap="round" stroke-linejoin="round"/><g fill="none" color="#000" stroke="currentColor" stroke-linecap="round" stroke-linejoin="round"><path stroke="#000" d="M709.8 436.6v-13.5m0-342v13.5"/><text transform="rotate(45 -190.282 1074.282)" stroke="none" fill="#000" font-family="Verdana" font-size="18"><tspan>Other</tspan></text></g><path stroke="#000" d="M96.3 81.1v355.5h645.8V81.1H96.3z" fill="none" color="#000" stroke-linecap="round" stroke-linejoin="round"/><text transform="rotate(-90 142.7 116.2)" font-family="Verdana" font-size="18" text-anchor="middle" color="#000" stroke-linecap="round" stroke-linejoin="round"><tspan>Number of Responses</tspan></text><text transform="translate(419.2 572.8)" font-family="Verdana" font-size="18" text-anchor="middle" color="#000" stroke-linecap="round" stroke-linejoin="round"><tspan>Linux Distribution</tspan></text><text transform="translate(419.2 47.3)" font-family="Verdana" font-size="18" text-anchor="middle" color="#000" stroke-linecap="round" stroke-linejoin="round"><tspan>Which Linux distribution do you primarily use on your desktop computers?</tspan></text><title>gnuplot_plot_1</title><g fill="none" color="#000" stroke="currentColor" stroke-linecap="round" stroke-linejoin="round"><path fill="#5C3566" d="M107 436.6h43.3V88.5H107" shape-rendering="crispEdges" stroke="none"/><path stroke="#000" d="M107 436.6v-348h43.2v348H107z"/></g><g fill="none" color="#000" stroke="currentColor" stroke-linecap="round" stroke-linejoin="round"><path fill="#5C3566" d="M171.5 436.6h43.4V161.2h-43.4" shape-rendering="crispEdges" stroke="none"/><path stroke="#000" d="M171.5 436.6V161.3h43.3v275.3h-43.3z"/></g><g fill="none" color="#000" stroke="currentColor" stroke-linecap="round" stroke-linejoin="round"><path fill="#5C3566" d="M236.1 436.6h43.4V314.8h-43.4" shape-rendering="crispEdges" stroke="none"/><path stroke="#000" d="M236.1 436.6V314.9h43.3v121.7h-43.3z"/></g><g fill="none" color="#000" stroke="currentColor" stroke-linecap="round" stroke-linejoin="round"><path fill="#5C3566" d="M300.7 436.6h43.4V333h-43.4" shape-rendering="crispEdges" stroke="none"/><path stroke="#000" d="M300.7 436.6V333.1H344v103.5h-43.3z"/></g><g fill="none" color="#000" stroke="currentColor" stroke-linecap="round" stroke-linejoin="round"><path fill="#5C3566" d="M365.3 436.6h43.3v-82.7h-43.3" shape-rendering="crispEdges" stroke="none"/><path stroke="#000" d="M365.3 436.6V354h43.2v82.6h-43.2z"/></g><g fill="none" color="#000" stroke="currentColor" stroke-linecap="round" stroke-linejoin="round"><path fill="#5C3566" d="M429.9 436.6h43.3v-46.3h-43.3" shape-rendering="crispEdges" stroke="none"/><path stroke="#000" d="M429.9 436.6v-46.2h43.2v46.2h-43.2z"/></g><g fill="none" color="#000" stroke="currentColor" stroke-linecap="round" stroke-linejoin="round"><path fill="#5C3566" d="M494.4 436.6h43.4v-39.2h-43.4" shape-rendering="crispEdges" stroke="none"/><path stroke="#000" d="M494.4 436.6v-39.1h43.3v39.1h-43.3z"/></g><g fill="none" color="#000" stroke="currentColor" stroke-linecap="round" stroke-linejoin="round"><path fill="#5C3566" d="M559 436.6h43.4v-38.4H559" shape-rendering="crispEdges" stroke="none"/><path stroke="#000" d="M559 436.6v-38.3h43.3v38.3H559z"/></g><g fill="none" color="#000" stroke="currentColor" stroke-linecap="round" stroke-linejoin="round"><path fill="#5C3566" d="M623.6 436.6H667v-23h-43.4" shape-rendering="crispEdges" stroke="none"/><path stroke="#000" d="M623.6 436.6v-22.9h43.3v22.9h-43.3z"/></g><g fill="none" color="#000" stroke="currentColor" stroke-linecap="round" stroke-linejoin="round"><path fill="#5C3566" d="M688.2 436.6h43.3V291.9h-43.3" shape-rendering="crispEdges" stroke="none"/><path stroke="#000" d="M688.2 436.6V292h43.2v144.6h-43.2z"/></g><path stroke="#000" d="M96.3 81.1v355.5h645.8V81.1H96.3z" fill="none" color="#000" stroke-linecap="round" stroke-linejoin="round"/></svg>