<svg viewBox="0 0 780 585" xmlns="http://www.w3.org/2000/svg"><title>Gnuplot</title><desc>Produced by GNUPLOT 5.0 patchlevel 0</desc><path fill="none" d="M0 0h780v585H0z"/><path stroke="gray" stroke-dasharray="2,4" class="gridline" d="M108.9 409.6h633.2" fill="none" color="gray" stroke-width=".5" stroke-linecap="round" stroke-linejoin="round"/><g fill="none" color="#000" stroke="currentColor" stroke-linecap="round" stroke-linejoin="round"><path stroke="#000" d="M108.9 409.6h13.5m619.7 0h-13.5"/><text transform="translate(96.3 416.3)" stroke="none" fill="#000" font-family="Verdana" font-size="18" text-anchor="end"><tspan>0%</tspan></text></g><path stroke="gray" stroke-dasharray="2,4" class="gridline" d="M108.9 343.9h633.2" fill="none" color="gray" stroke-width=".5" stroke-linecap="round" stroke-linejoin="round"/><g fill="none" color="#000" stroke="currentColor" stroke-linecap="round" stroke-linejoin="round"><path stroke="#000" d="M108.9 343.9h13.5m619.7 0h-13.5"/><text transform="translate(96.3 350.6)" stroke="none" fill="#000" font-family="Verdana" font-size="18" text-anchor="end"><tspan>20%</tspan></text></g><path stroke="gray" stroke-dasharray="2,4" class="gridline" d="M108.9 278.2h633.2" fill="none" color="gray" stroke-width=".5" stroke-linecap="round" stroke-linejoin="round"/><g fill="none" color="#000" stroke="currentColor" stroke-linecap="round" stroke-linejoin="round"><path stroke="#000" d="M108.9 278.2h13.5m619.7 0h-13.5"/><text transform="translate(96.3 284.9)" stroke="none" fill="#000" font-family="Verdana" font-size="18" text-anchor="end"><tspan>40%</tspan></text></g><path stroke="gray" stroke-dasharray="2,4" class="gridline" d="M108.9 212.5h633.2" fill="none" color="gray" stroke-width=".5" stroke-linecap="round" stroke-linejoin="round"/><g fill="none" color="#000" stroke="currentColor" stroke-linecap="round" stroke-linejoin="round"><path stroke="#000" d="M108.9 212.5h13.5m619.7 0h-13.5"/><text transform="translate(96.3 219.2)" stroke="none" fill="#000" font-family="Verdana" font-size="18" text-anchor="end"><tspan>60%</tspan></text></g><path stroke="gray" stroke-dasharray="2,4" class="gridline" d="M108.9 146.8h633.2" fill="none" color="gray" stroke-width=".5" stroke-linecap="round" stroke-linejoin="round"/><g fill="none" color="#000" stroke="currentColor" stroke-linecap="round" stroke-linejoin="round"><path stroke="#000" d="M108.9 146.8h13.5m619.7 0h-13.5"/><text transform="translate(96.3 153.5)" stroke="none" fill="#000" font-family="Verdana" font-size="18" text-anchor="end"><tspan>80%</tspan></text></g><path stroke="gray" stroke-dasharray="2,4" class="gridline" d="M108.9 81.1h633.2" fill="none" color="gray" stroke-width=".5" stroke-linecap="round" stroke-linejoin="round"/><g fill="none" color="#000" stroke="currentColor" stroke-linecap="round" stroke-linejoin="round"><path stroke="#000" d="M108.9 81.1h13.5m619.7 0h-13.5"/><text transform="translate(96.3 87.8)" stroke="none" fill="#000" font-family="Verdana" font-size="18" text-anchor="end"><tspan>100%</tspan></text></g><path stroke="gray" stroke-dasharray="2,4" class="gridline" d="M206.3 409.6V81.1" fill="none" color="gray" stroke-width=".5" stroke-linecap="round" stroke-linejoin="round"/><g fill="none" color="#000" stroke="currentColor" stroke-linecap="round" stroke-linejoin="round"><path stroke="#000" d="M206.3 409.6v-13.5m0-315v13.5"/><text transform="rotate(45 -409.44 453.004)" stroke="none" fill="#000" font-family="Verdana" font-size="18"><tspan>Arch Linux</tspan></text></g><path stroke="gray" stroke-dasharray="2,4" class="gridline" d="M255 409.6V81.1" fill="none" color="gray" stroke-width=".5" stroke-linecap="round" stroke-linejoin="round"/><g fill="none" color="#000" stroke="currentColor" stroke-linecap="round" stroke-linejoin="round"><path stroke="#000" d="M255 409.6v-13.5m0-315v13.5"/><text transform="rotate(45 -385.09 511.79)" stroke="none" fill="#000" font-family="Verdana" font-size="18"><tspan>Ubuntu</tspan></text></g><path stroke="gray" stroke-dasharray="2,4" class="gridline" d="M303.7 409.6V81.1" fill="none" color="gray" stroke-width=".5" stroke-linecap="round" stroke-linejoin="round"/><g fill="none" color="#000" stroke="currentColor" stroke-linecap="round" stroke-linejoin="round"><path stroke="#000" d="M303.7 409.6v-13.5m0-315v13.5"/><text transform="rotate(45 -360.74 570.576)" stroke="none" fill="#000" font-family="Verdana" font-size="18"><tspan>Debian</tspan></text></g><path stroke="gray" stroke-dasharray="2,4" class="gridline" d="M352.4 409.6V81.1" fill="none" color="gray" stroke-width=".5" stroke-linecap="round" stroke-linejoin="round"/><g fill="none" color="#000" stroke="currentColor" stroke-linecap="round" stroke-linejoin="round"><path stroke="#000" d="M352.4 409.6v-13.5m0-315v13.5"/><text transform="rotate(45 -336.39 629.362)" stroke="none" fill="#000" font-family="Verdana" font-size="18"><tspan>Fedora</tspan></text></g><path stroke="gray" stroke-dasharray="2,4" class="gridline" d="M401.1 409.6V81.1" fill="none" color="gray" stroke-width=".5" stroke-linecap="round" stroke-linejoin="round"/><g fill="none" color="#000" stroke="currentColor" stroke-linecap="round" stroke-linejoin="round"><path stroke="#000" d="M401.1 409.6v-13.5m0-315v13.5"/><text transform="rotate(45 -312.04 688.15)" stroke="none" fill="#000" font-family="Verdana" font-size="18"><tspan>Linux Mint</tspan></text></g><path stroke="gray" stroke-dasharray="2,4" class="gridline" d="M449.9 409.6V81.1" fill="none" color="gray" stroke-width=".5" stroke-linecap="round" stroke-linejoin="round"/><g fill="none" color="#000" stroke="currentColor" stroke-linecap="round" stroke-linejoin="round"><path stroke="#000" d="M449.9 409.6v-13.5m0-315v13.5"/><text transform="rotate(45 -287.64 747.055)" stroke="none" fill="#000" font-family="Verdana" font-size="18"><tspan>Xubuntu</tspan></text></g><path stroke="gray" stroke-dasharray="2,4" class="gridline" d="M498.6 409.6V81.1" fill="none" color="gray" stroke-width=".5" stroke-linecap="round" stroke-linejoin="round"/><g fill="none" color="#000" stroke="currentColor" stroke-linecap="round" stroke-linejoin="round"><path stroke="#000" d="M498.6 409.6v-13.5m0-315v13.5"/><text transform="rotate(45 -263.29 805.842)" stroke="none" fill="#000" font-family="Verdana" font-size="18"><tspan>Kubuntu</tspan></text></g><path stroke="gray" stroke-dasharray="2,4" class="gridline" d="M547.3 409.6V81.1" fill="none" color="gray" stroke-width=".5" stroke-linecap="round" stroke-linejoin="round"/><g fill="none" color="#000" stroke="currentColor" stroke-linecap="round" stroke-linejoin="round"><path stroke="#000" d="M547.3 409.6v-13.5m0-315v13.5"/><text transform="rotate(45 -238.94 864.628)" stroke="none" fill="#000" font-family="Verdana" font-size="18"><tspan>Gentoo</tspan></text></g><path stroke="gray" stroke-dasharray="2,4" class="gridline" d="M596 409.6V81.1" fill="none" color="gray" stroke-width=".5" stroke-linecap="round" stroke-linejoin="round"/><g fill="none" color="#000" stroke="currentColor" stroke-linecap="round" stroke-linejoin="round"><path stroke="#000" d="M596 409.6v-13.5m0-315v13.5"/><text transform="rotate(45 -214.59 923.414)" stroke="none" fill="#000" font-family="Verdana" font-size="18"><tspan>OpenSUSE</tspan></text></g><path stroke="gray" stroke-dasharray="2,4" class="gridline" d="M644.7 409.6V81.1" fill="none" color="gray" stroke-width=".5" stroke-linecap="round" stroke-linejoin="round"/><g fill="none" color="#000" stroke="currentColor" stroke-linecap="round" stroke-linejoin="round"><path stroke="#000" d="M644.7 409.6v-13.5m0-315v13.5"/><text transform="rotate(45 -190.24 982.2)" stroke="none" fill="#000" font-family="Verdana" font-size="18"><tspan>Other</tspan></text></g><path stroke="gray" stroke-dasharray="2,4" class="gridline" d="M693.4 409.6V81.1" fill="none" color="gray" stroke-width=".5" stroke-linecap="round" stroke-linejoin="round"/><g fill="none" color="#000" stroke="currentColor" stroke-linecap="round" stroke-linejoin="round"><path stroke="#000" d="M693.4 409.6v-13.5m0-315v13.5"/><text transform="rotate(45 -165.89 1040.986)" stroke="none" fill="#000" font-family="Verdana" font-size="18"><tspan>Average</tspan></text></g><path stroke="#000" d="M108.9 81.1v328.5h633.2V81.1H108.9z" fill="none" color="#000" stroke-linecap="round" stroke-linejoin="round"/><text transform="rotate(-90 135.95 109.45)" font-family="Verdana" font-size="18" text-anchor="middle" color="#000" stroke-linecap="round" stroke-linejoin="round"><tspan>Percentage of Responses</tspan></text><text transform="translate(425.5 545.8)" font-family="Verdana" font-size="18" text-anchor="middle" color="#000" stroke-linecap="round" stroke-linejoin="round"><tspan>Linux Distribution</tspan></text><text transform="translate(425.5 47.3)" font-family="Verdana" font-size="18" text-anchor="middle" color="#000" stroke-linecap="round" stroke-linejoin="round"><tspan>Which Linux distribution do you primarily use on your desktop computers?</tspan></text><title>Non-Server Users</title><text transform="translate(336.4 564.7)" font-family="Verdana" font-size="18" text-anchor="end" color="#000" stroke-linecap="round" stroke-linejoin="round"><tspan>Non-Server Users</tspan></text><g fill="none" color="#000" stroke="currentColor" stroke-linecap="round" stroke-linejoin="round"><path fill="#205A87" d="M349 564.7h63.9v-13.5H349" shape-rendering="crispEdges" stroke="none"/><path stroke="#000" d="M349 564.7h63.9v-13.4H349v13.4z"/></g><g fill="none" color="#000" stroke="currentColor" stroke-linecap="round" stroke-linejoin="round"><path fill="#205A87" d="M190 409.6h32.7V278.1H190" shape-rendering="crispEdges" stroke="none"/><path stroke="#000" d="M190 409.6V278.2h32.6v131.4H190z"/></g><g fill="none" color="#000" stroke="currentColor" stroke-linecap="round" stroke-linejoin="round"><path fill="#205A87" d="M238.7 409.6h32.7V294.5h-32.7" shape-rendering="crispEdges" stroke="none"/><path stroke="#000" d="M238.7 409.6v-115h32.6v115h-32.6z"/></g><g fill="none" color="#000" stroke="currentColor" stroke-linecap="round" stroke-linejoin="round"><path fill="#205A87" d="M287.4 409.6h32.7V294.5h-32.7" shape-rendering="crispEdges" stroke="none"/><path stroke="#000" d="M287.4 409.6v-115H320v115h-32.6z"/></g><g fill="none" color="#000" stroke="currentColor" stroke-linecap="round" stroke-linejoin="round"><path fill="#205A87" d="M336.1 409.6h32.8V281.4h-32.8" shape-rendering="crispEdges" stroke="none"/><path stroke="#000" d="M336.1 409.6V281.5h32.7v128.1h-32.7z"/></g><g fill="none" color="#000" stroke="currentColor" stroke-linecap="round" stroke-linejoin="round"><path fill="#205A87" d="M384.8 409.6h32.8V205.8h-32.8" shape-rendering="crispEdges" stroke="none"/><path stroke="#000" d="M384.8 409.6V205.9h32.7v203.7h-32.7z"/></g><g fill="none" color="#000" stroke="currentColor" stroke-linecap="round" stroke-linejoin="round"><path fill="#205A87" d="M433.5 409.6h32.8V215.7h-32.8" shape-rendering="crispEdges" stroke="none"/><path stroke="#000" d="M433.5 409.6V215.8h32.7v193.8h-32.7z"/></g><g fill="none" color="#000" stroke="currentColor" stroke-linecap="round" stroke-linejoin="round"><path fill="#205A87" d="M482.2 409.6H515V255.1h-32.8" shape-rendering="crispEdges" stroke="none"/><path stroke="#000" d="M482.2 409.6V255.2h32.7v154.4h-32.7z"/></g><g fill="none" color="#000" stroke="currentColor" stroke-linecap="round" stroke-linejoin="round"><path fill="#205A87" d="M531 409.6h32.7V307.7H531" shape-rendering="crispEdges" stroke="none"/><path stroke="#000" d="M531 409.6V307.8h32.6v101.8H531z"/></g><g fill="none" color="#000" stroke="currentColor" stroke-linecap="round" stroke-linejoin="round"><path fill="#205A87" d="M579.7 409.6h32.7V192.7h-32.7" shape-rendering="crispEdges" stroke="none"/><path stroke="#000" d="M579.7 409.6V192.8h32.6v216.8h-32.6z"/></g><g fill="none" color="#000" stroke="currentColor" stroke-linecap="round" stroke-linejoin="round"><path fill="#205A87" d="M628.4 409.6h32.7V238.7h-32.7" shape-rendering="crispEdges" stroke="none"/><path stroke="#000" d="M628.4 409.6V238.8H661v170.8h-32.6z"/></g><g fill="none" color="#000" stroke="currentColor" stroke-linecap="round" stroke-linejoin="round"><path fill="#205A87" d="M677.1 409.6h32.7V271.5h-32.7" shape-rendering="crispEdges" stroke="none"/><path stroke="#000" d="M677.1 409.6v-138h32.6v138h-32.6z"/></g><title>Server Users</title><text transform="translate(627.1 564.7)" font-family="Verdana" font-size="18" text-anchor="end" color="#000" stroke-linecap="round" stroke-linejoin="round"><tspan>Server Users</tspan></text><g fill="none" color="#000" stroke="currentColor" stroke-linecap="round" stroke-linejoin="round"><path fill="#5C3566" d="M639.7 564.7h63.9v-13.5h-63.9" shape-rendering="crispEdges" stroke="none"/><path stroke="#000" d="M639.7 564.7h63.9v-13.4h-63.9v13.4z"/></g><g fill="none" color="#000" stroke="currentColor" stroke-linecap="round" stroke-linejoin="round"><path fill="#5C3566" d="M190 278.2h32.7V81H190" shape-rendering="crispEdges" stroke="none"/><path stroke="#000" d="M190 278.2V81.1h32.6v197.1H190z"/></g><g fill="none" color="#000" stroke="currentColor" stroke-linecap="round" stroke-linejoin="round"><path fill="#5C3566" d="M238.7 294.6h32.7V81h-32.7" shape-rendering="crispEdges" stroke="none"/><path stroke="#000" d="M238.7 294.6V81.1h32.6v213.5h-32.6z"/></g><g fill="none" color="#000" stroke="currentColor" stroke-linecap="round" stroke-linejoin="round"><path fill="#5C3566" d="M287.4 294.6h32.7V81h-32.7" shape-rendering="crispEdges" stroke="none"/><path stroke="#000" d="M287.4 294.6V81.1H320v213.5h-32.6z"/></g><g fill="none" color="#000" stroke="currentColor" stroke-linecap="round" stroke-linejoin="round"><path fill="#5C3566" d="M336.1 281.5h32.8V81h-32.8" shape-rendering="crispEdges" stroke="none"/><path stroke="#000" d="M336.1 281.5V81.1h32.7v200.4h-32.7z"/></g><g fill="none" color="#000" stroke="currentColor" stroke-linecap="round" stroke-linejoin="round"><path fill="#5C3566" d="M384.8 205.9h32.8V81h-32.8" shape-rendering="crispEdges" stroke="none"/><path stroke="#000" d="M384.8 205.9V81.1h32.7v124.8h-32.7z"/></g><g fill="none" color="#000" stroke="currentColor" stroke-linecap="round" stroke-linejoin="round"><path fill="#5C3566" d="M433.5 215.8h32.8V81h-32.8" shape-rendering="crispEdges" stroke="none"/><path stroke="#000" d="M433.5 215.8V81.1h32.7v134.7h-32.7z"/></g><g fill="none" color="#000" stroke="currentColor" stroke-linecap="round" stroke-linejoin="round"><path fill="#5C3566" d="M482.2 255.2H515V81h-32.8" shape-rendering="crispEdges" stroke="none"/><path stroke="#000" d="M482.2 255.2V81.1h32.7v174.1h-32.7z"/></g><g fill="none" color="#000" stroke="currentColor" stroke-linecap="round" stroke-linejoin="round"><path fill="#5C3566" d="M531 307.8h32.7V81H531" shape-rendering="crispEdges" stroke="none"/><path stroke="#000" d="M531 307.8V81.1h32.6v226.7H531z"/></g><g fill="none" color="#000" stroke="currentColor" stroke-linecap="round" stroke-linejoin="round"><path fill="#5C3566" d="M579.7 192.8h32.7V81h-32.7" shape-rendering="crispEdges" stroke="none"/><path stroke="#000" d="M579.7 192.8V81.1h32.6v111.7h-32.6z"/></g><g fill="none" color="#000" stroke="currentColor" stroke-linecap="round" stroke-linejoin="round"><path fill="#5C3566" d="M628.4 238.8h32.7V81h-32.7" shape-rendering="crispEdges" stroke="none"/><path stroke="#000" d="M628.4 238.8V81.1H661v157.7h-32.6z"/></g><g fill="none" color="#000" stroke="currentColor" stroke-linecap="round" stroke-linejoin="round"><path fill="#5C3566" d="M677.1 271.6h32.7V81h-32.7" shape-rendering="crispEdges" stroke="none"/><path stroke="#000" d="M677.1 271.6V81.1h32.6v190.5h-32.6z"/></g><path stroke="#000" d="M108.9 81.1v328.5h633.2V81.1H108.9z" fill="none" color="#000" stroke-linecap="round" stroke-linejoin="round"/></svg>