<svg viewBox="0 0 780 585" xmlns="http://www.w3.org/2000/svg"><title>Gnuplot</title><desc>Produced by GNUPLOT 5.0 patchlevel 0</desc><path fill="none" d="M0 0h780v585H0z"/><path stroke="gray" stroke-dasharray="2,4" class="gridline" d="M108.9 436.6h633.2" fill="none" color="gray" stroke-width=".5" stroke-linecap="round" stroke-linejoin="round"/><g fill="none" color="#000" stroke="currentColor" stroke-linecap="round" stroke-linejoin="round"><path stroke="#000" d="M108.9 436.6h13.5m619.7 0h-13.5"/><text transform="translate(96.3 443.3)" stroke="none" fill="#000" font-family="Verdana" font-size="18" text-anchor="end"><tspan>0</tspan></text></g><path stroke="gray" stroke-dasharray="2,4" class="gridline" d="M108.9 401h633.2" fill="none" color="gray" stroke-width=".5" stroke-linecap="round" stroke-linejoin="round"/><g fill="none" color="#000" stroke="currentColor" stroke-linecap="round" stroke-linejoin="round"><path stroke="#000" d="M108.9 401h13.5m619.7 0h-13.5"/><text transform="translate(96.3 407.7)" stroke="none" fill="#000" font-family="Verdana" font-size="18" text-anchor="end"><tspan>100</tspan></text></g><path stroke="gray" stroke-dasharray="2,4" class="gridline" d="M108.9 365.5h633.2" fill="none" color="gray" stroke-width=".5" stroke-linecap="round" stroke-linejoin="round"/><g fill="none" color="#000" stroke="currentColor" stroke-linecap="round" stroke-linejoin="round"><path stroke="#000" d="M108.9 365.5h13.5m619.7 0h-13.5"/><text transform="translate(96.3 372.2)" stroke="none" fill="#000" font-family="Verdana" font-size="18" text-anchor="end"><tspan>200</tspan></text></g><path stroke="gray" stroke-dasharray="2,4" class="gridline" d="M108.9 329.9h633.2" fill="none" color="gray" stroke-width=".5" stroke-linecap="round" stroke-linejoin="round"/><g fill="none" color="#000" stroke="currentColor" stroke-linecap="round" stroke-linejoin="round"><path stroke="#000" d="M108.9 329.9h13.5m619.7 0h-13.5"/><text transform="translate(96.3 336.6)" stroke="none" fill="#000" font-family="Verdana" font-size="18" text-anchor="end"><tspan>300</tspan></text></g><path stroke="gray" stroke-dasharray="2,4" class="gridline" d="M108.9 294.4h633.2" fill="none" color="gray" stroke-width=".5" stroke-linecap="round" stroke-linejoin="round"/><g fill="none" color="#000" stroke="currentColor" stroke-linecap="round" stroke-linejoin="round"><path stroke="#000" d="M108.9 294.4h13.5m619.7 0h-13.5"/><text transform="translate(96.3 301.1)" stroke="none" fill="#000" font-family="Verdana" font-size="18" text-anchor="end"><tspan>400</tspan></text></g><path stroke="gray" stroke-dasharray="2,4" class="gridline" d="M108.9 258.8h633.2" fill="none" color="gray" stroke-width=".5" stroke-linecap="round" stroke-linejoin="round"/><g fill="none" color="#000" stroke="currentColor" stroke-linecap="round" stroke-linejoin="round"><path stroke="#000" d="M108.9 258.8h13.5m619.7 0h-13.5"/><text transform="translate(96.3 265.5)" stroke="none" fill="#000" font-family="Verdana" font-size="18" text-anchor="end"><tspan>500</tspan></text></g><path stroke="gray" stroke-dasharray="2,4" class="gridline" d="M108.9 223.3h633.2" fill="none" color="gray" stroke-width=".5" stroke-linecap="round" stroke-linejoin="round"/><g fill="none" color="#000" stroke="currentColor" stroke-linecap="round" stroke-linejoin="round"><path stroke="#000" d="M108.9 223.3h13.5m619.7 0h-13.5"/><text transform="translate(96.3 230)" stroke="none" fill="#000" font-family="Verdana" font-size="18" text-anchor="end"><tspan>600</tspan></text></g><path stroke="gray" stroke-dasharray="2,4" class="gridline" d="M108.9 187.7h633.2" fill="none" color="gray" stroke-width=".5" stroke-linecap="round" stroke-linejoin="round"/><g fill="none" color="#000" stroke="currentColor" stroke-linecap="round" stroke-linejoin="round"><path stroke="#000" d="M108.9 187.7h13.5m619.7 0h-13.5"/><text transform="translate(96.3 194.4)" stroke="none" fill="#000" font-family="Verdana" font-size="18" text-anchor="end"><tspan>700</tspan></text></g><path stroke="gray" stroke-dasharray="2,4" class="gridline" d="M108.9 152.2h633.2" fill="none" color="gray" stroke-width=".5" stroke-linecap="round" stroke-linejoin="round"/><g fill="none" color="#000" stroke="currentColor" stroke-linecap="round" stroke-linejoin="round"><path stroke="#000" d="M108.9 152.2h13.5m619.7 0h-13.5"/><text transform="translate(96.3 158.9)" stroke="none" fill="#000" font-family="Verdana" font-size="18" text-anchor="end"><tspan>800</tspan></text></g><path stroke="gray" stroke-dasharray="2,4" class="gridline" d="M108.9 116.6h633.2" fill="none" color="gray" stroke-width=".5" stroke-linecap="round" stroke-linejoin="round"/><g fill="none" color="#000" stroke="currentColor" stroke-linecap="round" stroke-linejoin="round"><path stroke="#000" d="M108.9 116.6h13.5m619.7 0h-13.5"/><text transform="translate(96.3 123.3)" stroke="none" fill="#000" font-family="Verdana" font-size="18" text-anchor="end"><tspan>900</tspan></text></g><path stroke="gray" stroke-dasharray="2,4" class="gridline" d="M108.9 81.1h633.2" fill="none" color="gray" stroke-width=".5" stroke-linecap="round" stroke-linejoin="round"/><g fill="none" color="#000" stroke="currentColor" stroke-linecap="round" stroke-linejoin="round"><path stroke="#000" d="M108.9 81.1h13.5m619.7 0h-13.5"/><text transform="translate(96.3 87.8)" stroke="none" fill="#000" font-family="Verdana" font-size="18" text-anchor="end"><tspan>1000</tspan></text></g><path stroke="gray" stroke-dasharray="2,4" class="gridline" d="M137.7 436.6V81.1" fill="none" color="gray" stroke-width=".5" stroke-linecap="round" stroke-linejoin="round"/><g fill="none" color="#000" stroke="currentColor" stroke-linecap="round" stroke-linejoin="round"><path stroke="#000" d="M137.7 436.6v-13.5m0-342v13.5"/><text transform="rotate(45 -476.332 383.697)" stroke="none" fill="#000" font-family="Verdana" font-size="18"><tspan>Debian</tspan></text></g><path stroke="gray" stroke-dasharray="2,4" class="gridline" d="M195.2 436.6V81.1" fill="none" color="gray" stroke-width=".5" stroke-linecap="round" stroke-linejoin="round"/><g fill="none" color="#000" stroke="currentColor" stroke-linecap="round" stroke-linejoin="round"><path stroke="#000" d="M195.2 436.6v-13.5m0-342v13.5"/><text transform="rotate(45 -447.582 453.105)" stroke="none" fill="#000" font-family="Verdana" font-size="18"><tspan>Ubuntu</tspan></text></g><path stroke="gray" stroke-dasharray="2,4" class="gridline" d="M252.8 436.6V81.1" fill="none" color="gray" stroke-width=".5" stroke-linecap="round" stroke-linejoin="round"/><g fill="none" color="#000" stroke="currentColor" stroke-linecap="round" stroke-linejoin="round"><path stroke="#000" d="M252.8 436.6v-13.5m0-342v13.5"/><text transform="rotate(45 -418.782 522.635)" stroke="none" fill="#000" font-family="Verdana" font-size="18"><tspan>Fedora</tspan></text></g><path stroke="gray" stroke-dasharray="2,4" class="gridline" d="M310.4 436.6V81.1" fill="none" color="gray" stroke-width=".5" stroke-linecap="round" stroke-linejoin="round"/><g fill="none" color="#000" stroke="currentColor" stroke-linecap="round" stroke-linejoin="round"><path stroke="#000" d="M310.4 436.6v-13.5m0-342v13.5"/><text transform="rotate(45 -389.982 592.164)" stroke="none" fill="#000" font-family="Verdana" font-size="18"><tspan>Arch Linux</tspan></text></g><path stroke="gray" stroke-dasharray="2,4" class="gridline" d="M367.9 436.6V81.1" fill="none" color="gray" stroke-width=".5" stroke-linecap="round" stroke-linejoin="round"/><g fill="none" color="#000" stroke="currentColor" stroke-linecap="round" stroke-linejoin="round"><path stroke="#000" d="M367.9 436.6v-13.5m0-342v13.5"/><text transform="rotate(45 -361.232 661.573)" stroke="none" fill="#000" font-family="Verdana" font-size="18"><tspan>Kubuntu</tspan></text></g><path stroke="gray" stroke-dasharray="2,4" class="gridline" d="M425.5 436.6V81.1" fill="none" color="gray" stroke-width=".5" stroke-linecap="round" stroke-linejoin="round"/><g fill="none" color="#000" stroke="currentColor" stroke-linecap="round" stroke-linejoin="round"><path stroke="#000" d="M425.5 436.6v-13.5m0-342v13.5"/><text transform="rotate(45 -332.432 731.102)" stroke="none" fill="#000" font-family="Verdana" font-size="18"><tspan>Linux Mint</tspan></text></g><path stroke="gray" stroke-dasharray="2,4" class="gridline" d="M483.1 436.6V81.1" fill="none" color="gray" stroke-width=".5" stroke-linecap="round" stroke-linejoin="round"/><g fill="none" color="#000" stroke="currentColor" stroke-linecap="round" stroke-linejoin="round"><path stroke="#000" d="M483.1 436.6v-13.5m0-342v13.5"/><text transform="rotate(45 -303.632 800.63)" stroke="none" fill="#000" font-family="Verdana" font-size="18"><tspan>CentOS</tspan></text></g><path stroke="gray" stroke-dasharray="2,4" class="gridline" d="M540.6 436.6V81.1" fill="none" color="gray" stroke-width=".5" stroke-linecap="round" stroke-linejoin="round"/><g fill="none" color="#000" stroke="currentColor" stroke-linecap="round" stroke-linejoin="round"><path stroke="#000" d="M540.6 436.6v-13.5m0-342v13.5"/><text transform="rotate(45 -274.882 870.04)" stroke="none" fill="#000" font-family="Verdana" font-size="18"><tspan>Xubuntu</tspan></text></g><path stroke="gray" stroke-dasharray="2,4" class="gridline" d="M598.2 436.6V81.1" fill="none" color="gray" stroke-width=".5" stroke-linecap="round" stroke-linejoin="round"/><g fill="none" color="#000" stroke="currentColor" stroke-linecap="round" stroke-linejoin="round"><path stroke="#000" d="M598.2 436.6v-13.5m0-342v13.5"/><text transform="rotate(45 -246.082 939.57)" stroke="none" fill="#000" font-family="Verdana" font-size="18"><tspan>OpenSUSE</tspan></text></g><path stroke="gray" stroke-dasharray="2,4" class="gridline" d="M655.8 436.6V81.1" fill="none" color="gray" stroke-width=".5" stroke-linecap="round" stroke-linejoin="round"/><g fill="none" color="#000" stroke="currentColor" stroke-linecap="round" stroke-linejoin="round"><path stroke="#000" d="M655.8 436.6v-13.5m0-342v13.5"/><text transform="rotate(45 -217.282 1009.1)" stroke="none" fill="#000" font-family="Verdana" font-size="18"><tspan>Kali</tspan></text></g><path stroke="gray" stroke-dasharray="2,4" class="gridline" d="M713.3 436.6V81.1" fill="none" color="gray" stroke-width=".5" stroke-linecap="round" stroke-linejoin="round"/><g fill="none" color="#000" stroke="currentColor" stroke-linecap="round" stroke-linejoin="round"><path stroke="#000" d="M713.3 436.6v-13.5m0-342v13.5"/><text transform="rotate(45 -188.532 1078.507)" stroke="none" fill="#000" font-family="Verdana" font-size="18"><tspan>Other</tspan></text></g><path stroke="#000" d="M108.9 81.1v355.5h633.2V81.1H108.9z" fill="none" color="#000" stroke-linecap="round" stroke-linejoin="round"/><text transform="rotate(-90 142.7 116.2)" font-family="Verdana" font-size="18" text-anchor="middle" color="#000" stroke-linecap="round" stroke-linejoin="round"><tspan>Number of Responses</tspan></text><text transform="translate(425.5 572.8)" font-family="Verdana" font-size="18" text-anchor="middle" color="#000" stroke-linecap="round" stroke-linejoin="round"><tspan>Linux Distribution</tspan></text><text transform="translate(425.5 47.3)" font-family="Verdana" font-size="18" text-anchor="middle" color="#000" stroke-linecap="round" stroke-linejoin="round"><tspan>Which other Linux distributions do you use on your desktop computers?</tspan></text><title>gnuplot_plot_1</title><g fill="none" color="#000" stroke="currentColor" stroke-linecap="round" stroke-linejoin="round"><path fill="#CE5C00" d="M118.4 436.6h38.7V237.4h-38.7" shape-rendering="crispEdges" stroke="none"/><path stroke="#000" d="M118.4 436.6V237.5H157v199.1h-38.6z"/></g><g fill="none" color="#000" stroke="currentColor" stroke-linecap="round" stroke-linejoin="round"><path fill="#CE5C00" d="M176 436.6h38.6V242.4H176" shape-rendering="crispEdges" stroke="none"/><path stroke="#000" d="M176 436.6V242.5h38.5v194.1H176z"/></g><g fill="none" color="#000" stroke="currentColor" stroke-linecap="round" stroke-linejoin="round"><path fill="#CE5C00" d="M233.5 436.6h38.7V269.8h-38.7" shape-rendering="crispEdges" stroke="none"/><path stroke="#000" d="M233.5 436.6V269.9h38.6v166.7h-38.6z"/></g><g fill="none" color="#000" stroke="currentColor" stroke-linecap="round" stroke-linejoin="round"><path fill="#CE5C00" d="M291.1 436.6h38.7V297.9h-38.7" shape-rendering="crispEdges" stroke="none"/><path stroke="#000" d="M291.1 436.6V298h38.6v138.6h-38.6z"/></g><g fill="none" color="#000" stroke="currentColor" stroke-linecap="round" stroke-linejoin="round"><path fill="#CE5C00" d="M348.7 436.6h38.6V319.2h-38.6" shape-rendering="crispEdges" stroke="none"/><path stroke="#000" d="M348.7 436.6V319.3h38.5v117.3h-38.5z"/></g><g fill="none" color="#000" stroke="currentColor" stroke-linecap="round" stroke-linejoin="round"><path fill="#CE5C00" d="M406.2 436.6h38.7v-83.3h-38.7" shape-rendering="crispEdges" stroke="none"/><path stroke="#000" d="M406.2 436.6v-83.2h38.6v83.2h-38.6z"/></g><g fill="none" color="#000" stroke="currentColor" stroke-linecap="round" stroke-linejoin="round"><path fill="#CE5C00" d="M463.8 436.6h38.6V369h-38.6" shape-rendering="crispEdges" stroke="none"/><path stroke="#000" d="M463.8 436.6v-67.5h38.5v67.5h-38.5z"/></g><g fill="none" color="#000" stroke="currentColor" stroke-linecap="round" stroke-linejoin="round"><path fill="#CE5C00" d="M521.3 436.6H560v-65.5h-38.7" shape-rendering="crispEdges" stroke="none"/><path stroke="#000" d="M521.3 436.6v-65.4h38.6v65.4h-38.6z"/></g><g fill="none" color="#000" stroke="currentColor" stroke-linecap="round" stroke-linejoin="round"><path fill="#CE5C00" d="M578.9 436.6h38.7v-43.5h-38.7" shape-rendering="crispEdges" stroke="none"/><path stroke="#000" d="M578.9 436.6v-43.4h38.6v43.4h-38.6z"/></g><g fill="none" color="#000" stroke="currentColor" stroke-linecap="round" stroke-linejoin="round"><path fill="#CE5C00" d="M636.5 436.6h38.6v-42.8h-38.6" shape-rendering="crispEdges" stroke="none"/><path stroke="#000" d="M636.5 436.6v-42.7H675v42.7h-38.5z"/></g><g fill="none" color="#000" stroke="currentColor" stroke-linecap="round" stroke-linejoin="round"><path fill="#CE5C00" d="M694 436.6h38.7V104.8H694" shape-rendering="crispEdges" stroke="none"/><path stroke="#000" d="M694 436.6V104.9h38.6v331.7H694z"/></g><path stroke="#000" d="M108.9 81.1v355.5h633.2V81.1H108.9z" fill="none" color="#000" stroke-linecap="round" stroke-linejoin="round"/></svg>