<svg viewBox="0 0 780 585" xmlns="http://www.w3.org/2000/svg"><title>Gnuplot</title><desc>Produced by GNUPLOT 5.0 patchlevel 0</desc><path fill="none" d="M0 0h780v585H0z"/><path stroke="gray" stroke-dasharray="2,4" class="gridline" d="M108.9 392h633.2" fill="none" color="gray" stroke-width=".5" stroke-linecap="round" stroke-linejoin="round"/><g fill="none" color="#000" stroke="currentColor" stroke-linecap="round" stroke-linejoin="round"><path stroke="#000" d="M108.9 392h13.5m619.7 0h-13.5"/><text transform="translate(96.3 398.7)" stroke="none" fill="#000" font-family="Verdana" font-size="18" text-anchor="end"><tspan>0</tspan></text></g><path stroke="gray" stroke-dasharray="2,4" class="gridline" d="M108.9 357.5h633.2" fill="none" color="gray" stroke-width=".5" stroke-linecap="round" stroke-linejoin="round"/><g fill="none" color="#000" stroke="currentColor" stroke-linecap="round" stroke-linejoin="round"><path stroke="#000" d="M108.9 357.5h13.5m619.7 0h-13.5"/><text transform="translate(96.3 364.2)" stroke="none" fill="#000" font-family="Verdana" font-size="18" text-anchor="end"><tspan>200</tspan></text></g><path stroke="gray" stroke-dasharray="2,4" class="gridline" d="M108.9 322.9h633.2" fill="none" color="gray" stroke-width=".5" stroke-linecap="round" stroke-linejoin="round"/><g fill="none" color="#000" stroke="currentColor" stroke-linecap="round" stroke-linejoin="round"><path stroke="#000" d="M108.9 322.9h13.5m619.7 0h-13.5"/><text transform="translate(96.3 329.6)" stroke="none" fill="#000" font-family="Verdana" font-size="18" text-anchor="end"><tspan>400</tspan></text></g><path stroke="gray" stroke-dasharray="2,4" class="gridline" d="M108.9 288.4h633.2" fill="none" color="gray" stroke-width=".5" stroke-linecap="round" stroke-linejoin="round"/><g fill="none" color="#000" stroke="currentColor" stroke-linecap="round" stroke-linejoin="round"><path stroke="#000" d="M108.9 288.4h13.5m619.7 0h-13.5"/><text transform="translate(96.3 295.1)" stroke="none" fill="#000" font-family="Verdana" font-size="18" text-anchor="end"><tspan>600</tspan></text></g><path stroke="gray" stroke-dasharray="2,4" class="gridline" d="M108.9 253.8h633.2" fill="none" color="gray" stroke-width=".5" stroke-linecap="round" stroke-linejoin="round"/><g fill="none" color="#000" stroke="currentColor" stroke-linecap="round" stroke-linejoin="round"><path stroke="#000" d="M108.9 253.8h13.5m619.7 0h-13.5"/><text transform="translate(96.3 260.5)" stroke="none" fill="#000" font-family="Verdana" font-size="18" text-anchor="end"><tspan>800</tspan></text></g><path stroke="gray" stroke-dasharray="2,4" class="gridline" d="M108.9 219.3h633.2" fill="none" color="gray" stroke-width=".5" stroke-linecap="round" stroke-linejoin="round"/><g fill="none" color="#000" stroke="currentColor" stroke-linecap="round" stroke-linejoin="round"><path stroke="#000" d="M108.9 219.3h13.5m619.7 0h-13.5"/><text transform="translate(96.3 226)" stroke="none" fill="#000" font-family="Verdana" font-size="18" text-anchor="end"><tspan>1000</tspan></text></g><path stroke="gray" stroke-dasharray="2,4" class="gridline" d="M108.9 184.7h633.2" fill="none" color="gray" stroke-width=".5" stroke-linecap="round" stroke-linejoin="round"/><g fill="none" color="#000" stroke="currentColor" stroke-linecap="round" stroke-linejoin="round"><path stroke="#000" d="M108.9 184.7h13.5m619.7 0h-13.5"/><text transform="translate(96.3 191.4)" stroke="none" fill="#000" font-family="Verdana" font-size="18" text-anchor="end"><tspan>1200</tspan></text></g><path stroke="gray" stroke-dasharray="2,4" class="gridline" d="M108.9 150.2h633.2" fill="none" color="gray" stroke-width=".5" stroke-linecap="round" stroke-linejoin="round"/><g fill="none" color="#000" stroke="currentColor" stroke-linecap="round" stroke-linejoin="round"><path stroke="#000" d="M108.9 150.2h13.5m619.7 0h-13.5"/><text transform="translate(96.3 156.9)" stroke="none" fill="#000" font-family="Verdana" font-size="18" text-anchor="end"><tspan>1400</tspan></text></g><path stroke="gray" stroke-dasharray="2,4" class="gridline" d="M108.9 115.6h633.2" fill="none" color="gray" stroke-width=".5" stroke-linecap="round" stroke-linejoin="round"/><g fill="none" color="#000" stroke="currentColor" stroke-linecap="round" stroke-linejoin="round"><path stroke="#000" d="M108.9 115.6h13.5m619.7 0h-13.5"/><text transform="translate(96.3 122.3)" stroke="none" fill="#000" font-family="Verdana" font-size="18" text-anchor="end"><tspan>1600</tspan></text></g><path stroke="gray" stroke-dasharray="2,4" class="gridline" d="M108.9 81.1h633.2" fill="none" color="gray" stroke-width=".5" stroke-linecap="round" stroke-linejoin="round"/><g fill="none" color="#000" stroke="currentColor" stroke-linecap="round" stroke-linejoin="round"><path stroke="#000" d="M108.9 81.1h13.5m619.7 0h-13.5"/><text transform="translate(96.3 87.8)" stroke="none" fill="#000" font-family="Verdana" font-size="18" text-anchor="end"><tspan>1800</tspan></text></g><path stroke="gray" stroke-dasharray="2,4" class="gridline" d="M161.7 392V81.1" fill="none" color="gray" stroke-width=".5" stroke-linecap="round" stroke-linejoin="round"/><g fill="none" color="#000" stroke="currentColor" stroke-linecap="round" stroke-linejoin="round"><path stroke="#000" d="M161.7 392v-13.5m0-297.4v13.5"/><text transform="rotate(45 -410.495 390.367)" stroke="none" fill="#000" font-family="Verdana" font-size="18"><tspan>Laptop</tspan></text></g><path stroke="gray" stroke-dasharray="2,4" class="gridline" d="M267.2 392V81.1" fill="none" color="gray" stroke-width=".5" stroke-linecap="round" stroke-linejoin="round"/><g fill="none" color="#000" stroke="currentColor" stroke-linecap="round" stroke-linejoin="round"><path stroke="#000" d="M267.2 392v-13.5m0-297.4v13.5"/><text transform="rotate(45 -357.745 517.717)" stroke="none" fill="#000" font-family="Verdana" font-size="18"><tspan>Desktop PC</tspan></text></g><path stroke="gray" stroke-dasharray="2,4" class="gridline" d="M372.7 392V81.1" fill="none" color="gray" stroke-width=".5" stroke-linecap="round" stroke-linejoin="round"/><g fill="none" color="#000" stroke="currentColor" stroke-linecap="round" stroke-linejoin="round"><path stroke="#000" d="M372.7 392v-13.5m0-297.4v13.5"/><text transform="rotate(45 -304.995 645.067)" stroke="none" fill="#000" font-family="Verdana" font-size="18"><tspan>Workstation</tspan></text></g><path stroke="gray" stroke-dasharray="2,4" class="gridline" d="M478.3 392V81.1" fill="none" color="gray" stroke-width=".5" stroke-linecap="round" stroke-linejoin="round"/><g fill="none" color="#000" stroke="currentColor" stroke-linecap="round" stroke-linejoin="round"><path stroke="#000" d="M478.3 392v-13.5m0-297.4v13.5"/><text transform="rotate(45 -252.195 772.537)" stroke="none" fill="#000" font-family="Verdana" font-size="18"><tspan>Virtual Machine</tspan></text></g><path stroke="gray" stroke-dasharray="2,4" class="gridline" d="M583.8 392V81.1" fill="none" color="gray" stroke-width=".5" stroke-linecap="round" stroke-linejoin="round"/><g fill="none" color="#000" stroke="currentColor" stroke-linecap="round" stroke-linejoin="round"><path stroke="#000" d="M583.8 392v-13.5m0-297.4v13.5"/><text transform="rotate(45 -199.445 899.887)" stroke="none" fill="#000" font-family="Verdana" font-size="18"><tspan>RaspPi/similar</tspan></text></g><path stroke="gray" stroke-dasharray="2,4" class="gridline" d="M689.3 392V81.1" fill="none" color="gray" stroke-width=".5" stroke-linecap="round" stroke-linejoin="round"/><g fill="none" color="#000" stroke="currentColor" stroke-linecap="round" stroke-linejoin="round"><path stroke="#000" d="M689.3 392v-13.5m0-297.4v13.5"/><text transform="rotate(45 -146.695 1027.237)" stroke="none" fill="#000" font-family="Verdana" font-size="18"><tspan>Other</tspan></text></g><path stroke="#000" d="M108.9 81.1V392h633.2V81.1H108.9z" fill="none" color="#000" stroke-linecap="round" stroke-linejoin="round"/><text transform="rotate(-90 131.55 105.05)" font-family="Verdana" font-size="18" text-anchor="middle" color="#000" stroke-linecap="round" stroke-linejoin="round"><tspan>Number of Responses</tspan></text><text transform="translate(425.5 572.8)" font-family="Verdana" font-size="18" text-anchor="middle" color="#000" stroke-linecap="round" stroke-linejoin="round"><tspan>Hardware Platform</tspan></text><text transform="translate(425.5 47.3)" font-family="Verdana" font-size="18" text-anchor="middle" color="#000" stroke-linecap="round" stroke-linejoin="round"><tspan>What hardware platform do you primarily run your primary desktop distributon on?</tspan></text><title>gnuplot_plot_1</title><g fill="none" color="#000" stroke="currentColor" stroke-linecap="round" stroke-linejoin="round"><path fill="#205A87" d="M126.3 392h70.8V111.7h-70.8" shape-rendering="crispEdges" stroke="none"/><path stroke="#000" d="M126.3 392V111.8H197V392h-70.7z"/></g><g fill="none" color="#000" stroke="currentColor" stroke-linecap="round" stroke-linejoin="round"><path fill="#205A87" d="M231.8 392h70.9V199.5h-70.9" shape-rendering="crispEdges" stroke="none"/><path stroke="#000" d="M231.8 392V199.6h70.8V392h-70.8z"/></g><g fill="none" color="#000" stroke="currentColor" stroke-linecap="round" stroke-linejoin="round"><path fill="#205A87" d="M337.4 392h70.8v-45.4h-70.8" shape-rendering="crispEdges" stroke="none"/><path stroke="#000" d="M337.4 392v-45.3h70.7V392h-70.7z"/></g><g fill="none" color="#000" stroke="currentColor" stroke-linecap="round" stroke-linejoin="round"><path fill="#205A87" d="M442.9 392h70.8v-11.2h-70.8" shape-rendering="crispEdges" stroke="none"/><path stroke="#000" d="M442.9 392v-11.1h70.7V392h-70.7z"/></g><g fill="none" color="#000" stroke="currentColor" stroke-linecap="round" stroke-linejoin="round"><path fill="#205A87" d="M548.4 392h70.9v-2h-70.9" shape-rendering="crispEdges" stroke="none"/><path stroke="#000" d="M548.4 392v-1.9h70.8v1.9h-70.8z"/></g><g fill="none" color="#000" stroke="currentColor" stroke-linecap="round" stroke-linejoin="round"><path fill="#205A87" d="M654 392h70.8v-1.5H654" shape-rendering="crispEdges" stroke="none"/><path stroke="#000" d="M654 392v-1.4h70.7v1.4H654z"/></g><path stroke="#000" d="M108.9 81.1V392h633.2V81.1H108.9z" fill="none" color="#000" stroke-linecap="round" stroke-linejoin="round"/></svg>