<svg viewBox="0 0 780 585" xmlns="http://www.w3.org/2000/svg"><title>Gnuplot</title><desc>Produced by GNUPLOT 5.0 patchlevel 0</desc><path fill="none" d="M0 0h780v585H0z"/><path stroke="gray" stroke-dasharray="2,4" class="gridline" d="M108.9 365.3h633.2" fill="none" color="gray" stroke-width=".5" stroke-linecap="round" stroke-linejoin="round"/><g fill="none" color="#000" stroke="currentColor" stroke-linecap="round" stroke-linejoin="round"><path stroke="#000" d="M108.9 365.3h13.5m619.7 0h-13.5"/><text transform="translate(96.3 372)" stroke="none" fill="#000" font-family="Verdana" font-size="18" text-anchor="end"><tspan>0</tspan></text></g><path stroke="gray" stroke-dasharray="2,4" class="gridline" d="M108.9 317.9h633.2" fill="none" color="gray" stroke-width=".5" stroke-linecap="round" stroke-linejoin="round"/><g fill="none" color="#000" stroke="currentColor" stroke-linecap="round" stroke-linejoin="round"><path stroke="#000" d="M108.9 317.9h13.5m619.7 0h-13.5"/><text transform="translate(96.3 324.6)" stroke="none" fill="#000" font-family="Verdana" font-size="18" text-anchor="end"><tspan>200</tspan></text></g><path stroke="gray" stroke-dasharray="2,4" class="gridline" d="M108.9 270.6h633.2" fill="none" color="gray" stroke-width=".5" stroke-linecap="round" stroke-linejoin="round"/><g fill="none" color="#000" stroke="currentColor" stroke-linecap="round" stroke-linejoin="round"><path stroke="#000" d="M108.9 270.6h13.5m619.7 0h-13.5"/><text transform="translate(96.3 277.3)" stroke="none" fill="#000" font-family="Verdana" font-size="18" text-anchor="end"><tspan>400</tspan></text></g><path stroke="gray" stroke-dasharray="2,4" class="gridline" d="M108.9 223.2h633.2" fill="none" color="gray" stroke-width=".5" stroke-linecap="round" stroke-linejoin="round"/><g fill="none" color="#000" stroke="currentColor" stroke-linecap="round" stroke-linejoin="round"><path stroke="#000" d="M108.9 223.2h13.5m619.7 0h-13.5"/><text transform="translate(96.3 229.9)" stroke="none" fill="#000" font-family="Verdana" font-size="18" text-anchor="end"><tspan>600</tspan></text></g><path stroke="gray" stroke-dasharray="2,4" class="gridline" d="M108.9 175.8h633.2" fill="none" color="gray" stroke-width=".5" stroke-linecap="round" stroke-linejoin="round"/><g fill="none" color="#000" stroke="currentColor" stroke-linecap="round" stroke-linejoin="round"><path stroke="#000" d="M108.9 175.8h13.5m619.7 0h-13.5"/><text transform="translate(96.3 182.5)" stroke="none" fill="#000" font-family="Verdana" font-size="18" text-anchor="end"><tspan>800</tspan></text></g><path stroke="gray" stroke-dasharray="2,4" class="gridline" d="M108.9 128.5h633.2" fill="none" color="gray" stroke-width=".5" stroke-linecap="round" stroke-linejoin="round"/><g fill="none" color="#000" stroke="currentColor" stroke-linecap="round" stroke-linejoin="round"><path stroke="#000" d="M108.9 128.5h13.5m619.7 0h-13.5"/><text transform="translate(96.3 135.2)" stroke="none" fill="#000" font-family="Verdana" font-size="18" text-anchor="end"><tspan>1000</tspan></text></g><path stroke="gray" stroke-dasharray="2,4" class="gridline" d="M108.9 81.1h633.2" fill="none" color="gray" stroke-width=".5" stroke-linecap="round" stroke-linejoin="round"/><g fill="none" color="#000" stroke="currentColor" stroke-linecap="round" stroke-linejoin="round"><path stroke="#000" d="M108.9 81.1h13.5m619.7 0h-13.5"/><text transform="translate(96.3 87.8)" stroke="none" fill="#000" font-family="Verdana" font-size="18" text-anchor="end"><tspan>1200</tspan></text></g><path stroke="gray" stroke-dasharray="2,4" class="gridline" d="M144.1 365.3V81.1" fill="none" color="gray" stroke-width=".5" stroke-linecap="round" stroke-linejoin="round"/><g fill="none" color="#000" stroke="currentColor" stroke-linecap="round" stroke-linejoin="round"><path stroke="#000" d="M144.1 365.3v-13.5m0-270.7v13.5"/><text transform="rotate(45 -387.066 355.772)" stroke="none" fill="#000" font-family="Verdana" font-size="18"><tspan>Virtual Machine</tspan></text></g><path stroke="gray" stroke-dasharray="2,4" class="gridline" d="M214.4 365.3V81.1" fill="none" color="gray" stroke-width=".5" stroke-linecap="round" stroke-linejoin="round"/><g fill="none" color="#000" stroke="currentColor" stroke-linecap="round" stroke-linejoin="round"><path stroke="#000" d="M214.4 365.3v-13.5m0-270.7v13.5"/><text transform="rotate(45 -351.916 440.632)" stroke="none" fill="#000" font-family="Verdana" font-size="18"><tspan>Laptop</tspan></text></g><path stroke="gray" stroke-dasharray="2,4" class="gridline" d="M284.8 365.3V81.1" fill="none" color="gray" stroke-width=".5" stroke-linecap="round" stroke-linejoin="round"/><g fill="none" color="#000" stroke="currentColor" stroke-linecap="round" stroke-linejoin="round"><path stroke="#000" d="M284.8 365.3v-13.5m0-270.7v13.5"/><text transform="rotate(45 -316.716 525.612)" stroke="none" fill="#000" font-family="Verdana" font-size="18"><tspan>RasPi (or similar)</tspan></text></g><path stroke="gray" stroke-dasharray="2,4" class="gridline" d="M355.1 365.3V81.1" fill="none" color="gray" stroke-width=".5" stroke-linecap="round" stroke-linejoin="round"/><g fill="none" color="#000" stroke="currentColor" stroke-linecap="round" stroke-linejoin="round"><path stroke="#000" d="M355.1 365.3v-13.5m0-270.7v13.5"/><text transform="rotate(45 -281.566 610.472)" stroke="none" fill="#000" font-family="Verdana" font-size="18"><tspan>Desktop PC</tspan></text></g><path stroke="gray" stroke-dasharray="2,4" class="gridline" d="M425.5 365.3V81.1" fill="none" color="gray" stroke-width=".5" stroke-linecap="round" stroke-linejoin="round"/><g fill="none" color="#000" stroke="currentColor" stroke-linecap="round" stroke-linejoin="round"><path stroke="#000" d="M425.5 365.3v-13.5m0-270.7v13.5"/><text transform="rotate(45 -246.366 695.452)" stroke="none" fill="#000" font-family="Verdana" font-size="18"><tspan>Workstation</tspan></text></g><path stroke="gray" stroke-dasharray="2,4" class="gridline" d="M495.9 365.3V81.1" fill="none" color="gray" stroke-width=".5" stroke-linecap="round" stroke-linejoin="round"/><g fill="none" color="#000" stroke="currentColor" stroke-linecap="round" stroke-linejoin="round"><path stroke="#000" d="M495.9 365.3v-13.5m0-270.7v13.5"/><text transform="rotate(45 -211.166 780.432)" stroke="none" fill="#000" font-family="Verdana" font-size="18"><tspan>Rack Server</tspan></text></g><path stroke="gray" stroke-dasharray="2,4" class="gridline" d="M566.2 365.3V81.1" fill="none" color="gray" stroke-width=".5" stroke-linecap="round" stroke-linejoin="round"/><g fill="none" color="#000" stroke="currentColor" stroke-linecap="round" stroke-linejoin="round"><path stroke="#000" d="M566.2 365.3v-13.5m0-270.7v13.5"/><text transform="rotate(45 -176.016 865.292)" stroke="none" fill="#000" font-family="Verdana" font-size="18"><tspan>Tablet</tspan></text></g><path stroke="gray" stroke-dasharray="2,4" class="gridline" d="M636.6 365.3V81.1" fill="none" color="gray" stroke-width=".5" stroke-linecap="round" stroke-linejoin="round"/><g fill="none" color="#000" stroke="currentColor" stroke-linecap="round" stroke-linejoin="round"><path stroke="#000" d="M636.6 365.3v-13.5m0-270.7v13.5"/><text transform="rotate(45 -140.816 950.272)" stroke="none" fill="#000" font-family="Verdana" font-size="18"><tspan>Embedded</tspan></text></g><path stroke="gray" stroke-dasharray="2,4" class="gridline" d="M706.9 365.3V81.1" fill="none" color="gray" stroke-width=".5" stroke-linecap="round" stroke-linejoin="round"/><g fill="none" color="#000" stroke="currentColor" stroke-linecap="round" stroke-linejoin="round"><path stroke="#000" d="M706.9 365.3v-13.5m0-270.7v13.5"/><text transform="rotate(45 -105.666 1035.132)" stroke="none" fill="#000" font-family="Verdana" font-size="18"><tspan>Other</tspan></text></g><path stroke="#000" d="M108.9 81.1v284.2h633.2V81.1H108.9z" fill="none" color="#000" stroke-linecap="round" stroke-linejoin="round"/><text transform="rotate(-90 124.85 98.35)" font-family="Verdana" font-size="18" text-anchor="middle" color="#000" stroke-linecap="round" stroke-linejoin="round"><tspan>Number of Responses</tspan></text><text transform="translate(425.5 572.8)" font-family="Verdana" font-size="18" text-anchor="middle" color="#000" stroke-linecap="round" stroke-linejoin="round"><tspan>Hardware Platform</tspan></text><text transform="translate(425.5 47.3)" font-family="Verdana" font-size="18" text-anchor="middle" color="#000" stroke-linecap="round" stroke-linejoin="round"><tspan>What other hardware platforms do you run desktop Linux on?</tspan></text><title>gnuplot_plot_1</title><g fill="none" color="#000" stroke="currentColor" stroke-linecap="round" stroke-linejoin="round"><path fill="#A40000" d="M120.5 365.3h47.2V81.7h-47.2" shape-rendering="crispEdges" stroke="none"/><path stroke="#000" d="M120.5 365.3V81.8h47.1v283.5h-47.1z"/></g><g fill="none" color="#000" stroke="currentColor" stroke-linecap="round" stroke-linejoin="round"><path fill="#A40000" d="M190.9 365.3h47.2V100.2h-47.2" shape-rendering="crispEdges" stroke="none"/><path stroke="#000" d="M190.9 365.3v-265H238v265h-47.1z"/></g><g fill="none" color="#000" stroke="currentColor" stroke-linecap="round" stroke-linejoin="round"><path fill="#A40000" d="M261.2 365.3h47.3V168.6h-47.3" shape-rendering="crispEdges" stroke="none"/><path stroke="#000" d="M261.2 365.3V168.7h47.2v196.6h-47.2z"/></g><g fill="none" color="#000" stroke="currentColor" stroke-linecap="round" stroke-linejoin="round"><path fill="#A40000" d="M331.6 365.3h47.2V187.8h-47.2" shape-rendering="crispEdges" stroke="none"/><path stroke="#000" d="M331.6 365.3V187.9h47.1v177.4h-47.1z"/></g><g fill="none" color="#000" stroke="currentColor" stroke-linecap="round" stroke-linejoin="round"><path fill="#A40000" d="M401.9 365.3h47.3v-82h-47.3" shape-rendering="crispEdges" stroke="none"/><path stroke="#000" d="M401.9 365.3v-81.9h47.2v81.9h-47.2z"/></g><g fill="none" color="#000" stroke="currentColor" stroke-linecap="round" stroke-linejoin="round"><path fill="#A40000" d="M472.3 365.3h47.2V287h-47.2" shape-rendering="crispEdges" stroke="none"/><path stroke="#000" d="M472.3 365.3v-78.2h47.1v78.2h-47.1z"/></g><g fill="none" color="#000" stroke="currentColor" stroke-linecap="round" stroke-linejoin="round"><path fill="#A40000" d="M542.6 365.3h47.3v-43.9h-47.3" shape-rendering="crispEdges" stroke="none"/><path stroke="#000" d="M542.6 365.3v-43.8h47.2v43.8h-47.2z"/></g><g fill="none" color="#000" stroke="currentColor" stroke-linecap="round" stroke-linejoin="round"><path fill="#A40000" d="M613 365.3h47.2v-43H613" shape-rendering="crispEdges" stroke="none"/><path stroke="#000" d="M613 365.3v-42.9h47.1v42.9H613z"/></g><g fill="none" color="#000" stroke="currentColor" stroke-linecap="round" stroke-linejoin="round"><path fill="#A40000" d="M683.4 365.3h47.2v-16.4h-47.2" shape-rendering="crispEdges" stroke="none"/><path stroke="#000" d="M683.4 365.3V349h47.1v16.3h-47.1z"/></g><path stroke="#000" d="M108.9 81.1v284.2h633.2V81.1H108.9z" fill="none" color="#000" stroke-linecap="round" stroke-linejoin="round"/></svg>