<svg viewBox="0 0 780 585" xmlns="http://www.w3.org/2000/svg"><title>Gnuplot</title><desc>Produced by GNUPLOT 5.0 patchlevel 0</desc><path fill="none" d="M0 0h780v585H0z"/><path stroke="gray" stroke-dasharray="2,4" class="gridline" d="M96.3 383.1h618.4" fill="none" color="gray" stroke-width=".5" stroke-linecap="round" stroke-linejoin="round"/><g fill="none" color="#000" stroke="currentColor" stroke-linecap="round" stroke-linejoin="round"><path stroke="#000" d="M96.3 383.1h13.5m604.9 0h-13.5"/><text transform="translate(83.7 389.8)" stroke="none" fill="#000" font-family="Verdana" font-size="18" text-anchor="end"><tspan>0</tspan></text></g><path stroke="gray" stroke-dasharray="2,4" class="gridline" d="M96.3 340h618.4" fill="none" color="gray" stroke-width=".5" stroke-linecap="round" stroke-linejoin="round"/><g fill="none" color="#000" stroke="currentColor" stroke-linecap="round" stroke-linejoin="round"><path stroke="#000" d="M96.3 340h13.5m604.9 0h-13.5"/><text transform="translate(83.7 346.7)" stroke="none" fill="#000" font-family="Verdana" font-size="18" text-anchor="end"><tspan>100</tspan></text></g><path stroke="gray" stroke-dasharray="2,4" class="gridline" d="M96.3 296.8h618.4" fill="none" color="gray" stroke-width=".5" stroke-linecap="round" stroke-linejoin="round"/><g fill="none" color="#000" stroke="currentColor" stroke-linecap="round" stroke-linejoin="round"><path stroke="#000" d="M96.3 296.8h13.5m604.9 0h-13.5"/><text transform="translate(83.7 303.5)" stroke="none" fill="#000" font-family="Verdana" font-size="18" text-anchor="end"><tspan>200</tspan></text></g><path stroke="gray" stroke-dasharray="2,4" class="gridline" d="M96.3 253.7h618.4" fill="none" color="gray" stroke-width=".5" stroke-linecap="round" stroke-linejoin="round"/><g fill="none" color="#000" stroke="currentColor" stroke-linecap="round" stroke-linejoin="round"><path stroke="#000" d="M96.3 253.7h13.5m604.9 0h-13.5"/><text transform="translate(83.7 260.4)" stroke="none" fill="#000" font-family="Verdana" font-size="18" text-anchor="end"><tspan>300</tspan></text></g><path stroke="gray" stroke-dasharray="2,4" class="gridline" d="M96.3 210.5h618.4" fill="none" color="gray" stroke-width=".5" stroke-linecap="round" stroke-linejoin="round"/><g fill="none" color="#000" stroke="currentColor" stroke-linecap="round" stroke-linejoin="round"><path stroke="#000" d="M96.3 210.5h13.5m604.9 0h-13.5"/><text transform="translate(83.7 217.2)" stroke="none" fill="#000" font-family="Verdana" font-size="18" text-anchor="end"><tspan>400</tspan></text></g><path stroke="gray" stroke-dasharray="2,4" class="gridline" d="M96.3 167.4h618.4" fill="none" color="gray" stroke-width=".5" stroke-linecap="round" stroke-linejoin="round"/><g fill="none" color="#000" stroke="currentColor" stroke-linecap="round" stroke-linejoin="round"><path stroke="#000" d="M96.3 167.4h13.5m604.9 0h-13.5"/><text transform="translate(83.7 174.1)" stroke="none" fill="#000" font-family="Verdana" font-size="18" text-anchor="end"><tspan>500</tspan></text></g><path stroke="gray" stroke-dasharray="2,4" class="gridline" d="M96.3 124.2h618.4" fill="none" color="gray" stroke-width=".5" stroke-linecap="round" stroke-linejoin="round"/><g fill="none" color="#000" stroke="currentColor" stroke-linecap="round" stroke-linejoin="round"><path stroke="#000" d="M96.3 124.2h13.5m604.9 0h-13.5"/><text transform="translate(83.7 130.9)" stroke="none" fill="#000" font-family="Verdana" font-size="18" text-anchor="end"><tspan>600</tspan></text></g><path stroke="gray" stroke-dasharray="2,4" class="gridline" d="M96.3 81.1h618.4" fill="none" color="gray" stroke-width=".5" stroke-linecap="round" stroke-linejoin="round"/><g fill="none" color="#000" stroke="currentColor" stroke-linecap="round" stroke-linejoin="round"><path stroke="#000" d="M96.3 81.1h13.5m604.9 0h-13.5"/><text transform="translate(83.7 87.8)" stroke="none" fill="#000" font-family="Verdana" font-size="18" text-anchor="end"><tspan>700</tspan></text></g><path stroke="gray" stroke-dasharray="2,4" class="gridline" d="M124.4 383.1v-302" fill="none" color="gray" stroke-width=".5" stroke-linecap="round" stroke-linejoin="round"/><g fill="none" color="#000" stroke="currentColor" stroke-linecap="round" stroke-linejoin="round"><path stroke="#000" d="M124.4 383.1v-13.5m0-288.5v13.5"/><text transform="rotate(45 -418.402 340.892)" stroke="none" fill="#000" font-family="Verdana" font-size="18"><tspan>Ubuntu</tspan></text></g><path stroke="gray" stroke-dasharray="2,4" class="gridline" d="M180.6 383.1v-302" fill="none" color="gray" stroke-width=".5" stroke-linecap="round" stroke-linejoin="round"/><g fill="none" color="#000" stroke="currentColor" stroke-linecap="round" stroke-linejoin="round"><path stroke="#000" d="M180.6 383.1v-13.5m0-288.5v13.5"/><text transform="rotate(45 -390.302 408.732)" stroke="none" fill="#000" font-family="Verdana" font-size="18"><tspan>Debian</tspan></text></g><path stroke="gray" stroke-dasharray="2,4" class="gridline" d="M236.8 383.1v-302" fill="none" color="gray" stroke-width=".5" stroke-linecap="round" stroke-linejoin="round"/><g fill="none" color="#000" stroke="currentColor" stroke-linecap="round" stroke-linejoin="round"><path stroke="#000" d="M236.8 383.1v-13.5m0-288.5v13.5"/><text transform="rotate(45 -362.202 476.57)" stroke="none" fill="#000" font-family="Verdana" font-size="18"><tspan>CentOS</tspan></text></g><path stroke="gray" stroke-dasharray="2,4" class="gridline" d="M293.1 383.1v-302" fill="none" color="gray" stroke-width=".5" stroke-linecap="round" stroke-linejoin="round"/><g fill="none" color="#000" stroke="currentColor" stroke-linecap="round" stroke-linejoin="round"><path stroke="#000" d="M293.1 383.1v-13.5m0-288.5v13.5"/><text transform="rotate(45 -334.052 544.53)" stroke="none" fill="#000" font-family="Verdana" font-size="18"><tspan>Arch Linux</tspan></text></g><path stroke="gray" stroke-dasharray="2,4" class="gridline" d="M349.3 383.1v-302" fill="none" color="gray" stroke-width=".5" stroke-linecap="round" stroke-linejoin="round"/><g fill="none" color="#000" stroke="currentColor" stroke-linecap="round" stroke-linejoin="round"><path stroke="#000" d="M349.3 383.1v-13.5m0-288.5v13.5"/><text transform="rotate(45 -305.952 612.37)" stroke="none" fill="#000" font-family="Verdana" font-size="18"><tspan>RHEL</tspan></text></g><path stroke="gray" stroke-dasharray="2,4" class="gridline" d="M405.5 383.1v-302" fill="none" color="gray" stroke-width=".5" stroke-linecap="round" stroke-linejoin="round"/><g fill="none" color="#000" stroke="currentColor" stroke-linecap="round" stroke-linejoin="round"><path stroke="#000" d="M405.5 383.1v-13.5m0-288.5v13.5"/><text transform="rotate(45 -277.852 680.21)" stroke="none" fill="#000" font-family="Verdana" font-size="18"><tspan>Gentoo</tspan></text></g><path stroke="gray" stroke-dasharray="2,4" class="gridline" d="M461.7 383.1v-302" fill="none" color="gray" stroke-width=".5" stroke-linecap="round" stroke-linejoin="round"/><g fill="none" color="#000" stroke="currentColor" stroke-linecap="round" stroke-linejoin="round"><path stroke="#000" d="M461.7 383.1v-13.5m0-288.5v13.5"/><text transform="rotate(45 -249.752 748.05)" stroke="none" fill="#000" font-family="Verdana" font-size="18"><tspan>Fedora</tspan></text></g><path stroke="gray" stroke-dasharray="2,4" class="gridline" d="M517.9 383.1v-302" fill="none" color="gray" stroke-width=".5" stroke-linecap="round" stroke-linejoin="round"/><g fill="none" color="#000" stroke="currentColor" stroke-linecap="round" stroke-linejoin="round"><path stroke="#000" d="M517.9 383.1v-13.5m0-288.5v13.5"/><text transform="rotate(45 -221.652 815.89)" stroke="none" fill="#000" font-family="Verdana" font-size="18"><tspan>Slackware</tspan></text></g><path stroke="gray" stroke-dasharray="2,4" class="gridline" d="M574.2 383.1v-302" fill="none" color="gray" stroke-width=".5" stroke-linecap="round" stroke-linejoin="round"/><g fill="none" color="#000" stroke="currentColor" stroke-linecap="round" stroke-linejoin="round"><path stroke="#000" d="M574.2 383.1v-13.5m0-288.5v13.5"/><text transform="rotate(45 -193.502 883.85)" stroke="none" fill="#000" font-family="Verdana" font-size="18"><tspan>OpenSUSE</tspan></text></g><path stroke="gray" stroke-dasharray="2,4" class="gridline" d="M630.4 383.1v-302" fill="none" color="gray" stroke-width=".5" stroke-linecap="round" stroke-linejoin="round"/><g fill="none" color="#000" stroke="currentColor" stroke-linecap="round" stroke-linejoin="round"><path stroke="#000" d="M630.4 383.1v-13.5m0-288.5v13.5"/><text transform="rotate(45 -165.402 951.688)" stroke="none" fill="#000" font-family="Verdana" font-size="18"><tspan>Scientific Linux</tspan></text></g><path stroke="gray" stroke-dasharray="2,4" class="gridline" d="M686.6 383.1v-302" fill="none" color="gray" stroke-width=".5" stroke-linecap="round" stroke-linejoin="round"/><g fill="none" color="#000" stroke="currentColor" stroke-linecap="round" stroke-linejoin="round"><path stroke="#000" d="M686.6 383.1v-13.5m0-288.5v13.5"/><text transform="rotate(45 -137.302 1019.528)" stroke="none" fill="#000" font-family="Verdana" font-size="18"><tspan>Other</tspan></text></g><path stroke="#000" d="M96.3 81.1v302h618.4v-302H96.3z" fill="none" color="#000" stroke-linecap="round" stroke-linejoin="round"/><text transform="rotate(-90 129.3 102.8)" font-family="Verdana" font-size="18" text-anchor="middle" color="#000" stroke-linecap="round" stroke-linejoin="round"><tspan>Number of Responses</tspan></text><text transform="translate(405.5 572.8)" font-family="Verdana" font-size="18" text-anchor="middle" color="#000" stroke-linecap="round" stroke-linejoin="round"><tspan>Linux Distribution</tspan></text><text transform="translate(405.5 47.3)" font-family="Verdana" font-size="18" text-anchor="middle" color="#000" stroke-linecap="round" stroke-linejoin="round"><tspan>Which Linux distribution do you primarily use on your server computers?</tspan></text><title>gnuplot_plot_1</title><g fill="none" color="#000" stroke="currentColor" stroke-linecap="round" stroke-linejoin="round"><path fill="#5C3566" d="M105.6 383.1h37.7V109.9h-37.7" shape-rendering="crispEdges" stroke="none"/><path stroke="#000" d="M105.6 383.1V110h37.6v273.1h-37.6z"/></g><g fill="none" color="#000" stroke="currentColor" stroke-linecap="round" stroke-linejoin="round"><path fill="#5C3566" d="M161.8 383.1h37.8V150.5h-37.8" shape-rendering="crispEdges" stroke="none"/><path stroke="#000" d="M161.8 383.1V150.6h37.7v232.5h-37.7z"/></g><g fill="none" color="#000" stroke="currentColor" stroke-linecap="round" stroke-linejoin="round"><path fill="#5C3566" d="M218 383.1h37.8v-92.4H218" shape-rendering="crispEdges" stroke="none"/><path stroke="#000" d="M218 383.1v-92.3h37.7v92.3H218z"/></g><g fill="none" color="#000" stroke="currentColor" stroke-linecap="round" stroke-linejoin="round"><path fill="#5C3566" d="M274.2 383.1H312V304h-37.8" shape-rendering="crispEdges" stroke="none"/><path stroke="#000" d="M274.2 383.1v-79h37.7v79h-37.7z"/></g><g fill="none" color="#000" stroke="currentColor" stroke-linecap="round" stroke-linejoin="round"><path fill="#5C3566" d="M330.4 383.1h37.8v-35.9h-37.8" shape-rendering="crispEdges" stroke="none"/><path stroke="#000" d="M330.4 383.1v-35.8h37.7v35.8h-37.7z"/></g><g fill="none" color="#000" stroke="currentColor" stroke-linecap="round" stroke-linejoin="round"><path fill="#5C3566" d="M386.7 383.1h37.7V361h-37.7" shape-rendering="crispEdges" stroke="none"/><path stroke="#000" d="M386.7 383.1v-22h37.6v22h-37.6z"/></g><g fill="none" color="#000" stroke="currentColor" stroke-linecap="round" stroke-linejoin="round"><path fill="#5C3566" d="M442.9 383.1h37.8v-14.8h-37.8" shape-rendering="crispEdges" stroke="none"/><path stroke="#000" d="M442.9 383.1v-14.7h37.7v14.7h-37.7z"/></g><g fill="none" color="#000" stroke="currentColor" stroke-linecap="round" stroke-linejoin="round"><path fill="#5C3566" d="M499.1 383.1h37.8v-9.6h-37.8" shape-rendering="crispEdges" stroke="none"/><path stroke="#000" d="M499.1 383.1v-9.5h37.7v9.5h-37.7z"/></g><g fill="none" color="#000" stroke="currentColor" stroke-linecap="round" stroke-linejoin="round"><path fill="#5C3566" d="M555.3 383.1h37.8v-5.3h-37.8" shape-rendering="crispEdges" stroke="none"/><path stroke="#000" d="M555.3 383.1v-5.2H593v5.2h-37.7z"/></g><g fill="none" color="#000" stroke="currentColor" stroke-linecap="round" stroke-linejoin="round"><path fill="#5C3566" d="M611.5 383.1h37.8v-4.4h-37.8" shape-rendering="crispEdges" stroke="none"/><path stroke="#000" d="M611.5 383.1v-4.3h37.7v4.3h-37.7z"/></g><g fill="none" color="#000" stroke="currentColor" stroke-linecap="round" stroke-linejoin="round"><path fill="#5C3566" d="M667.8 383.1h37.7v-26.8h-37.7" shape-rendering="crispEdges" stroke="none"/><path stroke="#000" d="M667.8 383.1v-26.7h37.6v26.7h-37.6z"/></g><path stroke="#000" d="M96.3 81.1v302h618.4v-302H96.3z" fill="none" color="#000" stroke-linecap="round" stroke-linejoin="round"/></svg>