<svg viewBox="0 0 780 585" xmlns="http://www.w3.org/2000/svg"><title>Gnuplot</title><desc>Produced by GNUPLOT 5.0 patchlevel 0</desc><path fill="none" d="M0 0h780v585H0z"/><path stroke="gray" stroke-dasharray="2,4" class="gridline" d="M83.7 418.7h658.4" fill="none" color="gray" stroke-width=".5" stroke-linecap="round" stroke-linejoin="round"/><g fill="none" color="#000" stroke="currentColor" stroke-linecap="round" stroke-linejoin="round"><path stroke="#000" d="M83.7 418.7h13.5m644.9 0h-13.5"/><text transform="translate(71.1 425.4)" stroke="none" fill="#000" font-family="Verdana" font-size="18" text-anchor="end"><tspan>0</tspan></text></g><path stroke="gray" stroke-dasharray="2,4" class="gridline" d="M83.7 351.2h658.4" fill="none" color="gray" stroke-width=".5" stroke-linecap="round" stroke-linejoin="round"/><g fill="none" color="#000" stroke="currentColor" stroke-linecap="round" stroke-linejoin="round"><path stroke="#000" d="M83.7 351.2h13.5m644.9 0h-13.5"/><text transform="translate(71.1 357.9)" stroke="none" fill="#000" font-family="Verdana" font-size="18" text-anchor="end"><tspan>5</tspan></text></g><path stroke="gray" stroke-dasharray="2,4" class="gridline" d="M83.7 283.7h658.4" fill="none" color="gray" stroke-width=".5" stroke-linecap="round" stroke-linejoin="round"/><g fill="none" color="#000" stroke="currentColor" stroke-linecap="round" stroke-linejoin="round"><path stroke="#000" d="M83.7 283.7h13.5m644.9 0h-13.5"/><text transform="translate(71.1 290.4)" stroke="none" fill="#000" font-family="Verdana" font-size="18" text-anchor="end"><tspan>10</tspan></text></g><path stroke="gray" stroke-dasharray="2,4" class="gridline" d="M83.7 216.1h658.4" fill="none" color="gray" stroke-width=".5" stroke-linecap="round" stroke-linejoin="round"/><g fill="none" color="#000" stroke="currentColor" stroke-linecap="round" stroke-linejoin="round"><path stroke="#000" d="M83.7 216.1h13.5m644.9 0h-13.5"/><text transform="translate(71.1 222.8)" stroke="none" fill="#000" font-family="Verdana" font-size="18" text-anchor="end"><tspan>15</tspan></text></g><path stroke="gray" stroke-dasharray="2,4" class="gridline" d="M83.7 148.6h658.4" fill="none" color="gray" stroke-width=".5" stroke-linecap="round" stroke-linejoin="round"/><g fill="none" color="#000" stroke="currentColor" stroke-linecap="round" stroke-linejoin="round"><path stroke="#000" d="M83.7 148.6h13.5m644.9 0h-13.5"/><text transform="translate(71.1 155.3)" stroke="none" fill="#000" font-family="Verdana" font-size="18" text-anchor="end"><tspan>20</tspan></text></g><path stroke="gray" stroke-dasharray="2,4" class="gridline" d="M83.7 81.1h658.4" fill="none" color="gray" stroke-width=".5" stroke-linecap="round" stroke-linejoin="round"/><g fill="none" color="#000" stroke="currentColor" stroke-linecap="round" stroke-linejoin="round"><path stroke="#000" d="M83.7 81.1h13.5m644.9 0h-13.5"/><text transform="translate(71.1 87.8)" stroke="none" fill="#000" font-family="Verdana" font-size="18" text-anchor="end"><tspan>25</tspan></text></g><path stroke="gray" stroke-dasharray="2,4" class="gridline" d="M116.6 418.7V81.1" fill="none" color="gray" stroke-width=".5" stroke-linecap="round" stroke-linejoin="round"/><g fill="none" color="#000" stroke="currentColor" stroke-linecap="round" stroke-linejoin="round"><path stroke="#000" d="M116.6 418.7v-13.5m0-324.1v13.5"/><text transform="rotate(45 -465.275 349.277)" stroke="none" fill="#000" font-family="Verdana" font-size="18"><tspan>Debian</tspan></text></g><path stroke="gray" stroke-dasharray="2,4" class="gridline" d="M182.5 418.7V81.1" fill="none" color="gray" stroke-width=".5" stroke-linecap="round" stroke-linejoin="round"/><g fill="none" color="#000" stroke="currentColor" stroke-linecap="round" stroke-linejoin="round"><path stroke="#000" d="M182.5 418.7v-13.5m0-324.1v13.5"/><text transform="rotate(45 -432.325 428.825)" stroke="none" fill="#000" font-family="Verdana" font-size="18"><tspan>Ubuntu</tspan></text></g><path stroke="gray" stroke-dasharray="2,4" class="gridline" d="M248.3 418.7V81.1" fill="none" color="gray" stroke-width=".5" stroke-linecap="round" stroke-linejoin="round"/><g fill="none" color="#000" stroke="currentColor" stroke-linecap="round" stroke-linejoin="round"><path stroke="#000" d="M248.3 418.7v-13.5m0-324.1v13.5"/><text transform="rotate(45 -399.425 508.253)" stroke="none" fill="#000" font-family="Verdana" font-size="18"><tspan>CentOS</tspan></text></g><path stroke="gray" stroke-dasharray="2,4" class="gridline" d="M314.1 418.7V81.1" fill="none" color="gray" stroke-width=".5" stroke-linecap="round" stroke-linejoin="round"/><g fill="none" color="#000" stroke="currentColor" stroke-linecap="round" stroke-linejoin="round"><path stroke="#000" d="M314.1 418.7v-13.5m0-324.1v13.5"/><text transform="rotate(45 -366.525 587.68)" stroke="none" fill="#000" font-family="Verdana" font-size="18"><tspan>Arch Linux</tspan></text></g><path stroke="gray" stroke-dasharray="2,4" class="gridline" d="M380 418.7V81.1" fill="none" color="gray" stroke-width=".5" stroke-linecap="round" stroke-linejoin="round"/><g fill="none" color="#000" stroke="currentColor" stroke-linecap="round" stroke-linejoin="round"><path stroke="#000" d="M380 418.7v-13.5m0-324.1v13.5"/><text transform="rotate(45 -333.575 667.23)" stroke="none" fill="#000" font-family="Verdana" font-size="18"><tspan>RHEL</tspan></text></g><path stroke="gray" stroke-dasharray="2,4" class="gridline" d="M445.8 418.7V81.1" fill="none" color="gray" stroke-width=".5" stroke-linecap="round" stroke-linejoin="round"/><g fill="none" color="#000" stroke="currentColor" stroke-linecap="round" stroke-linejoin="round"><path stroke="#000" d="M445.8 418.7v-13.5m0-324.1v13.5"/><text transform="rotate(45 -300.675 746.656)" stroke="none" fill="#000" font-family="Verdana" font-size="18"><tspan>Fedora</tspan></text></g><path stroke="gray" stroke-dasharray="2,4" class="gridline" d="M511.7 418.7V81.1" fill="none" color="gray" stroke-width=".5" stroke-linecap="round" stroke-linejoin="round"/><g fill="none" color="#000" stroke="currentColor" stroke-linecap="round" stroke-linejoin="round"><path stroke="#000" d="M511.7 418.7v-13.5m0-324.1v13.5"/><text transform="rotate(45 -267.725 826.205)" stroke="none" fill="#000" font-family="Verdana" font-size="18"><tspan>Gentoo</tspan></text></g><path stroke="gray" stroke-dasharray="2,4" class="gridline" d="M577.5 418.7V81.1" fill="none" color="gray" stroke-width=".5" stroke-linecap="round" stroke-linejoin="round"/><g fill="none" color="#000" stroke="currentColor" stroke-linecap="round" stroke-linejoin="round"><path stroke="#000" d="M577.5 418.7v-13.5m0-324.1v13.5"/><text transform="rotate(45 -234.825 905.632)" stroke="none" fill="#000" font-family="Verdana" font-size="18"><tspan>OpenSUSE</tspan></text></g><path stroke="gray" stroke-dasharray="2,4" class="gridline" d="M643.3 418.7V81.1" fill="none" color="gray" stroke-width=".5" stroke-linecap="round" stroke-linejoin="round"/><g fill="none" color="#000" stroke="currentColor" stroke-linecap="round" stroke-linejoin="round"><path stroke="#000" d="M643.3 418.7v-13.5m0-324.1v13.5"/><text transform="rotate(45 -201.925 985.06)" stroke="none" fill="#000" font-family="Verdana" font-size="18"><tspan>Amazon Linux</tspan></text></g><path stroke="gray" stroke-dasharray="2,4" class="gridline" d="M709.2 418.7V81.1" fill="none" color="gray" stroke-width=".5" stroke-linecap="round" stroke-linejoin="round"/><g fill="none" color="#000" stroke="currentColor" stroke-linecap="round" stroke-linejoin="round"><path stroke="#000" d="M709.2 418.7v-13.5m0-324.1v13.5"/><text transform="rotate(45 -168.975 1064.608)" stroke="none" fill="#000" font-family="Verdana" font-size="18"><tspan>Other</tspan></text></g><path stroke="#000" d="M83.7 81.1v337.6h658.4V81.1H83.7z" fill="none" color="#000" stroke-linecap="round" stroke-linejoin="round"/><text transform="rotate(-90 138.2 111.7)" font-family="Verdana" font-size="18" text-anchor="middle" color="#000" stroke-linecap="round" stroke-linejoin="round"><tspan>Percentage of Responses</tspan></text><text transform="translate(412.9 572.8)" font-family="Verdana" font-size="18" text-anchor="middle" color="#000" stroke-linecap="round" stroke-linejoin="round"><tspan>Linux Distribution</tspan></text><text transform="translate(412.9 47.3)" font-family="Verdana" font-size="18" text-anchor="middle" color="#000" stroke-linecap="round" stroke-linejoin="round"><tspan>What other Linux distributions do you use on your server computers?</tspan></text><title>gnuplot_plot_1</title><g fill="none" color="#000" stroke="currentColor" stroke-linecap="round" stroke-linejoin="round"><path fill="#A40000" d="M94.6 418.7h44.2V121.5H94.6" shape-rendering="crispEdges" stroke="none"/><path stroke="#000" d="M94.6 418.7V121.6h44.1v297.1H94.6z"/></g><g fill="none" color="#000" stroke="currentColor" stroke-linecap="round" stroke-linejoin="round"><path fill="#A40000" d="M160.4 418.7h44.2V148.5h-44.2" shape-rendering="crispEdges" stroke="none"/><path stroke="#000" d="M160.4 418.7V148.6h44.1v270.1h-44.1z"/></g><g fill="none" color="#000" stroke="currentColor" stroke-linecap="round" stroke-linejoin="round"><path fill="#A40000" d="M226.2 418.7h44.3V162h-44.3" shape-rendering="crispEdges" stroke="none"/><path stroke="#000" d="M226.2 418.7V162.1h44.2v256.6h-44.2z"/></g><g fill="none" color="#000" stroke="currentColor" stroke-linecap="round" stroke-linejoin="round"><path fill="#A40000" d="M292.1 418.7h44.2V283.6h-44.2" shape-rendering="crispEdges" stroke="none"/><path stroke="#000" d="M292.1 418.7v-135h44.1v135h-44.1z"/></g><g fill="none" color="#000" stroke="currentColor" stroke-linecap="round" stroke-linejoin="round"><path fill="#A40000" d="M357.9 418.7h44.2v-94.6h-44.2" shape-rendering="crispEdges" stroke="none"/><path stroke="#000" d="M357.9 418.7v-94.5H402v94.5h-44.1z"/></g><g fill="none" color="#000" stroke="currentColor" stroke-linecap="round" stroke-linejoin="round"><path fill="#A40000" d="M423.8 418.7H468v-81.1h-44.2" shape-rendering="crispEdges" stroke="none"/><path stroke="#000" d="M423.8 418.7v-81h44.1v81h-44.1z"/></g><g fill="none" color="#000" stroke="currentColor" stroke-linecap="round" stroke-linejoin="round"><path fill="#A40000" d="M489.6 418.7h44.2v-40.6h-44.2" shape-rendering="crispEdges" stroke="none"/><path stroke="#000" d="M489.6 418.7v-40.5h44.1v40.5h-44.1z"/></g><g fill="none" color="#000" stroke="currentColor" stroke-linecap="round" stroke-linejoin="round"><path fill="#A40000" d="M555.4 418.7h44.3v-27.1h-44.3" shape-rendering="crispEdges" stroke="none"/><path stroke="#000" d="M555.4 418.7v-27h44.2v27h-44.2z"/></g><g fill="none" color="#000" stroke="currentColor" stroke-linecap="round" stroke-linejoin="round"><path fill="#A40000" d="M621.3 418.7h44.2v-27.1h-44.2" shape-rendering="crispEdges" stroke="none"/><path stroke="#000" d="M621.3 418.7v-27h44.1v27h-44.1z"/></g><g fill="none" color="#000" stroke="currentColor" stroke-linecap="round" stroke-linejoin="round"><path fill="#A40000" d="M687.1 418.7h44.2V283.6h-44.2" shape-rendering="crispEdges" stroke="none"/><path stroke="#000" d="M687.1 418.7v-135h44.1v135h-44.1z"/></g><path stroke="#000" d="M83.7 81.1v337.6h658.4V81.1H83.7z" fill="none" color="#000" stroke-linecap="round" stroke-linejoin="round"/></svg>