<svg viewBox="0 0 780 585" xmlns="http://www.w3.org/2000/svg"><title>Gnuplot</title><desc>Produced by GNUPLOT 5.0 patchlevel 0</desc><path fill="none" d="M0 0h780v585H0z"/><path stroke="gray" stroke-dasharray="2,4" class="gridline" d="M96.3 365.3h645.8" fill="none" color="gray" stroke-width=".5" stroke-linecap="round" stroke-linejoin="round"/><g fill="none" color="#000" stroke="currentColor" stroke-linecap="round" stroke-linejoin="round"><path stroke="#000" d="M96.3 365.3h13.5m632.3 0h-13.5"/><text transform="translate(83.7 372)" stroke="none" fill="#000" font-family="Verdana" font-size="18" text-anchor="end"><tspan>0</tspan></text></g><path stroke="gray" stroke-dasharray="2,4" class="gridline" d="M96.3 329.8h645.8" fill="none" color="gray" stroke-width=".5" stroke-linecap="round" stroke-linejoin="round"/><g fill="none" color="#000" stroke="currentColor" stroke-linecap="round" stroke-linejoin="round"><path stroke="#000" d="M96.3 329.8h13.5m632.3 0h-13.5"/><text transform="translate(83.7 336.5)" stroke="none" fill="#000" font-family="Verdana" font-size="18" text-anchor="end"><tspan>100</tspan></text></g><path stroke="gray" stroke-dasharray="2,4" class="gridline" d="M96.3 294.2h645.8" fill="none" color="gray" stroke-width=".5" stroke-linecap="round" stroke-linejoin="round"/><g fill="none" color="#000" stroke="currentColor" stroke-linecap="round" stroke-linejoin="round"><path stroke="#000" d="M96.3 294.2h13.5m632.3 0h-13.5"/><text transform="translate(83.7 300.9)" stroke="none" fill="#000" font-family="Verdana" font-size="18" text-anchor="end"><tspan>200</tspan></text></g><path stroke="gray" stroke-dasharray="2,4" class="gridline" d="M96.3 258.7h645.8" fill="none" color="gray" stroke-width=".5" stroke-linecap="round" stroke-linejoin="round"/><g fill="none" color="#000" stroke="currentColor" stroke-linecap="round" stroke-linejoin="round"><path stroke="#000" d="M96.3 258.7h13.5m632.3 0h-13.5"/><text transform="translate(83.7 265.4)" stroke="none" fill="#000" font-family="Verdana" font-size="18" text-anchor="end"><tspan>300</tspan></text></g><path stroke="gray" stroke-dasharray="2,4" class="gridline" d="M96.3 223.2h645.8" fill="none" color="gray" stroke-width=".5" stroke-linecap="round" stroke-linejoin="round"/><g fill="none" color="#000" stroke="currentColor" stroke-linecap="round" stroke-linejoin="round"><path stroke="#000" d="M96.3 223.2h13.5m632.3 0h-13.5"/><text transform="translate(83.7 229.9)" stroke="none" fill="#000" font-family="Verdana" font-size="18" text-anchor="end"><tspan>400</tspan></text></g><path stroke="gray" stroke-dasharray="2,4" class="gridline" d="M96.3 187.7h645.8" fill="none" color="gray" stroke-width=".5" stroke-linecap="round" stroke-linejoin="round"/><g fill="none" color="#000" stroke="currentColor" stroke-linecap="round" stroke-linejoin="round"><path stroke="#000" d="M96.3 187.7h13.5m632.3 0h-13.5"/><text transform="translate(83.7 194.4)" stroke="none" fill="#000" font-family="Verdana" font-size="18" text-anchor="end"><tspan>500</tspan></text></g><path stroke="gray" stroke-dasharray="2,4" class="gridline" d="M96.3 152.1h645.8" fill="none" color="gray" stroke-width=".5" stroke-linecap="round" stroke-linejoin="round"/><g fill="none" color="#000" stroke="currentColor" stroke-linecap="round" stroke-linejoin="round"><path stroke="#000" d="M96.3 152.1h13.5m632.3 0h-13.5"/><text transform="translate(83.7 158.8)" stroke="none" fill="#000" font-family="Verdana" font-size="18" text-anchor="end"><tspan>600</tspan></text></g><path stroke="gray" stroke-dasharray="2,4" class="gridline" d="M96.3 116.6h645.8" fill="none" color="gray" stroke-width=".5" stroke-linecap="round" stroke-linejoin="round"/><g fill="none" color="#000" stroke="currentColor" stroke-linecap="round" stroke-linejoin="round"><path stroke="#000" d="M96.3 116.6h13.5m632.3 0h-13.5"/><text transform="translate(83.7 123.3)" stroke="none" fill="#000" font-family="Verdana" font-size="18" text-anchor="end"><tspan>700</tspan></text></g><path stroke="gray" stroke-dasharray="2,4" class="gridline" d="M96.3 81.1h645.8" fill="none" color="gray" stroke-width=".5" stroke-linecap="round" stroke-linejoin="round"/><g fill="none" color="#000" stroke="currentColor" stroke-linecap="round" stroke-linejoin="round"><path stroke="#000" d="M96.3 81.1h13.5m632.3 0h-13.5"/><text transform="translate(83.7 87.8)" stroke="none" fill="#000" font-family="Verdana" font-size="18" text-anchor="end"><tspan>800</tspan></text></g><path stroke="gray" stroke-dasharray="2,4" class="gridline" d="M128.6 365.3V81.1" fill="none" color="gray" stroke-width=".5" stroke-linecap="round" stroke-linejoin="round"/><g fill="none" color="#000" stroke="currentColor" stroke-linecap="round" stroke-linejoin="round"><path stroke="#000" d="M128.6 365.3v-13.5m0-270.7v13.5"/><text transform="rotate(45 -394.816 337.062)" stroke="none" fill="#000" font-family="Verdana" font-size="18"><tspan>Virtual Machine</tspan></text></g><path stroke="gray" stroke-dasharray="2,4" class="gridline" d="M193.2 365.3V81.1" fill="none" color="gray" stroke-width=".5" stroke-linecap="round" stroke-linejoin="round"/><g fill="none" color="#000" stroke="currentColor" stroke-linecap="round" stroke-linejoin="round"><path stroke="#000" d="M193.2 365.3v-13.5m0-270.7v13.5"/><text transform="rotate(45 -362.516 415.04)" stroke="none" fill="#000" font-family="Verdana" font-size="18"><tspan>Rack Server</tspan></text></g><path stroke="gray" stroke-dasharray="2,4" class="gridline" d="M257.8 365.3V81.1" fill="none" color="gray" stroke-width=".5" stroke-linecap="round" stroke-linejoin="round"/><g fill="none" color="#000" stroke="currentColor" stroke-linecap="round" stroke-linejoin="round"><path stroke="#000" d="M257.8 365.3v-13.5m0-270.7v13.5"/><text transform="rotate(45 -330.216 493.02)" stroke="none" fill="#000" font-family="Verdana" font-size="18"><tspan>Desktop PC</tspan></text></g><path stroke="gray" stroke-dasharray="2,4" class="gridline" d="M322.3 365.3V81.1" fill="none" color="gray" stroke-width=".5" stroke-linecap="round" stroke-linejoin="round"/><g fill="none" color="#000" stroke="currentColor" stroke-linecap="round" stroke-linejoin="round"><path stroke="#000" d="M322.3 365.3v-13.5m0-270.7v13.5"/><text transform="rotate(45 -297.966 570.88)" stroke="none" fill="#000" font-family="Verdana" font-size="18"><tspan>Workstation</tspan></text></g><path stroke="gray" stroke-dasharray="2,4" class="gridline" d="M386.9 365.3V81.1" fill="none" color="gray" stroke-width=".5" stroke-linecap="round" stroke-linejoin="round"/><g fill="none" color="#000" stroke="currentColor" stroke-linecap="round" stroke-linejoin="round"><path stroke="#000" d="M386.9 365.3v-13.5m0-270.7v13.5"/><text transform="rotate(45 -265.666 648.858)" stroke="none" fill="#000" font-family="Verdana" font-size="18"><tspan>RasPi (or similar)</tspan></text></g><path stroke="gray" stroke-dasharray="2,4" class="gridline" d="M451.5 365.3V81.1" fill="none" color="gray" stroke-width=".5" stroke-linecap="round" stroke-linejoin="round"/><g fill="none" color="#000" stroke="currentColor" stroke-linecap="round" stroke-linejoin="round"><path stroke="#000" d="M451.5 365.3v-13.5m0-270.7v13.5"/><text transform="rotate(45 -233.366 726.837)" stroke="none" fill="#000" font-family="Verdana" font-size="18"><tspan>Laptop</tspan></text></g><path stroke="gray" stroke-dasharray="2,4" class="gridline" d="M516.1 365.3V81.1" fill="none" color="gray" stroke-width=".5" stroke-linecap="round" stroke-linejoin="round"/><g fill="none" color="#000" stroke="currentColor" stroke-linecap="round" stroke-linejoin="round"><path stroke="#000" d="M516.1 365.3v-13.5m0-270.7v13.5"/><text transform="rotate(45 -201.066 804.816)" stroke="none" fill="#000" font-family="Verdana" font-size="18"><tspan>Embedded</tspan></text></g><path stroke="gray" stroke-dasharray="2,4" class="gridline" d="M580.7 365.3V81.1" fill="none" color="gray" stroke-width=".5" stroke-linecap="round" stroke-linejoin="round"/><g fill="none" color="#000" stroke="currentColor" stroke-linecap="round" stroke-linejoin="round"><path stroke="#000" d="M580.7 365.3v-13.5m0-270.7v13.5"/><text transform="rotate(45 -168.766 882.795)" stroke="none" fill="#000" font-family="Verdana" font-size="18"><tspan>Supercomputer</tspan></text></g><path stroke="gray" stroke-dasharray="2,4" class="gridline" d="M645.2 365.3V81.1" fill="none" color="gray" stroke-width=".5" stroke-linecap="round" stroke-linejoin="round"/><g fill="none" color="#000" stroke="currentColor" stroke-linecap="round" stroke-linejoin="round"><path stroke="#000" d="M645.2 365.3v-13.5m0-270.7v13.5"/><text transform="rotate(45 -136.516 960.653)" stroke="none" fill="#000" font-family="Verdana" font-size="18"><tspan>Phone</tspan></text></g><path stroke="gray" stroke-dasharray="2,4" class="gridline" d="M709.8 365.3V81.1" fill="none" color="gray" stroke-width=".5" stroke-linecap="round" stroke-linejoin="round"/><g fill="none" color="#000" stroke="currentColor" stroke-linecap="round" stroke-linejoin="round"><path stroke="#000" d="M709.8 365.3v-13.5m0-270.7v13.5"/><text transform="rotate(45 -104.216 1038.632)" stroke="none" fill="#000" font-family="Verdana" font-size="18"><tspan>Tablet</tspan></text></g><path stroke="#000" d="M96.3 81.1v284.2h645.8V81.1H96.3z" fill="none" color="#000" stroke-linecap="round" stroke-linejoin="round"/><text transform="rotate(-90 124.85 98.35)" font-family="Verdana" font-size="18" text-anchor="middle" color="#000" stroke-linecap="round" stroke-linejoin="round"><tspan>Number of Responses</tspan></text><text transform="translate(419.2 572.8)" font-family="Verdana" font-size="18" text-anchor="middle" color="#000" stroke-linecap="round" stroke-linejoin="round"><tspan>Linux Distribution</tspan></text><text transform="translate(419.2 47.3)" font-family="Verdana" font-size="18" text-anchor="middle" color="#000" stroke-linecap="round" stroke-linejoin="round"><tspan>What hardware platform do you primarily run your primary server distributon on?</tspan></text><title>gnuplot_plot_1</title><g fill="none" color="#000" stroke="currentColor" stroke-linecap="round" stroke-linejoin="round"><path fill="#5C3566" d="M107 365.3h43.3V102.7H107" shape-rendering="crispEdges" stroke="none"/><path stroke="#000" d="M107 365.3V102.8h43.2v262.5H107z"/></g><g fill="none" color="#000" stroke="currentColor" stroke-linecap="round" stroke-linejoin="round"><path fill="#5C3566" d="M171.5 365.3h43.4V185.4h-43.4" shape-rendering="crispEdges" stroke="none"/><path stroke="#000" d="M171.5 365.3V185.5h43.3v179.8h-43.3z"/></g><g fill="none" color="#000" stroke="currentColor" stroke-linecap="round" stroke-linejoin="round"><path fill="#5C3566" d="M236.1 365.3h43.4v-81.1h-43.4" shape-rendering="crispEdges" stroke="none"/><path stroke="#000" d="M236.1 365.3v-81h43.3v81h-43.3z"/></g><g fill="none" color="#000" stroke="currentColor" stroke-linecap="round" stroke-linejoin="round"><path fill="#5C3566" d="M300.7 365.3h43.4v-54.8h-43.4" shape-rendering="crispEdges" stroke="none"/><path stroke="#000" d="M300.7 365.3v-54.7H344v54.7h-43.3z"/></g><g fill="none" color="#000" stroke="currentColor" stroke-linecap="round" stroke-linejoin="round"><path fill="#5C3566" d="M365.3 365.3h43.3V324h-43.3" shape-rendering="crispEdges" stroke="none"/><path stroke="#000" d="M365.3 365.3v-41.2h43.2v41.2h-43.2z"/></g><g fill="none" color="#000" stroke="currentColor" stroke-linecap="round" stroke-linejoin="round"><path fill="#5C3566" d="M429.9 365.3h43.3v-12.9h-43.3" shape-rendering="crispEdges" stroke="none"/><path stroke="#000" d="M429.9 365.3v-12.8h43.2v12.8h-43.2z"/></g><g fill="none" color="#000" stroke="currentColor" stroke-linecap="round" stroke-linejoin="round"><path fill="#5C3566" d="M494.4 365.3h43.4v-7.2h-43.4" shape-rendering="crispEdges" stroke="none"/><path stroke="#000" d="M494.4 365.3v-7.1h43.3v7.1h-43.3z"/></g><g fill="none" color="#000" stroke="currentColor" stroke-linecap="round" stroke-linejoin="round"><path fill="#5C3566" d="M559 365.3h43.4v-1.2H559" shape-rendering="crispEdges" stroke="none"/><path stroke="#000" d="M559 365.3v-1.1h43.3v1.1H559z"/></g><g fill="none" color="#000" stroke="currentColor" stroke-linecap="round" stroke-linejoin="round"><path fill="#5C3566" d="M623.6 365.3H667v-.5h-43.4" shape-rendering="crispEdges" stroke="none"/><path stroke="#000" d="M623.6 365.3v-.4h43.3v.4h-43.3z"/></g><g fill="none" color="#000" stroke="currentColor" stroke-linecap="round" stroke-linejoin="round"><path fill="#5C3566" d="M688.2 365.3h43.3v-.5h-43.3" shape-rendering="crispEdges" stroke="none"/><path stroke="#000" d="M688.2 365.3v-.4h43.2v.4h-43.2z"/></g><path stroke="#000" d="M96.3 81.1v284.2h645.8V81.1H96.3z" fill="none" color="#000" stroke-linecap="round" stroke-linejoin="round"/></svg>