<svg viewBox="0 0 780 585" xmlns="http://www.w3.org/2000/svg"><title>Gnuplot</title><desc>Produced by GNUPLOT 5.0 patchlevel 0</desc><path fill="none" d="M0 0h780v585H0z"/><path stroke="gray" stroke-dasharray="2,4" class="gridline" d="M96.3 454.4h645.8" fill="none" color="gray" stroke-width=".5" stroke-linecap="round" stroke-linejoin="round"/><g fill="none" color="#000" stroke="currentColor" stroke-linecap="round" stroke-linejoin="round"><path stroke="#000" d="M96.3 454.4h13.5m632.3 0h-13.5"/><text transform="translate(83.7 461.1)" stroke="none" fill="#000" font-family="Verdana" font-size="18" text-anchor="end"><tspan>0</tspan></text></g><path stroke="gray" stroke-dasharray="2,4" class="gridline" d="M96.3 401.1h645.8" fill="none" color="gray" stroke-width=".5" stroke-linecap="round" stroke-linejoin="round"/><g fill="none" color="#000" stroke="currentColor" stroke-linecap="round" stroke-linejoin="round"><path stroke="#000" d="M96.3 401.1h13.5m632.3 0h-13.5"/><text transform="translate(83.7 407.8)" stroke="none" fill="#000" font-family="Verdana" font-size="18" text-anchor="end"><tspan>100</tspan></text></g><path stroke="gray" stroke-dasharray="2,4" class="gridline" d="M96.3 347.7h645.8" fill="none" color="gray" stroke-width=".5" stroke-linecap="round" stroke-linejoin="round"/><g fill="none" color="#000" stroke="currentColor" stroke-linecap="round" stroke-linejoin="round"><path stroke="#000" d="M96.3 347.7h13.5m632.3 0h-13.5"/><text transform="translate(83.7 354.4)" stroke="none" fill="#000" font-family="Verdana" font-size="18" text-anchor="end"><tspan>200</tspan></text></g><path stroke="gray" stroke-dasharray="2,4" class="gridline" d="M96.3 294.4h645.8" fill="none" color="gray" stroke-width=".5" stroke-linecap="round" stroke-linejoin="round"/><g fill="none" color="#000" stroke="currentColor" stroke-linecap="round" stroke-linejoin="round"><path stroke="#000" d="M96.3 294.4h13.5m632.3 0h-13.5"/><text transform="translate(83.7 301.1)" stroke="none" fill="#000" font-family="Verdana" font-size="18" text-anchor="end"><tspan>300</tspan></text></g><path stroke="gray" stroke-dasharray="2,4" class="gridline" d="M96.3 241.1h645.8" fill="none" color="gray" stroke-width=".5" stroke-linecap="round" stroke-linejoin="round"/><g fill="none" color="#000" stroke="currentColor" stroke-linecap="round" stroke-linejoin="round"><path stroke="#000" d="M96.3 241.1h13.5m632.3 0h-13.5"/><text transform="translate(83.7 247.8)" stroke="none" fill="#000" font-family="Verdana" font-size="18" text-anchor="end"><tspan>400</tspan></text></g><path stroke="gray" stroke-dasharray="2,4" class="gridline" d="M96.3 187.8h645.8" fill="none" color="gray" stroke-width=".5" stroke-linecap="round" stroke-linejoin="round"/><g fill="none" color="#000" stroke="currentColor" stroke-linecap="round" stroke-linejoin="round"><path stroke="#000" d="M96.3 187.8h13.5m632.3 0h-13.5"/><text transform="translate(83.7 194.5)" stroke="none" fill="#000" font-family="Verdana" font-size="18" text-anchor="end"><tspan>500</tspan></text></g><path stroke="gray" stroke-dasharray="2,4" class="gridline" d="M96.3 134.4h645.8" fill="none" color="gray" stroke-width=".5" stroke-linecap="round" stroke-linejoin="round"/><g fill="none" color="#000" stroke="currentColor" stroke-linecap="round" stroke-linejoin="round"><path stroke="#000" d="M96.3 134.4h13.5m632.3 0h-13.5"/><text transform="translate(83.7 141.1)" stroke="none" fill="#000" font-family="Verdana" font-size="18" text-anchor="end"><tspan>600</tspan></text></g><path stroke="gray" stroke-dasharray="2,4" class="gridline" d="M96.3 81.1h645.8" fill="none" color="gray" stroke-width=".5" stroke-linecap="round" stroke-linejoin="round"/><g fill="none" color="#000" stroke="currentColor" stroke-linecap="round" stroke-linejoin="round"><path stroke="#000" d="M96.3 81.1h13.5m632.3 0h-13.5"/><text transform="translate(83.7 87.8)" stroke="none" fill="#000" font-family="Verdana" font-size="18" text-anchor="end"><tspan>700</tspan></text></g><path stroke="gray" stroke-dasharray="2,4" class="gridline" d="M128.6 454.4V81.1" fill="none" color="gray" stroke-width=".5" stroke-linecap="round" stroke-linejoin="round"/><g fill="none" color="#000" stroke="currentColor" stroke-linecap="round" stroke-linejoin="round"><path stroke="#000" d="M128.6 454.4v-13.5m0-359.8v13.5"/><text transform="rotate(45 -502.37 381.612)" stroke="none" fill="#000" font-family="Verdana" font-size="18"><tspan>GNOME</tspan></text></g><path stroke="gray" stroke-dasharray="2,4" class="gridline" d="M193.2 454.4V81.1" fill="none" color="gray" stroke-width=".5" stroke-linecap="round" stroke-linejoin="round"/><g fill="none" color="#000" stroke="currentColor" stroke-linecap="round" stroke-linejoin="round"><path stroke="#000" d="M193.2 454.4v-13.5m0-359.8v13.5"/><text transform="rotate(45 -470.07 459.59)" stroke="none" fill="#000" font-family="Verdana" font-size="18"><tspan>Unity</tspan></text></g><path stroke="gray" stroke-dasharray="2,4" class="gridline" d="M257.8 454.4V81.1" fill="none" color="gray" stroke-width=".5" stroke-linecap="round" stroke-linejoin="round"/><g fill="none" color="#000" stroke="currentColor" stroke-linecap="round" stroke-linejoin="round"><path stroke="#000" d="M257.8 454.4v-13.5m0-359.8v13.5"/><text transform="rotate(45 -437.77 537.57)" stroke="none" fill="#000" font-family="Verdana" font-size="18"><tspan>KDE</tspan></text></g><path stroke="gray" stroke-dasharray="2,4" class="gridline" d="M322.3 454.4V81.1" fill="none" color="gray" stroke-width=".5" stroke-linecap="round" stroke-linejoin="round"/><g fill="none" color="#000" stroke="currentColor" stroke-linecap="round" stroke-linejoin="round"><path stroke="#000" d="M322.3 454.4v-13.5m0-359.8v13.5"/><text transform="rotate(45 -405.52 615.43)" stroke="none" fill="#000" font-family="Verdana" font-size="18"><tspan>XFCE</tspan></text></g><path stroke="gray" stroke-dasharray="2,4" class="gridline" d="M386.9 454.4V81.1" fill="none" color="gray" stroke-width=".5" stroke-linecap="round" stroke-linejoin="round"/><g fill="none" color="#000" stroke="currentColor" stroke-linecap="round" stroke-linejoin="round"><path stroke="#000" d="M386.9 454.4v-13.5m0-359.8v13.5"/><text transform="rotate(45 -373.22 693.408)" stroke="none" fill="#000" font-family="Verdana" font-size="18"><tspan>i3</tspan></text></g><path stroke="gray" stroke-dasharray="2,4" class="gridline" d="M451.5 454.4V81.1" fill="none" color="gray" stroke-width=".5" stroke-linecap="round" stroke-linejoin="round"/><g fill="none" color="#000" stroke="currentColor" stroke-linecap="round" stroke-linejoin="round"><path stroke="#000" d="M451.5 454.4v-13.5m0-359.8v13.5"/><text transform="rotate(45 -340.92 771.387)" stroke="none" fill="#000" font-family="Verdana" font-size="18"><tspan>Cinnamon</tspan></text></g><path stroke="gray" stroke-dasharray="2,4" class="gridline" d="M516.1 454.4V81.1" fill="none" color="gray" stroke-width=".5" stroke-linecap="round" stroke-linejoin="round"/><g fill="none" color="#000" stroke="currentColor" stroke-linecap="round" stroke-linejoin="round"><path stroke="#000" d="M516.1 454.4v-13.5m0-359.8v13.5"/><text transform="rotate(45 -308.62 849.366)" stroke="none" fill="#000" font-family="Verdana" font-size="18"><tspan>MATE</tspan></text></g><path stroke="gray" stroke-dasharray="2,4" class="gridline" d="M580.7 454.4V81.1" fill="none" color="gray" stroke-width=".5" stroke-linecap="round" stroke-linejoin="round"/><g fill="none" color="#000" stroke="currentColor" stroke-linecap="round" stroke-linejoin="round"><path stroke="#000" d="M580.7 454.4v-13.5m0-359.8v13.5"/><text transform="rotate(45 -276.32 927.345)" stroke="none" fill="#000" font-family="Verdana" font-size="18"><tspan>Openbox</tspan></text></g><path stroke="gray" stroke-dasharray="2,4" class="gridline" d="M645.2 454.4V81.1" fill="none" color="gray" stroke-width=".5" stroke-linecap="round" stroke-linejoin="round"/><g fill="none" color="#000" stroke="currentColor" stroke-linecap="round" stroke-linejoin="round"><path stroke="#000" d="M645.2 454.4v-13.5m0-359.8v13.5"/><text transform="rotate(45 -244.07 1005.203)" stroke="none" fill="#000" font-family="Verdana" font-size="18"><tspan>Awesome</tspan></text></g><path stroke="gray" stroke-dasharray="2,4" class="gridline" d="M709.8 454.4V81.1" fill="none" color="gray" stroke-width=".5" stroke-linecap="round" stroke-linejoin="round"/><g fill="none" color="#000" stroke="currentColor" stroke-linecap="round" stroke-linejoin="round"><path stroke="#000" d="M709.8 454.4v-13.5m0-359.8v13.5"/><text transform="rotate(45 -211.77 1083.182)" stroke="none" fill="#000" font-family="Verdana" font-size="18"><tspan>Other</tspan></text></g><path stroke="#000" d="M96.3 81.1v373.3h645.8V81.1H96.3z" fill="none" color="#000" stroke-linecap="round" stroke-linejoin="round"/><text transform="rotate(-90 147.15 120.65)" font-family="Verdana" font-size="18" text-anchor="middle" color="#000" stroke-linecap="round" stroke-linejoin="round"><tspan>Number of Responses</tspan></text><text transform="translate(419.2 572.8)" font-family="Verdana" font-size="18" text-anchor="middle" color="#000" stroke-linecap="round" stroke-linejoin="round"><tspan>Linux GUI</tspan></text><text transform="translate(419.2 47.3)" font-family="Verdana" font-size="18" text-anchor="middle" color="#000" stroke-linecap="round" stroke-linejoin="round"><tspan>What is your favorite Linux graphical environment?</tspan></text><title>gnuplot_plot_1</title><g fill="none" color="#000" stroke="currentColor" stroke-linecap="round" stroke-linejoin="round"><path fill="#205A87" d="M107 454.4h43.3V91.1H107" shape-rendering="crispEdges" stroke="none"/><path stroke="#000" d="M107 454.4V91.2h43.2v363.2H107z"/></g><g fill="none" color="#000" stroke="currentColor" stroke-linecap="round" stroke-linejoin="round"><path fill="#205A87" d="M171.5 454.4h43.4V201.5h-43.4" shape-rendering="crispEdges" stroke="none"/><path stroke="#000" d="M171.5 454.4V201.6h43.3v252.8h-43.3z"/></g><g fill="none" color="#000" stroke="currentColor" stroke-linecap="round" stroke-linejoin="round"><path fill="#205A87" d="M236.1 454.4h43.4V209h-43.4" shape-rendering="crispEdges" stroke="none"/><path stroke="#000" d="M236.1 454.4V209.1h43.3v245.3h-43.3z"/></g><g fill="none" color="#000" stroke="currentColor" stroke-linecap="round" stroke-linejoin="round"><path fill="#205A87" d="M300.7 454.4h43.4V266.6h-43.4" shape-rendering="crispEdges" stroke="none"/><path stroke="#000" d="M300.7 454.4V266.7H344v187.7h-43.3z"/></g><g fill="none" color="#000" stroke="currentColor" stroke-linecap="round" stroke-linejoin="round"><path fill="#205A87" d="M365.3 454.4h43.3V287.9h-43.3" shape-rendering="crispEdges" stroke="none"/><path stroke="#000" d="M365.3 454.4V288h43.2v166.4h-43.2z"/></g><g fill="none" color="#000" stroke="currentColor" stroke-linecap="round" stroke-linejoin="round"><path fill="#205A87" d="M429.9 454.4h43.3V324.2h-43.3" shape-rendering="crispEdges" stroke="none"/><path stroke="#000" d="M429.9 454.4V324.3h43.2v130.1h-43.2z"/></g><g fill="none" color="#000" stroke="currentColor" stroke-linecap="round" stroke-linejoin="round"><path fill="#205A87" d="M494.4 454.4h43.4V393h-43.4" shape-rendering="crispEdges" stroke="none"/><path stroke="#000" d="M494.4 454.4v-61.3h43.3v61.3h-43.3z"/></g><g fill="none" color="#000" stroke="currentColor" stroke-linecap="round" stroke-linejoin="round"><path fill="#205A87" d="M559 454.4h43.4v-60.9H559" shape-rendering="crispEdges" stroke="none"/><path stroke="#000" d="M559 454.4v-60.8h43.3v60.8H559z"/></g><g fill="none" color="#000" stroke="currentColor" stroke-linecap="round" stroke-linejoin="round"><path fill="#205A87" d="M623.6 454.4H667v-55.6h-43.4" shape-rendering="crispEdges" stroke="none"/><path stroke="#000" d="M623.6 454.4v-55.5h43.3v55.5h-43.3z"/></g><g fill="none" color="#000" stroke="currentColor" stroke-linecap="round" stroke-linejoin="round"><path fill="#205A87" d="M688.2 454.4h43.3V297h-43.3" shape-rendering="crispEdges" stroke="none"/><path stroke="#000" d="M688.2 454.4V297.1h43.2v157.3h-43.2z"/></g><path stroke="#000" d="M96.3 81.1v373.3h645.8V81.1H96.3z" fill="none" color="#000" stroke-linecap="round" stroke-linejoin="round"/></svg>