<svg viewBox="0 0 780 585" xmlns="http://www.w3.org/2000/svg"><title>Gnuplot</title><desc>Produced by GNUPLOT 5.0 patchlevel 0</desc><path fill="none" d="M0 0h780v585H0z"/><path stroke="gray" stroke-dasharray="2,4" class="gridline" d="M96.3 409.8h645.8" fill="none" color="gray" stroke-width=".5" stroke-linecap="round" stroke-linejoin="round"/><g fill="none" color="#000" stroke="currentColor" stroke-linecap="round" stroke-linejoin="round"><path stroke="#000" d="M96.3 409.8h13.5m632.3 0h-13.5"/><text transform="translate(83.7 416.5)" stroke="none" fill="#000" font-family="Verdana" font-size="18" text-anchor="end"><tspan>0</tspan></text></g><path stroke="gray" stroke-dasharray="2,4" class="gridline" d="M96.3 373.3h645.8" fill="none" color="gray" stroke-width=".5" stroke-linecap="round" stroke-linejoin="round"/><g fill="none" color="#000" stroke="currentColor" stroke-linecap="round" stroke-linejoin="round"><path stroke="#000" d="M96.3 373.3h13.5m632.3 0h-13.5"/><text transform="translate(83.7 380)" stroke="none" fill="#000" font-family="Verdana" font-size="18" text-anchor="end"><tspan>100</tspan></text></g><path stroke="gray" stroke-dasharray="2,4" class="gridline" d="M96.3 336.8h645.8" fill="none" color="gray" stroke-width=".5" stroke-linecap="round" stroke-linejoin="round"/><g fill="none" color="#000" stroke="currentColor" stroke-linecap="round" stroke-linejoin="round"><path stroke="#000" d="M96.3 336.8h13.5m632.3 0h-13.5"/><text transform="translate(83.7 343.5)" stroke="none" fill="#000" font-family="Verdana" font-size="18" text-anchor="end"><tspan>200</tspan></text></g><path stroke="gray" stroke-dasharray="2,4" class="gridline" d="M96.3 300.2h645.8" fill="none" color="gray" stroke-width=".5" stroke-linecap="round" stroke-linejoin="round"/><g fill="none" color="#000" stroke="currentColor" stroke-linecap="round" stroke-linejoin="round"><path stroke="#000" d="M96.3 300.2h13.5m632.3 0h-13.5"/><text transform="translate(83.7 306.9)" stroke="none" fill="#000" font-family="Verdana" font-size="18" text-anchor="end"><tspan>300</tspan></text></g><path stroke="gray" stroke-dasharray="2,4" class="gridline" d="M96.3 263.7h645.8" fill="none" color="gray" stroke-width=".5" stroke-linecap="round" stroke-linejoin="round"/><g fill="none" color="#000" stroke="currentColor" stroke-linecap="round" stroke-linejoin="round"><path stroke="#000" d="M96.3 263.7h13.5m632.3 0h-13.5"/><text transform="translate(83.7 270.4)" stroke="none" fill="#000" font-family="Verdana" font-size="18" text-anchor="end"><tspan>400</tspan></text></g><path stroke="gray" stroke-dasharray="2,4" class="gridline" d="M96.3 227.2h645.8" fill="none" color="gray" stroke-width=".5" stroke-linecap="round" stroke-linejoin="round"/><g fill="none" color="#000" stroke="currentColor" stroke-linecap="round" stroke-linejoin="round"><path stroke="#000" d="M96.3 227.2h13.5m632.3 0h-13.5"/><text transform="translate(83.7 233.9)" stroke="none" fill="#000" font-family="Verdana" font-size="18" text-anchor="end"><tspan>500</tspan></text></g><path stroke="gray" stroke-dasharray="2,4" class="gridline" d="M96.3 190.7h645.8" fill="none" color="gray" stroke-width=".5" stroke-linecap="round" stroke-linejoin="round"/><g fill="none" color="#000" stroke="currentColor" stroke-linecap="round" stroke-linejoin="round"><path stroke="#000" d="M96.3 190.7h13.5m632.3 0h-13.5"/><text transform="translate(83.7 197.4)" stroke="none" fill="#000" font-family="Verdana" font-size="18" text-anchor="end"><tspan>600</tspan></text></g><path stroke="gray" stroke-dasharray="2,4" class="gridline" d="M96.3 154.1h645.8" fill="none" color="gray" stroke-width=".5" stroke-linecap="round" stroke-linejoin="round"/><g fill="none" color="#000" stroke="currentColor" stroke-linecap="round" stroke-linejoin="round"><path stroke="#000" d="M96.3 154.1h13.5m632.3 0h-13.5"/><text transform="translate(83.7 160.8)" stroke="none" fill="#000" font-family="Verdana" font-size="18" text-anchor="end"><tspan>700</tspan></text></g><path stroke="gray" stroke-dasharray="2,4" class="gridline" d="M96.3 117.6h645.8" fill="none" color="gray" stroke-width=".5" stroke-linecap="round" stroke-linejoin="round"/><g fill="none" color="#000" stroke="currentColor" stroke-linecap="round" stroke-linejoin="round"><path stroke="#000" d="M96.3 117.6h13.5m632.3 0h-13.5"/><text transform="translate(83.7 124.3)" stroke="none" fill="#000" font-family="Verdana" font-size="18" text-anchor="end"><tspan>800</tspan></text></g><path stroke="gray" stroke-dasharray="2,4" class="gridline" d="M96.3 81.1h645.8" fill="none" color="gray" stroke-width=".5" stroke-linecap="round" stroke-linejoin="round"/><g fill="none" color="#000" stroke="currentColor" stroke-linecap="round" stroke-linejoin="round"><path stroke="#000" d="M96.3 81.1h13.5m632.3 0h-13.5"/><text transform="translate(83.7 87.8)" stroke="none" fill="#000" font-family="Verdana" font-size="18" text-anchor="end"><tspan>900</tspan></text></g><path stroke="gray" stroke-dasharray="2,4" class="gridline" d="M128.6 409.8V81.1" fill="none" color="gray" stroke-width=".5" stroke-linecap="round" stroke-linejoin="round"/><g fill="none" color="#000" stroke="currentColor" stroke-linecap="round" stroke-linejoin="round"><path stroke="#000" d="M128.6 409.8v-13.5m0-315.2v13.5"/><text transform="rotate(45 -448.532 359.312)" stroke="none" fill="#000" font-family="Verdana" font-size="18"><tspan>Unity</tspan></text></g><path stroke="gray" stroke-dasharray="2,4" class="gridline" d="M193.2 409.8V81.1" fill="none" color="gray" stroke-width=".5" stroke-linecap="round" stroke-linejoin="round"/><g fill="none" color="#000" stroke="currentColor" stroke-linecap="round" stroke-linejoin="round"><path stroke="#000" d="M193.2 409.8v-13.5m0-315.2v13.5"/><text transform="rotate(45 -416.232 437.29)" stroke="none" fill="#000" font-family="Verdana" font-size="18"><tspan>GNOME</tspan></text></g><path stroke="gray" stroke-dasharray="2,4" class="gridline" d="M257.8 409.8V81.1" fill="none" color="gray" stroke-width=".5" stroke-linecap="round" stroke-linejoin="round"/><g fill="none" color="#000" stroke="currentColor" stroke-linecap="round" stroke-linejoin="round"><path stroke="#000" d="M257.8 409.8v-13.5m0-315.2v13.5"/><text transform="rotate(45 -383.932 515.27)" stroke="none" fill="#000" font-family="Verdana" font-size="18"><tspan>KDE</tspan></text></g><path stroke="gray" stroke-dasharray="2,4" class="gridline" d="M322.3 409.8V81.1" fill="none" color="gray" stroke-width=".5" stroke-linecap="round" stroke-linejoin="round"/><g fill="none" color="#000" stroke="currentColor" stroke-linecap="round" stroke-linejoin="round"><path stroke="#000" d="M322.3 409.8v-13.5m0-315.2v13.5"/><text transform="rotate(45 -351.682 593.13)" stroke="none" fill="#000" font-family="Verdana" font-size="18"><tspan>xmonad</tspan></text></g><path stroke="gray" stroke-dasharray="2,4" class="gridline" d="M386.9 409.8V81.1" fill="none" color="gray" stroke-width=".5" stroke-linecap="round" stroke-linejoin="round"/><g fill="none" color="#000" stroke="currentColor" stroke-linecap="round" stroke-linejoin="round"><path stroke="#000" d="M386.9 409.8v-13.5m0-315.2v13.5"/><text transform="rotate(45 -319.382 671.108)" stroke="none" fill="#000" font-family="Verdana" font-size="18"><tspan>Enlightenment</tspan></text></g><path stroke="gray" stroke-dasharray="2,4" class="gridline" d="M451.5 409.8V81.1" fill="none" color="gray" stroke-width=".5" stroke-linecap="round" stroke-linejoin="round"/><g fill="none" color="#000" stroke="currentColor" stroke-linecap="round" stroke-linejoin="round"><path stroke="#000" d="M451.5 409.8v-13.5m0-315.2v13.5"/><text transform="rotate(45 -287.082 749.087)" stroke="none" fill="#000" font-family="Verdana" font-size="18"><tspan>Cinnamon</tspan></text></g><path stroke="gray" stroke-dasharray="2,4" class="gridline" d="M516.1 409.8V81.1" fill="none" color="gray" stroke-width=".5" stroke-linecap="round" stroke-linejoin="round"/><g fill="none" color="#000" stroke="currentColor" stroke-linecap="round" stroke-linejoin="round"><path stroke="#000" d="M516.1 409.8v-13.5m0-315.2v13.5"/><text transform="rotate(45 -254.782 827.066)" stroke="none" fill="#000" font-family="Verdana" font-size="18"><tspan>XFCE</tspan></text></g><path stroke="gray" stroke-dasharray="2,4" class="gridline" d="M580.7 409.8V81.1" fill="none" color="gray" stroke-width=".5" stroke-linecap="round" stroke-linejoin="round"/><g fill="none" color="#000" stroke="currentColor" stroke-linecap="round" stroke-linejoin="round"><path stroke="#000" d="M580.7 409.8v-13.5m0-315.2v13.5"/><text transform="rotate(45 -222.482 905.045)" stroke="none" fill="#000" font-family="Verdana" font-size="18"><tspan>LXDE</tspan></text></g><path stroke="gray" stroke-dasharray="2,4" class="gridline" d="M645.2 409.8V81.1" fill="none" color="gray" stroke-width=".5" stroke-linecap="round" stroke-linejoin="round"/><g fill="none" color="#000" stroke="currentColor" stroke-linecap="round" stroke-linejoin="round"><path stroke="#000" d="M645.2 409.8v-13.5m0-315.2v13.5"/><text transform="rotate(45 -190.232 982.903)" stroke="none" fill="#000" font-family="Verdana" font-size="18"><tspan>Compiz</tspan></text></g><path stroke="gray" stroke-dasharray="2,4" class="gridline" d="M709.8 409.8V81.1" fill="none" color="gray" stroke-width=".5" stroke-linecap="round" stroke-linejoin="round"/><g fill="none" color="#000" stroke="currentColor" stroke-linecap="round" stroke-linejoin="round"><path stroke="#000" d="M709.8 409.8v-13.5m0-315.2v13.5"/><text transform="rotate(45 -157.932 1060.882)" stroke="none" fill="#000" font-family="Verdana" font-size="18"><tspan>Other</tspan></text></g><path stroke="#000" d="M96.3 81.1v328.7h645.8V81.1H96.3z" fill="none" color="#000" stroke-linecap="round" stroke-linejoin="round"/><text transform="rotate(-90 136 109.5)" font-family="Verdana" font-size="18" text-anchor="middle" color="#000" stroke-linecap="round" stroke-linejoin="round"><tspan>Number of Responses</tspan></text><text transform="translate(419.2 572.8)" font-family="Verdana" font-size="18" text-anchor="middle" color="#000" stroke-linecap="round" stroke-linejoin="round"><tspan>What is your most hated Linux graphical environment?</tspan></text><text transform="translate(419.2 47.3)" font-family="Verdana" font-size="18" text-anchor="middle" color="#000" stroke-linecap="round" stroke-linejoin="round"><tspan>What is your most hated Linux graphical environment?</tspan></text><title>gnuplot_plot_1</title><g fill="none" color="#000" stroke="currentColor" stroke-linecap="round" stroke-linejoin="round"><path fill="#205A87" d="M107 409.8h43.3v-297H107" shape-rendering="crispEdges" stroke="none"/><path stroke="#000" d="M107 409.8V112.9h43.2v296.9H107z"/></g><g fill="none" color="#000" stroke="currentColor" stroke-linecap="round" stroke-linejoin="round"><path fill="#205A87" d="M171.5 409.8h43.4V208.1h-43.4" shape-rendering="crispEdges" stroke="none"/><path stroke="#000" d="M171.5 409.8V208.2h43.3v201.6h-43.3z"/></g><g fill="none" color="#000" stroke="currentColor" stroke-linecap="round" stroke-linejoin="round"><path fill="#205A87" d="M236.1 409.8h43.4V304.5h-43.4" shape-rendering="crispEdges" stroke="none"/><path stroke="#000" d="M236.1 409.8V304.6h43.3v105.2h-43.3z"/></g><g fill="none" color="#000" stroke="currentColor" stroke-linecap="round" stroke-linejoin="round"><path fill="#205A87" d="M300.7 409.8h43.4v-84.1h-43.4" shape-rendering="crispEdges" stroke="none"/><path stroke="#000" d="M300.7 409.8v-84H344v84h-43.3z"/></g><g fill="none" color="#000" stroke="currentColor" stroke-linecap="round" stroke-linejoin="round"><path fill="#205A87" d="M365.3 409.8h43.3V375h-43.3" shape-rendering="crispEdges" stroke="none"/><path stroke="#000" d="M365.3 409.8v-34.7h43.2v34.7h-43.2z"/></g><g fill="none" color="#000" stroke="currentColor" stroke-linecap="round" stroke-linejoin="round"><path fill="#205A87" d="M429.9 409.8h43.3v-28.6h-43.3" shape-rendering="crispEdges" stroke="none"/><path stroke="#000" d="M429.9 409.8v-28.5h43.2v28.5h-43.2z"/></g><g fill="none" color="#000" stroke="currentColor" stroke-linecap="round" stroke-linejoin="round"><path fill="#205A87" d="M494.4 409.8h43.4v-24.6h-43.4" shape-rendering="crispEdges" stroke="none"/><path stroke="#000" d="M494.4 409.8v-24.5h43.3v24.5h-43.3z"/></g><g fill="none" color="#000" stroke="currentColor" stroke-linecap="round" stroke-linejoin="round"><path fill="#205A87" d="M559 409.8h43.4v-16.2H559" shape-rendering="crispEdges" stroke="none"/><path stroke="#000" d="M559 409.8v-16.1h43.3v16.1H559z"/></g><g fill="none" color="#000" stroke="currentColor" stroke-linecap="round" stroke-linejoin="round"><path fill="#205A87" d="M623.6 409.8H667V394h-43.4" shape-rendering="crispEdges" stroke="none"/><path stroke="#000" d="M623.6 409.8v-15.7h43.3v15.7h-43.3z"/></g><g fill="none" color="#000" stroke="currentColor" stroke-linecap="round" stroke-linejoin="round"><path fill="#205A87" d="M688.2 409.8h43.3v-66.9h-43.3" shape-rendering="crispEdges" stroke="none"/><path stroke="#000" d="M688.2 409.8V343h43.2v66.8h-43.2z"/></g><path stroke="#000" d="M96.3 81.1v328.7h645.8V81.1H96.3z" fill="none" color="#000" stroke-linecap="round" stroke-linejoin="round"/></svg>