<svg viewBox="0 0 780 585" xmlns="http://www.w3.org/2000/svg"><title>Gnuplot</title><desc>Produced by GNUPLOT 5.0 patchlevel 0</desc><path fill="none" d="M0 0h780v585H0z"/><path stroke="gray" stroke-dasharray="2,4" class="gridline" d="M108.9 409.8h633.2" fill="none" color="gray" stroke-width=".5" stroke-linecap="round" stroke-linejoin="round"/><g fill="none" color="#000" stroke="currentColor" stroke-linecap="round" stroke-linejoin="round"><path stroke="#000" d="M108.9 409.8h13.5m619.7 0h-13.5"/><text transform="translate(96.3 416.5)" stroke="none" fill="#000" font-family="Verdana" font-size="18" text-anchor="end"><tspan>-400</tspan></text></g><path stroke="gray" stroke-dasharray="2,4" class="gridline" d="M108.9 368.7h633.2" fill="none" color="gray" stroke-width=".5" stroke-linecap="round" stroke-linejoin="round"/><g fill="none" color="#000" stroke="currentColor" stroke-linecap="round" stroke-linejoin="round"><path stroke="#000" d="M108.9 368.7h13.5m619.7 0h-13.5"/><text transform="translate(96.3 375.4)" stroke="none" fill="#000" font-family="Verdana" font-size="18" text-anchor="end"><tspan>-300</tspan></text></g><path stroke="gray" stroke-dasharray="2,4" class="gridline" d="M108.9 327.6h633.2" fill="none" color="gray" stroke-width=".5" stroke-linecap="round" stroke-linejoin="round"/><g fill="none" color="#000" stroke="currentColor" stroke-linecap="round" stroke-linejoin="round"><path stroke="#000" d="M108.9 327.6h13.5m619.7 0h-13.5"/><text transform="translate(96.3 334.3)" stroke="none" fill="#000" font-family="Verdana" font-size="18" text-anchor="end"><tspan>-200</tspan></text></g><path stroke="gray" stroke-dasharray="2,4" class="gridline" d="M108.9 286.5h633.2" fill="none" color="gray" stroke-width=".5" stroke-linecap="round" stroke-linejoin="round"/><g fill="none" color="#000" stroke="currentColor" stroke-linecap="round" stroke-linejoin="round"><path stroke="#000" d="M108.9 286.5h13.5m619.7 0h-13.5"/><text transform="translate(96.3 293.2)" stroke="none" fill="#000" font-family="Verdana" font-size="18" text-anchor="end"><tspan>-100</tspan></text></g><path stroke="gray" stroke-dasharray="2,4" class="gridline" d="M108.9 245.4h633.2" fill="none" color="gray" stroke-width=".5" stroke-linecap="round" stroke-linejoin="round"/><g fill="none" color="#000" stroke="currentColor" stroke-linecap="round" stroke-linejoin="round"><path stroke="#000" d="M108.9 245.4h13.5m619.7 0h-13.5"/><text transform="translate(96.3 252.1)" stroke="none" fill="#000" font-family="Verdana" font-size="18" text-anchor="end"><tspan>0</tspan></text></g><path stroke="gray" stroke-dasharray="2,4" class="gridline" d="M108.9 204.4h633.2" fill="none" color="gray" stroke-width=".5" stroke-linecap="round" stroke-linejoin="round"/><g fill="none" color="#000" stroke="currentColor" stroke-linecap="round" stroke-linejoin="round"><path stroke="#000" d="M108.9 204.4h13.5m619.7 0h-13.5"/><text transform="translate(96.3 211.1)" stroke="none" fill="#000" font-family="Verdana" font-size="18" text-anchor="end"><tspan>100</tspan></text></g><path stroke="gray" stroke-dasharray="2,4" class="gridline" d="M108.9 163.3h633.2" fill="none" color="gray" stroke-width=".5" stroke-linecap="round" stroke-linejoin="round"/><g fill="none" color="#000" stroke="currentColor" stroke-linecap="round" stroke-linejoin="round"><path stroke="#000" d="M108.9 163.3h13.5m619.7 0h-13.5"/><text transform="translate(96.3 170)" stroke="none" fill="#000" font-family="Verdana" font-size="18" text-anchor="end"><tspan>200</tspan></text></g><path stroke="gray" stroke-dasharray="2,4" class="gridline" d="M108.9 122.2h633.2" fill="none" color="gray" stroke-width=".5" stroke-linecap="round" stroke-linejoin="round"/><g fill="none" color="#000" stroke="currentColor" stroke-linecap="round" stroke-linejoin="round"><path stroke="#000" d="M108.9 122.2h13.5m619.7 0h-13.5"/><text transform="translate(96.3 128.9)" stroke="none" fill="#000" font-family="Verdana" font-size="18" text-anchor="end"><tspan>300</tspan></text></g><path stroke="gray" stroke-dasharray="2,4" class="gridline" d="M108.9 81.1h633.2" fill="none" color="gray" stroke-width=".5" stroke-linecap="round" stroke-linejoin="round"/><g fill="none" color="#000" stroke="currentColor" stroke-linecap="round" stroke-linejoin="round"><path stroke="#000" d="M108.9 81.1h13.5m619.7 0h-13.5"/><text transform="translate(96.3 87.8)" stroke="none" fill="#000" font-family="Verdana" font-size="18" text-anchor="end"><tspan>400</tspan></text></g><path stroke="gray" stroke-dasharray="2,4" class="gridline" d="M144.1 409.8V81.1" fill="none" color="gray" stroke-width=".5" stroke-linecap="round" stroke-linejoin="round"/><g fill="none" color="#000" stroke="currentColor" stroke-linecap="round" stroke-linejoin="round"><path stroke="#000" d="M144.1 409.8v-13.5m0-315.2v13.5"/><text transform="rotate(45 -440.782 378.022)" stroke="none" fill="#000" font-family="Verdana" font-size="18"><tspan>XFCE</tspan></text></g><path stroke="gray" stroke-dasharray="2,4" class="gridline" d="M214.4 409.8V81.1" fill="none" color="gray" stroke-width=".5" stroke-linecap="round" stroke-linejoin="round"/><g fill="none" color="#000" stroke="currentColor" stroke-linecap="round" stroke-linejoin="round"><path stroke="#000" d="M214.4 409.8v-13.5m0-315.2v13.5"/><text transform="rotate(45 -405.632 462.882)" stroke="none" fill="#000" font-family="Verdana" font-size="18"><tspan>KDE</tspan></text></g><path stroke="gray" stroke-dasharray="2,4" class="gridline" d="M284.8 409.8V81.1" fill="none" color="gray" stroke-width=".5" stroke-linecap="round" stroke-linejoin="round"/><g fill="none" color="#000" stroke="currentColor" stroke-linecap="round" stroke-linejoin="round"><path stroke="#000" d="M284.8 409.8v-13.5m0-315.2v13.5"/><text transform="rotate(45 -370.432 547.862)" stroke="none" fill="#000" font-family="Verdana" font-size="18"><tspan>Cinnamon</tspan></text></g><path stroke="gray" stroke-dasharray="2,4" class="gridline" d="M355.1 409.8V81.1" fill="none" color="gray" stroke-width=".5" stroke-linecap="round" stroke-linejoin="round"/><g fill="none" color="#000" stroke="currentColor" stroke-linecap="round" stroke-linejoin="round"><path stroke="#000" d="M355.1 409.8v-13.5m0-315.2v13.5"/><text transform="rotate(45 -335.282 632.722)" stroke="none" fill="#000" font-family="Verdana" font-size="18"><tspan>GNOME</tspan></text></g><path stroke="gray" stroke-dasharray="2,4" class="gridline" d="M425.5 409.8V81.1" fill="none" color="gray" stroke-width=".5" stroke-linecap="round" stroke-linejoin="round"/><g fill="none" color="#000" stroke="currentColor" stroke-linecap="round" stroke-linejoin="round"><path stroke="#000" d="M425.5 409.8v-13.5m0-315.2v13.5"/><text transform="rotate(45 -300.082 717.702)" stroke="none" fill="#000" font-family="Verdana" font-size="18"><tspan>LXDE</tspan></text></g><path stroke="gray" stroke-dasharray="2,4" class="gridline" d="M495.9 409.8V81.1" fill="none" color="gray" stroke-width=".5" stroke-linecap="round" stroke-linejoin="round"/><g fill="none" color="#000" stroke="currentColor" stroke-linecap="round" stroke-linejoin="round"><path stroke="#000" d="M495.9 409.8v-13.5m0-315.2v13.5"/><text transform="rotate(45 -264.882 802.682)" stroke="none" fill="#000" font-family="Verdana" font-size="18"><tspan>Compiz</tspan></text></g><path stroke="gray" stroke-dasharray="2,4" class="gridline" d="M566.2 409.8V81.1" fill="none" color="gray" stroke-width=".5" stroke-linecap="round" stroke-linejoin="round"/><g fill="none" color="#000" stroke="currentColor" stroke-linecap="round" stroke-linejoin="round"><path stroke="#000" d="M566.2 409.8v-13.5m0-315.2v13.5"/><text transform="rotate(45 -229.732 887.542)" stroke="none" fill="#000" font-family="Verdana" font-size="18"><tspan>Enlightenment</tspan></text></g><path stroke="gray" stroke-dasharray="2,4" class="gridline" d="M636.6 409.8V81.1" fill="none" color="gray" stroke-width=".5" stroke-linecap="round" stroke-linejoin="round"/><g fill="none" color="#000" stroke="currentColor" stroke-linecap="round" stroke-linejoin="round"><path stroke="#000" d="M636.6 409.8v-13.5m0-315.2v13.5"/><text transform="rotate(45 -194.532 972.522)" stroke="none" fill="#000" font-family="Verdana" font-size="18"><tspan>xmonad</tspan></text></g><path stroke="gray" stroke-dasharray="2,4" class="gridline" d="M706.9 409.8V81.1" fill="none" color="gray" stroke-width=".5" stroke-linecap="round" stroke-linejoin="round"/><g fill="none" color="#000" stroke="currentColor" stroke-linecap="round" stroke-linejoin="round"><path stroke="#000" d="M706.9 409.8v-13.5m0-315.2v13.5"/><text transform="rotate(45 -159.382 1057.382)" stroke="none" fill="#000" font-family="Verdana" font-size="18"><tspan>Unity</tspan></text></g><path stroke="#000" d="M108.9 81.1v328.7h633.2V81.1H108.9z" fill="none" color="#000" stroke-linecap="round" stroke-linejoin="round"/><text transform="rotate(-90 136 109.5)" font-family="Verdana" font-size="18" text-anchor="middle" color="#000" stroke-linecap="round" stroke-linejoin="round"><tspan>Index</tspan></text><text transform="translate(425.5 572.8)" font-family="Verdana" font-size="18" text-anchor="middle" color="#000" stroke-linecap="round" stroke-linejoin="round"><tspan>GUI</tspan></text><text transform="translate(425.5 47.3)" font-family="Verdana" font-size="18" text-anchor="middle" color="#000" stroke-linecap="round" stroke-linejoin="round"><tspan>GUI Love-Hate Index</tspan></text><title>gnuplot_plot_1</title><g fill="none" color="#000" stroke="currentColor" stroke-linecap="round" stroke-linejoin="round"><path fill="#4E9A06" d="M120.5 245.4h47.2V128.3h-47.2" shape-rendering="crispEdges" stroke="none"/><path stroke="#000" d="M120.5 245.4v-117h47.1v117h-47.1z"/></g><g fill="none" color="#000" stroke="currentColor" stroke-linecap="round" stroke-linejoin="round"><path fill="#4E9A06" d="M190.9 245.4h47.2v-70.7h-47.2" shape-rendering="crispEdges" stroke="none"/><path stroke="#000" d="M190.9 245.4v-70.6H238v70.6h-47.1z"/></g><g fill="none" color="#000" stroke="currentColor" stroke-linecap="round" stroke-linejoin="round"><path fill="#4E9A06" d="M261.2 245.4h47.3v-68.3h-47.3" shape-rendering="crispEdges" stroke="none"/><path stroke="#000" d="M261.2 245.4v-68.2h47.2v68.2h-47.2z"/></g><g fill="none" color="#000" stroke="currentColor" stroke-linecap="round" stroke-linejoin="round"><path fill="#4E9A06" d="M331.6 245.4h47.2v-53.1h-47.2" shape-rendering="crispEdges" stroke="none"/><path stroke="#000" d="M331.6 245.4v-53h47.1v53h-47.1z"/></g><g fill="none" color="#000" stroke="currentColor" stroke-linecap="round" stroke-linejoin="round"><path fill="#4E9A06" d="M401.9 245.4h47.3v-.9h-47.3" shape-rendering="crispEdges" stroke="none"/><path stroke="#000" d="M401.9 245.4v-.8h47.2v.8h-47.2z"/></g><g fill="none" color="#000" stroke="currentColor" stroke-linecap="round" stroke-linejoin="round"><path fill="#4E9A06" d="M472.3 259h47.2v-13.7h-47.2" shape-rendering="crispEdges" stroke="none"/><path stroke="#000" d="M472.3 245.4V259h47.1v-13.6h-47.1z"/></g><g fill="none" color="#000" stroke="currentColor" stroke-linecap="round" stroke-linejoin="round"><path fill="#4E9A06" d="M542.6 275.9h47.3v-30.6h-47.3" shape-rendering="crispEdges" stroke="none"/><path stroke="#000" d="M542.6 245.4v30.5h47.2v-30.5h-47.2z"/></g><g fill="none" color="#000" stroke="currentColor" stroke-linecap="round" stroke-linejoin="round"><path fill="#4E9A06" d="M613 322.3h47.2v-77H613" shape-rendering="crispEdges" stroke="none"/><path stroke="#000" d="M613 245.4v76.9h47.1v-76.9H613z"/></g><g fill="none" color="#000" stroke="currentColor" stroke-linecap="round" stroke-linejoin="round"><path fill="#4E9A06" d="M683.4 384.7h47.2V245.3h-47.2" shape-rendering="crispEdges" stroke="none"/><path stroke="#000" d="M683.4 245.4v139.3h47.1V245.4h-47.1z"/></g><path stroke="#000" d="M108.9 81.1v328.7h633.2V81.1H108.9z" fill="none" color="#000" stroke-linecap="round" stroke-linejoin="round"/></svg>