<svg viewBox="0 0 780 585" xmlns="http://www.w3.org/2000/svg"><title>Gnuplot</title><desc>Produced by GNUPLOT 5.0 patchlevel 0</desc><path fill="none" d="M0 0h780v585H0z"/><path stroke="gray" stroke-dasharray="2,4" class="gridline" d="M96.3 481.1h645.8" fill="none" color="gray" stroke-width=".5" stroke-linecap="round" stroke-linejoin="round"/><g fill="none" color="#000" stroke="currentColor" stroke-linecap="round" stroke-linejoin="round"><path stroke="#000" d="M96.3 481.1h13.5m632.3 0h-13.5"/><text transform="translate(83.7 487.8)" stroke="none" fill="#000" font-family="Verdana" font-size="18" text-anchor="end"><tspan>0</tspan></text></g><path stroke="gray" stroke-dasharray="2,4" class="gridline" d="M96.3 436.7h645.8" fill="none" color="gray" stroke-width=".5" stroke-linecap="round" stroke-linejoin="round"/><g fill="none" color="#000" stroke="currentColor" stroke-linecap="round" stroke-linejoin="round"><path stroke="#000" d="M96.3 436.7h13.5m632.3 0h-13.5"/><text transform="translate(83.7 443.4)" stroke="none" fill="#000" font-family="Verdana" font-size="18" text-anchor="end"><tspan>100</tspan></text></g><path stroke="gray" stroke-dasharray="2,4" class="gridline" d="M96.3 392.2h645.8" fill="none" color="gray" stroke-width=".5" stroke-linecap="round" stroke-linejoin="round"/><g fill="none" color="#000" stroke="currentColor" stroke-linecap="round" stroke-linejoin="round"><path stroke="#000" d="M96.3 392.2h13.5m632.3 0h-13.5"/><text transform="translate(83.7 398.9)" stroke="none" fill="#000" font-family="Verdana" font-size="18" text-anchor="end"><tspan>200</tspan></text></g><path stroke="gray" stroke-dasharray="2,4" class="gridline" d="M96.3 347.8h645.8" fill="none" color="gray" stroke-width=".5" stroke-linecap="round" stroke-linejoin="round"/><g fill="none" color="#000" stroke="currentColor" stroke-linecap="round" stroke-linejoin="round"><path stroke="#000" d="M96.3 347.8h13.5m632.3 0h-13.5"/><text transform="translate(83.7 354.5)" stroke="none" fill="#000" font-family="Verdana" font-size="18" text-anchor="end"><tspan>300</tspan></text></g><path stroke="gray" stroke-dasharray="2,4" class="gridline" d="M96.3 303.3h645.8" fill="none" color="gray" stroke-width=".5" stroke-linecap="round" stroke-linejoin="round"/><g fill="none" color="#000" stroke="currentColor" stroke-linecap="round" stroke-linejoin="round"><path stroke="#000" d="M96.3 303.3h13.5m632.3 0h-13.5"/><text transform="translate(83.7 310)" stroke="none" fill="#000" font-family="Verdana" font-size="18" text-anchor="end"><tspan>400</tspan></text></g><path stroke="gray" stroke-dasharray="2,4" class="gridline" d="M96.3 258.9h645.8" fill="none" color="gray" stroke-width=".5" stroke-linecap="round" stroke-linejoin="round"/><g fill="none" color="#000" stroke="currentColor" stroke-linecap="round" stroke-linejoin="round"><path stroke="#000" d="M96.3 258.9h13.5m632.3 0h-13.5"/><text transform="translate(83.7 265.6)" stroke="none" fill="#000" font-family="Verdana" font-size="18" text-anchor="end"><tspan>500</tspan></text></g><path stroke="gray" stroke-dasharray="2,4" class="gridline" d="M96.3 214.4h645.8" fill="none" color="gray" stroke-width=".5" stroke-linecap="round" stroke-linejoin="round"/><g fill="none" color="#000" stroke="currentColor" stroke-linecap="round" stroke-linejoin="round"><path stroke="#000" d="M96.3 214.4h13.5m632.3 0h-13.5"/><text transform="translate(83.7 221.1)" stroke="none" fill="#000" font-family="Verdana" font-size="18" text-anchor="end"><tspan>600</tspan></text></g><path stroke="gray" stroke-dasharray="2,4" class="gridline" d="M96.3 170h645.8" fill="none" color="gray" stroke-width=".5" stroke-linecap="round" stroke-linejoin="round"/><g fill="none" color="#000" stroke="currentColor" stroke-linecap="round" stroke-linejoin="round"><path stroke="#000" d="M96.3 170h13.5m632.3 0h-13.5"/><text transform="translate(83.7 176.7)" stroke="none" fill="#000" font-family="Verdana" font-size="18" text-anchor="end"><tspan>700</tspan></text></g><path stroke="gray" stroke-dasharray="2,4" class="gridline" d="M96.3 125.5h645.8" fill="none" color="gray" stroke-width=".5" stroke-linecap="round" stroke-linejoin="round"/><g fill="none" color="#000" stroke="currentColor" stroke-linecap="round" stroke-linejoin="round"><path stroke="#000" d="M96.3 125.5h13.5m632.3 0h-13.5"/><text transform="translate(83.7 132.2)" stroke="none" fill="#000" font-family="Verdana" font-size="18" text-anchor="end"><tspan>800</tspan></text></g><path stroke="gray" stroke-dasharray="2,4" class="gridline" d="M96.3 81.1h645.8" fill="none" color="gray" stroke-width=".5" stroke-linecap="round" stroke-linejoin="round"/><g fill="none" color="#000" stroke="currentColor" stroke-linecap="round" stroke-linejoin="round"><path stroke="#000" d="M96.3 81.1h13.5m632.3 0h-13.5"/><text transform="translate(83.7 87.8)" stroke="none" fill="#000" font-family="Verdana" font-size="18" text-anchor="end"><tspan>900</tspan></text></g><path stroke="gray" stroke-dasharray="2,4" class="gridline" d="M119.4 481.1v-400" fill="none" color="gray" stroke-width=".5" stroke-linecap="round" stroke-linejoin="round"/><g fill="none" color="#000" stroke="currentColor" stroke-linecap="round" stroke-linejoin="round"><path stroke="#000" d="M119.4 481.1v-13.5m0-386.5v13.5"/><text transform="rotate(45 -539.2 383.857)" stroke="none" fill="#000" font-family="Verdana" font-size="18"><tspan>10-14</tspan></text></g><path stroke="gray" stroke-dasharray="2,4" class="gridline" d="M165.5 481.1v-400" fill="none" color="gray" stroke-width=".5" stroke-linecap="round" stroke-linejoin="round"/><g fill="none" color="#000" stroke="currentColor" stroke-linecap="round" stroke-linejoin="round"><path stroke="#000" d="M165.5 481.1v-13.5m0-386.5v13.5"/><text transform="rotate(45 -516.15 439.504)" stroke="none" fill="#000" font-family="Verdana" font-size="18"><tspan>15-19</tspan></text></g><path stroke="gray" stroke-dasharray="2,4" class="gridline" d="M211.6 481.1v-400" fill="none" color="gray" stroke-width=".5" stroke-linecap="round" stroke-linejoin="round"/><g fill="none" color="#000" stroke="currentColor" stroke-linecap="round" stroke-linejoin="round"><path stroke="#000" d="M211.6 481.1v-13.5m0-386.5v13.5"/><text transform="rotate(45 -493.1 495.152)" stroke="none" fill="#000" font-family="Verdana" font-size="18"><tspan>20-24</tspan></text></g><path stroke="gray" stroke-dasharray="2,4" class="gridline" d="M257.8 481.1v-400" fill="none" color="gray" stroke-width=".5" stroke-linecap="round" stroke-linejoin="round"/><g fill="none" color="#000" stroke="currentColor" stroke-linecap="round" stroke-linejoin="round"><path stroke="#000" d="M257.8 481.1v-13.5m0-386.5v13.5"/><text transform="rotate(45 -470 550.92)" stroke="none" fill="#000" font-family="Verdana" font-size="18"><tspan>25-29</tspan></text></g><path stroke="gray" stroke-dasharray="2,4" class="gridline" d="M303.9 481.1v-400" fill="none" color="gray" stroke-width=".5" stroke-linecap="round" stroke-linejoin="round"/><g fill="none" color="#000" stroke="currentColor" stroke-linecap="round" stroke-linejoin="round"><path stroke="#000" d="M303.9 481.1v-13.5m0-386.5v13.5"/><text transform="rotate(45 -446.95 606.568)" stroke="none" fill="#000" font-family="Verdana" font-size="18"><tspan>30-34</tspan></text></g><path stroke="gray" stroke-dasharray="2,4" class="gridline" d="M350 481.1v-400" fill="none" color="gray" stroke-width=".5" stroke-linecap="round" stroke-linejoin="round"/><g fill="none" color="#000" stroke="currentColor" stroke-linecap="round" stroke-linejoin="round"><path stroke="#000" d="M350 481.1v-13.5m0-386.5v13.5"/><text transform="rotate(45 -423.9 662.215)" stroke="none" fill="#000" font-family="Verdana" font-size="18"><tspan>35-39</tspan></text></g><path stroke="gray" stroke-dasharray="2,4" class="gridline" d="M396.1 481.1v-400" fill="none" color="gray" stroke-width=".5" stroke-linecap="round" stroke-linejoin="round"/><g fill="none" color="#000" stroke="currentColor" stroke-linecap="round" stroke-linejoin="round"><path stroke="#000" d="M396.1 481.1v-13.5m0-386.5v13.5"/><text transform="rotate(45 -400.85 717.863)" stroke="none" fill="#000" font-family="Verdana" font-size="18"><tspan>40-44</tspan></text></g><path stroke="gray" stroke-dasharray="2,4" class="gridline" d="M442.3 481.1v-400" fill="none" color="gray" stroke-width=".5" stroke-linecap="round" stroke-linejoin="round"/><g fill="none" color="#000" stroke="currentColor" stroke-linecap="round" stroke-linejoin="round"><path stroke="#000" d="M442.3 481.1v-13.5m0-386.5v13.5"/><text transform="rotate(45 -377.75 773.63)" stroke="none" fill="#000" font-family="Verdana" font-size="18"><tspan>45-49</tspan></text></g><path stroke="gray" stroke-dasharray="2,4" class="gridline" d="M488.4 481.1v-400" fill="none" color="gray" stroke-width=".5" stroke-linecap="round" stroke-linejoin="round"/><g fill="none" color="#000" stroke="currentColor" stroke-linecap="round" stroke-linejoin="round"><path stroke="#000" d="M488.4 481.1v-13.5m0-386.5v13.5"/><text transform="rotate(45 -354.7 829.28)" stroke="none" fill="#000" font-family="Verdana" font-size="18"><tspan>50-54</tspan></text></g><path stroke="gray" stroke-dasharray="2,4" class="gridline" d="M534.5 481.1v-400" fill="none" color="gray" stroke-width=".5" stroke-linecap="round" stroke-linejoin="round"/><g fill="none" color="#000" stroke="currentColor" stroke-linecap="round" stroke-linejoin="round"><path stroke="#000" d="M534.5 481.1v-13.5m0-386.5v13.5"/><text transform="rotate(45 -331.65 884.927)" stroke="none" fill="#000" font-family="Verdana" font-size="18"><tspan>55-59</tspan></text></g><path stroke="gray" stroke-dasharray="2,4" class="gridline" d="M580.7 481.1v-400" fill="none" color="gray" stroke-width=".5" stroke-linecap="round" stroke-linejoin="round"/><g fill="none" color="#000" stroke="currentColor" stroke-linecap="round" stroke-linejoin="round"><path stroke="#000" d="M580.7 481.1v-13.5m0-386.5v13.5"/><text transform="rotate(45 -308.55 940.695)" stroke="none" fill="#000" font-family="Verdana" font-size="18"><tspan>60-64</tspan></text></g><path stroke="gray" stroke-dasharray="2,4" class="gridline" d="M626.8 481.1v-400" fill="none" color="gray" stroke-width=".5" stroke-linecap="round" stroke-linejoin="round"/><g fill="none" color="#000" stroke="currentColor" stroke-linecap="round" stroke-linejoin="round"><path stroke="#000" d="M626.8 481.1v-13.5m0-386.5v13.5"/><text transform="rotate(45 -285.5 996.343)" stroke="none" fill="#000" font-family="Verdana" font-size="18"><tspan>65-69</tspan></text></g><path stroke="gray" stroke-dasharray="2,4" class="gridline" d="M672.9 481.1v-400" fill="none" color="gray" stroke-width=".5" stroke-linecap="round" stroke-linejoin="round"/><g fill="none" color="#000" stroke="currentColor" stroke-linecap="round" stroke-linejoin="round"><path stroke="#000" d="M672.9 481.1v-13.5m0-386.5v13.5"/><text transform="rotate(45 -262.45 1051.99)" stroke="none" fill="#000" font-family="Verdana" font-size="18"><tspan>70-74</tspan></text></g><path stroke="gray" stroke-dasharray="2,4" class="gridline" d="M719 481.1v-400" fill="none" color="gray" stroke-width=".5" stroke-linecap="round" stroke-linejoin="round"/><g fill="none" color="#000" stroke="currentColor" stroke-linecap="round" stroke-linejoin="round"><path stroke="#000" d="M719 481.1v-13.5m0-386.5v13.5"/><text transform="rotate(45 -239.4 1107.638)" stroke="none" fill="#000" font-family="Verdana" font-size="18"><tspan>85-90</tspan></text></g><path stroke="#000" d="M96.3 81.1v400h645.8v-400H96.3z" fill="none" color="#000" stroke-linecap="round" stroke-linejoin="round"/><text transform="rotate(-90 153.8 127.3)" font-family="Verdana" font-size="18" text-anchor="middle" color="#000" stroke-linecap="round" stroke-linejoin="round"><tspan>Number of Responses</tspan></text><text transform="translate(419.2 572.8)" font-family="Verdana" font-size="18" text-anchor="middle" color="#000" stroke-linecap="round" stroke-linejoin="round"><tspan>Response</tspan></text><text transform="translate(419.2 47.3)" font-family="Verdana" font-size="18" text-anchor="middle" color="#000" stroke-linecap="round" stroke-linejoin="round"><tspan>What is your age?</tspan></text><title>gnuplot_plot_1</title><g fill="none" color="#000" stroke="currentColor" stroke-linecap="round" stroke-linejoin="round"><path fill="#5C3566" d="M103.9 481.1h31v-9.9h-31" shape-rendering="crispEdges" stroke="none"/><path stroke="#000" d="M103.9 481.1v-9.8h30.9v9.8h-30.9z"/></g><g fill="none" color="#000" stroke="currentColor" stroke-linecap="round" stroke-linejoin="round"><path fill="#5C3566" d="M150 481.1h31V318.3h-31" shape-rendering="crispEdges" stroke="none"/><path stroke="#000" d="M150 481.1V318.4h30.9v162.7H150z"/></g><g fill="none" color="#000" stroke="currentColor" stroke-linecap="round" stroke-linejoin="round"><path fill="#5C3566" d="M196.2 481.1h31v-329h-31" shape-rendering="crispEdges" stroke="none"/><path stroke="#000" d="M196.2 481.1V152.2h30.9v328.9h-30.9z"/></g><g fill="none" color="#000" stroke="currentColor" stroke-linecap="round" stroke-linejoin="round"><path fill="#5C3566" d="M242.3 481.1h31V98.3h-31" shape-rendering="crispEdges" stroke="none"/><path stroke="#000" d="M242.3 481.1V98.4h30.9v382.7h-30.9z"/></g><g fill="none" color="#000" stroke="currentColor" stroke-linecap="round" stroke-linejoin="round"><path fill="#5C3566" d="M288.4 481.1h31V314.8h-31" shape-rendering="crispEdges" stroke="none"/><path stroke="#000" d="M288.4 481.1V314.9h30.9v166.2h-30.9z"/></g><g fill="none" color="#000" stroke="currentColor" stroke-linecap="round" stroke-linejoin="round"><path fill="#5C3566" d="M334.6 481.1h31v-60.5h-31" shape-rendering="crispEdges" stroke="none"/><path stroke="#000" d="M334.6 481.1v-60.4h30.9v60.4h-30.9z"/></g><g fill="none" color="#000" stroke="currentColor" stroke-linecap="round" stroke-linejoin="round"><path fill="#5C3566" d="M380.7 481.1h31v-37.4h-31" shape-rendering="crispEdges" stroke="none"/><path stroke="#000" d="M380.7 481.1v-37.3h30.9v37.3h-30.9z"/></g><g fill="none" color="#000" stroke="currentColor" stroke-linecap="round" stroke-linejoin="round"><path fill="#5C3566" d="M426.8 481.1h31v-23.2h-31" shape-rendering="crispEdges" stroke="none"/><path stroke="#000" d="M426.8 481.1V458h30.9v23.1h-30.9z"/></g><g fill="none" color="#000" stroke="currentColor" stroke-linecap="round" stroke-linejoin="round"><path fill="#5C3566" d="M472.9 481.1h31v-9.4h-31" shape-rendering="crispEdges" stroke="none"/><path stroke="#000" d="M472.9 481.1v-9.3h30.9v9.3h-30.9z"/></g><g fill="none" color="#000" stroke="currentColor" stroke-linecap="round" stroke-linejoin="round"><path fill="#5C3566" d="M519.1 481.1h31v-7.2h-31" shape-rendering="crispEdges" stroke="none"/><path stroke="#000" d="M519.1 481.1V474H550v7.1h-30.9z"/></g><g fill="none" color="#000" stroke="currentColor" stroke-linecap="round" stroke-linejoin="round"><path fill="#5C3566" d="M565.2 481.1h31v-2.8h-31" shape-rendering="crispEdges" stroke="none"/><path stroke="#000" d="M565.2 481.1v-2.7h30.9v2.7h-30.9z"/></g><g fill="none" color="#000" stroke="currentColor" stroke-linecap="round" stroke-linejoin="round"><path fill="#5C3566" d="M611.3 481.1h31v-1.4h-31" shape-rendering="crispEdges" stroke="none"/><path stroke="#000" d="M611.3 481.1v-1.3h30.9v1.3h-30.9z"/></g><g fill="none" color="#000" stroke="currentColor" stroke-linecap="round" stroke-linejoin="round"><path fill="#5C3566" d="M657.5 481.1h31v-1.9h-31" shape-rendering="crispEdges" stroke="none"/><path stroke="#000" d="M657.5 481.1v-1.8h30.9v1.8h-30.9z"/></g><g fill="none" color="#000" stroke="currentColor" stroke-linecap="round" stroke-linejoin="round"><path fill="#5C3566" d="M703.6 481.1h31v-.5h-31" shape-rendering="crispEdges" stroke="none"/><path stroke="#000" d="M703.6 481.1v-.4h30.9v.4h-30.9z"/></g><path stroke="#000" d="M96.3 81.1v400h645.8v-400H96.3z" fill="none" color="#000" stroke-linecap="round" stroke-linejoin="round"/></svg>