<svg viewBox="0 0 780 585" xmlns="http://www.w3.org/2000/svg"><title>Gnuplot</title><desc>Produced by GNUPLOT 5.0 patchlevel 0</desc><path fill="none" d="M0 0h780v585H0z"/><path stroke="gray" stroke-dasharray="2,4" class="gridline" d="M108.9 409.8h633.2" fill="none" color="gray" stroke-width=".5" stroke-linecap="round" stroke-linejoin="round"/><g fill="none" color="#000" stroke="currentColor" stroke-linecap="round" stroke-linejoin="round"><path stroke="#000" d="M108.9 409.8h13.5m619.7 0h-13.5"/><text transform="translate(96.3 416.5)" stroke="none" fill="#000" font-family="Verdana" font-size="18" text-anchor="end"><tspan>0</tspan></text></g><path stroke="gray" stroke-dasharray="2,4" class="gridline" d="M108.9 344.1h633.2" fill="none" color="gray" stroke-width=".5" stroke-linecap="round" stroke-linejoin="round"/><g fill="none" color="#000" stroke="currentColor" stroke-linecap="round" stroke-linejoin="round"><path stroke="#000" d="M108.9 344.1h13.5m619.7 0h-13.5"/><text transform="translate(96.3 350.8)" stroke="none" fill="#000" font-family="Verdana" font-size="18" text-anchor="end"><tspan>500</tspan></text></g><path stroke="gray" stroke-dasharray="2,4" class="gridline" d="M108.9 278.3h633.2" fill="none" color="gray" stroke-width=".5" stroke-linecap="round" stroke-linejoin="round"/><g fill="none" color="#000" stroke="currentColor" stroke-linecap="round" stroke-linejoin="round"><path stroke="#000" d="M108.9 278.3h13.5m619.7 0h-13.5"/><text transform="translate(96.3 285)" stroke="none" fill="#000" font-family="Verdana" font-size="18" text-anchor="end"><tspan>1000</tspan></text></g><path stroke="gray" stroke-dasharray="2,4" class="gridline" d="M108.9 212.6h633.2" fill="none" color="gray" stroke-width=".5" stroke-linecap="round" stroke-linejoin="round"/><g fill="none" color="#000" stroke="currentColor" stroke-linecap="round" stroke-linejoin="round"><path stroke="#000" d="M108.9 212.6h13.5m619.7 0h-13.5"/><text transform="translate(96.3 219.3)" stroke="none" fill="#000" font-family="Verdana" font-size="18" text-anchor="end"><tspan>1500</tspan></text></g><path stroke="gray" stroke-dasharray="2,4" class="gridline" d="M108.9 146.8h633.2" fill="none" color="gray" stroke-width=".5" stroke-linecap="round" stroke-linejoin="round"/><g fill="none" color="#000" stroke="currentColor" stroke-linecap="round" stroke-linejoin="round"><path stroke="#000" d="M108.9 146.8h13.5m619.7 0h-13.5"/><text transform="translate(96.3 153.5)" stroke="none" fill="#000" font-family="Verdana" font-size="18" text-anchor="end"><tspan>2000</tspan></text></g><path stroke="gray" stroke-dasharray="2,4" class="gridline" d="M108.9 81.1h633.2" fill="none" color="gray" stroke-width=".5" stroke-linecap="round" stroke-linejoin="round"/><g fill="none" color="#000" stroke="currentColor" stroke-linecap="round" stroke-linejoin="round"><path stroke="#000" d="M108.9 81.1h13.5m619.7 0h-13.5"/><text transform="translate(96.3 87.8)" stroke="none" fill="#000" font-family="Verdana" font-size="18" text-anchor="end"><tspan>2500</tspan></text></g><path stroke="gray" stroke-dasharray="2,4" class="gridline" d="M140.6 409.8V81.1" fill="none" color="gray" stroke-width=".5" stroke-linecap="round" stroke-linejoin="round"/><g fill="none" color="#000" stroke="currentColor" stroke-linecap="round" stroke-linejoin="round"><path stroke="#000" d="M140.6 409.8v-13.5m0-315.2v13.5"/><text transform="rotate(45 -442.532 373.797)" stroke="none" fill="#000" font-family="Verdana" font-size="18"><tspan>Android</tspan></text></g><path stroke="gray" stroke-dasharray="2,4" class="gridline" d="M203.9 409.8V81.1" fill="none" color="gray" stroke-width=".5" stroke-linecap="round" stroke-linejoin="round"/><g fill="none" color="#000" stroke="currentColor" stroke-linecap="round" stroke-linejoin="round"><path stroke="#000" d="M203.9 409.8v-13.5m0-315.2v13.5"/><text transform="rotate(45 -410.882 450.207)" stroke="none" fill="#000" font-family="Verdana" font-size="18"><tspan>iOS</tspan></text></g><path stroke="gray" stroke-dasharray="2,4" class="gridline" d="M267.2 409.8V81.1" fill="none" color="gray" stroke-width=".5" stroke-linecap="round" stroke-linejoin="round"/><g fill="none" color="#000" stroke="currentColor" stroke-linecap="round" stroke-linejoin="round"><path stroke="#000" d="M267.2 409.8v-13.5m0-315.2v13.5"/><text transform="rotate(45 -379.232 526.617)" stroke="none" fill="#000" font-family="Verdana" font-size="18"><tspan>Windows</tspan></text></g><path stroke="gray" stroke-dasharray="2,4" class="gridline" d="M330.5 409.8V81.1" fill="none" color="gray" stroke-width=".5" stroke-linecap="round" stroke-linejoin="round"/><g fill="none" color="#000" stroke="currentColor" stroke-linecap="round" stroke-linejoin="round"><path stroke="#000" d="M330.5 409.8v-13.5m0-315.2v13.5"/><text transform="rotate(45 -347.582 603.027)" stroke="none" fill="#000" font-family="Verdana" font-size="18"><tspan>Sailfish OS</tspan></text></g><path stroke="gray" stroke-dasharray="2,4" class="gridline" d="M393.8 409.8V81.1" fill="none" color="gray" stroke-width=".5" stroke-linecap="round" stroke-linejoin="round"/><g fill="none" color="#000" stroke="currentColor" stroke-linecap="round" stroke-linejoin="round"><path stroke="#000" d="M393.8 409.8v-13.5m0-315.2v13.5"/><text transform="rotate(45 -315.932 679.437)" stroke="none" fill="#000" font-family="Verdana" font-size="18"><tspan>Blackberry OS</tspan></text></g><path stroke="gray" stroke-dasharray="2,4" class="gridline" d="M457.2 409.8V81.1" fill="none" color="gray" stroke-width=".5" stroke-linecap="round" stroke-linejoin="round"/><g fill="none" color="#000" stroke="currentColor" stroke-linecap="round" stroke-linejoin="round"><path stroke="#000" d="M457.2 409.8v-13.5m0-315.2v13.5"/><text transform="rotate(45 -284.232 755.967)" stroke="none" fill="#000" font-family="Verdana" font-size="18"><tspan>Ubuntu Phone</tspan></text></g><path stroke="gray" stroke-dasharray="2,4" class="gridline" d="M520.5 409.8V81.1" fill="none" color="gray" stroke-width=".5" stroke-linecap="round" stroke-linejoin="round"/><g fill="none" color="#000" stroke="currentColor" stroke-linecap="round" stroke-linejoin="round"><path stroke="#000" d="M520.5 409.8v-13.5m0-315.2v13.5"/><text transform="rotate(45 -252.582 832.377)" stroke="none" fill="#000" font-family="Verdana" font-size="18"><tspan>Symbian</tspan></text></g><path stroke="gray" stroke-dasharray="2,4" class="gridline" d="M583.8 409.8V81.1" fill="none" color="gray" stroke-width=".5" stroke-linecap="round" stroke-linejoin="round"/><g fill="none" color="#000" stroke="currentColor" stroke-linecap="round" stroke-linejoin="round"><path stroke="#000" d="M583.8 409.8v-13.5m0-315.2v13.5"/><text transform="rotate(45 -220.932 908.787)" stroke="none" fill="#000" font-family="Verdana" font-size="18"><tspan>Firefox OS</tspan></text></g><path stroke="gray" stroke-dasharray="2,4" class="gridline" d="M647.1 409.8V81.1" fill="none" color="gray" stroke-width=".5" stroke-linecap="round" stroke-linejoin="round"/><g fill="none" color="#000" stroke="currentColor" stroke-linecap="round" stroke-linejoin="round"><path stroke="#000" d="M647.1 409.8v-13.5m0-315.2v13.5"/><text transform="rotate(45 -189.282 985.197)" stroke="none" fill="#000" font-family="Verdana" font-size="18"><tspan>Jolla</tspan></text></g><path stroke="gray" stroke-dasharray="2,4" class="gridline" d="M710.4 409.8V81.1" fill="none" color="gray" stroke-width=".5" stroke-linecap="round" stroke-linejoin="round"/><g fill="none" color="#000" stroke="currentColor" stroke-linecap="round" stroke-linejoin="round"><path stroke="#000" d="M710.4 409.8v-13.5m0-315.2v13.5"/><text transform="rotate(45 -157.632 1061.607)" stroke="none" fill="#000" font-family="Verdana" font-size="18"><tspan>Other</tspan></text></g><path stroke="#000" d="M108.9 81.1v328.7h633.2V81.1H108.9z" fill="none" color="#000" stroke-linecap="round" stroke-linejoin="round"/><text transform="rotate(-90 136 109.5)" font-family="Verdana" font-size="18" text-anchor="middle" color="#000" stroke-linecap="round" stroke-linejoin="round"><tspan>Number of Responses</tspan></text><text transform="translate(425.5 572.8)" font-family="Verdana" font-size="18" text-anchor="middle" color="#000" stroke-linecap="round" stroke-linejoin="round"><tspan>Mobile Operating System</tspan></text><text transform="translate(425.5 47.3)" font-family="Verdana" font-size="18" text-anchor="middle" color="#000" stroke-linecap="round" stroke-linejoin="round"><tspan>What operating system does your mobile phone run?</tspan></text><title>gnuplot_plot_1</title><g fill="none" color="#000" stroke="currentColor" stroke-linecap="round" stroke-linejoin="round"><path fill="#CE5C00" d="M119.3 409.8h42.6V82.4h-42.6" shape-rendering="crispEdges" stroke="none"/><path stroke="#000" d="M119.3 409.8V82.5h42.5v327.3h-42.5z"/></g><g fill="none" color="#000" stroke="currentColor" stroke-linecap="round" stroke-linejoin="round"><path fill="#CE5C00" d="M182.7 409.8h42.5v-37.7h-42.5" shape-rendering="crispEdges" stroke="none"/><path stroke="#000" d="M182.7 409.8v-37.6h42.4v37.6h-42.4z"/></g><g fill="none" color="#000" stroke="currentColor" stroke-linecap="round" stroke-linejoin="round"><path fill="#CE5C00" d="M246 409.8h42.5v-9H246" shape-rendering="crispEdges" stroke="none"/><path stroke="#000" d="M246 409.8v-8.9h42.4v8.9H246z"/></g><g fill="none" color="#000" stroke="currentColor" stroke-linecap="round" stroke-linejoin="round"><path fill="#CE5C00" d="M309.3 409.8h42.5v-3.6h-42.5" shape-rendering="crispEdges" stroke="none"/><path stroke="#000" d="M309.3 409.8v-3.5h42.4v3.5h-42.4z"/></g><g fill="none" color="#000" stroke="currentColor" stroke-linecap="round" stroke-linejoin="round"><path fill="#CE5C00" d="M372.6 409.8h42.6v-3.6h-42.6" shape-rendering="crispEdges" stroke="none"/><path stroke="#000" d="M372.6 409.8v-3.5h42.5v3.5h-42.5z"/></g><g fill="none" color="#000" stroke="currentColor" stroke-linecap="round" stroke-linejoin="round"><path fill="#CE5C00" d="M435.9 409.8h42.6v-2.3h-42.6" shape-rendering="crispEdges" stroke="none"/><path stroke="#000" d="M435.9 409.8v-2.2h42.5v2.2h-42.5z"/></g><g fill="none" color="#000" stroke="currentColor" stroke-linecap="round" stroke-linejoin="round"><path fill="#CE5C00" d="M499.3 409.8h42.5v-2.2h-42.5" shape-rendering="crispEdges" stroke="none"/><path stroke="#000" d="M499.3 409.8v-2.1h42.4v2.1h-42.4z"/></g><g fill="none" color="#000" stroke="currentColor" stroke-linecap="round" stroke-linejoin="round"><path fill="#CE5C00" d="M562.6 409.8h42.5v-1.9h-42.5" shape-rendering="crispEdges" stroke="none"/><path stroke="#000" d="M562.6 409.8V408H605v1.8h-42.4z"/></g><g fill="none" color="#000" stroke="currentColor" stroke-linecap="round" stroke-linejoin="round"><path fill="#CE5C00" d="M625.9 409.8h42.5v-.8h-42.5" shape-rendering="crispEdges" stroke="none"/><path stroke="#000" d="M625.9 409.8v-.7h42.4v.7h-42.4z"/></g><g fill="none" color="#000" stroke="currentColor" stroke-linecap="round" stroke-linejoin="round"><path fill="#CE5C00" d="M689.2 409.8h42.6v-2.3h-42.6" shape-rendering="crispEdges" stroke="none"/><path stroke="#000" d="M689.2 409.8v-2.2h42.5v2.2h-42.5z"/></g><path stroke="#000" d="M108.9 81.1v328.7h633.2V81.1H108.9z" fill="none" color="#000" stroke-linecap="round" stroke-linejoin="round"/></svg>