<svg viewBox="0 0 780 585" xmlns="http://www.w3.org/2000/svg"><title>Gnuplot</title><desc>Produced by GNUPLOT 5.0 patchlevel 0</desc><path fill="none" d="M0 0h780v585H0z"/><path stroke="gray" stroke-dasharray="2,4" class="gridline" d="M108.9 454.4h633.2" fill="none" color="gray" stroke-width=".5" stroke-linecap="round" stroke-linejoin="round"/><g fill="none" color="#000" stroke="currentColor" stroke-linecap="round" stroke-linejoin="round"><path stroke="#000" d="M108.9 454.4h13.5m619.7 0h-13.5"/><text transform="translate(96.3 461.1)" stroke="none" fill="#000" font-family="Verdana" font-size="18" text-anchor="end"><tspan>0</tspan></text></g><path stroke="gray" stroke-dasharray="2,4" class="gridline" d="M108.9 417.1h633.2" fill="none" color="gray" stroke-width=".5" stroke-linecap="round" stroke-linejoin="round"/><g fill="none" color="#000" stroke="currentColor" stroke-linecap="round" stroke-linejoin="round"><path stroke="#000" d="M108.9 417.1h13.5m619.7 0h-13.5"/><text transform="translate(96.3 423.8)" stroke="none" fill="#000" font-family="Verdana" font-size="18" text-anchor="end"><tspan>200</tspan></text></g><path stroke="gray" stroke-dasharray="2,4" class="gridline" d="M108.9 379.7h633.2" fill="none" color="gray" stroke-width=".5" stroke-linecap="round" stroke-linejoin="round"/><g fill="none" color="#000" stroke="currentColor" stroke-linecap="round" stroke-linejoin="round"><path stroke="#000" d="M108.9 379.7h13.5m619.7 0h-13.5"/><text transform="translate(96.3 386.4)" stroke="none" fill="#000" font-family="Verdana" font-size="18" text-anchor="end"><tspan>400</tspan></text></g><path stroke="gray" stroke-dasharray="2,4" class="gridline" d="M108.9 342.4h633.2" fill="none" color="gray" stroke-width=".5" stroke-linecap="round" stroke-linejoin="round"/><g fill="none" color="#000" stroke="currentColor" stroke-linecap="round" stroke-linejoin="round"><path stroke="#000" d="M108.9 342.4h13.5m619.7 0h-13.5"/><text transform="translate(96.3 349.1)" stroke="none" fill="#000" font-family="Verdana" font-size="18" text-anchor="end"><tspan>600</tspan></text></g><path stroke="gray" stroke-dasharray="2,4" class="gridline" d="M108.9 305.1h633.2" fill="none" color="gray" stroke-width=".5" stroke-linecap="round" stroke-linejoin="round"/><g fill="none" color="#000" stroke="currentColor" stroke-linecap="round" stroke-linejoin="round"><path stroke="#000" d="M108.9 305.1h13.5m619.7 0h-13.5"/><text transform="translate(96.3 311.8)" stroke="none" fill="#000" font-family="Verdana" font-size="18" text-anchor="end"><tspan>800</tspan></text></g><path stroke="gray" stroke-dasharray="2,4" class="gridline" d="M108.9 267.7h633.2" fill="none" color="gray" stroke-width=".5" stroke-linecap="round" stroke-linejoin="round"/><g fill="none" color="#000" stroke="currentColor" stroke-linecap="round" stroke-linejoin="round"><path stroke="#000" d="M108.9 267.7h13.5m619.7 0h-13.5"/><text transform="translate(96.3 274.4)" stroke="none" fill="#000" font-family="Verdana" font-size="18" text-anchor="end"><tspan>1000</tspan></text></g><path stroke="gray" stroke-dasharray="2,4" class="gridline" d="M108.9 230.4h633.2" fill="none" color="gray" stroke-width=".5" stroke-linecap="round" stroke-linejoin="round"/><g fill="none" color="#000" stroke="currentColor" stroke-linecap="round" stroke-linejoin="round"><path stroke="#000" d="M108.9 230.4h13.5m619.7 0h-13.5"/><text transform="translate(96.3 237.1)" stroke="none" fill="#000" font-family="Verdana" font-size="18" text-anchor="end"><tspan>1200</tspan></text></g><path stroke="gray" stroke-dasharray="2,4" class="gridline" d="M108.9 193.1h633.2" fill="none" color="gray" stroke-width=".5" stroke-linecap="round" stroke-linejoin="round"/><g fill="none" color="#000" stroke="currentColor" stroke-linecap="round" stroke-linejoin="round"><path stroke="#000" d="M108.9 193.1h13.5m619.7 0h-13.5"/><text transform="translate(96.3 199.8)" stroke="none" fill="#000" font-family="Verdana" font-size="18" text-anchor="end"><tspan>1400</tspan></text></g><path stroke="gray" stroke-dasharray="2,4" class="gridline" d="M108.9 155.8h633.2" fill="none" color="gray" stroke-width=".5" stroke-linecap="round" stroke-linejoin="round"/><g fill="none" color="#000" stroke="currentColor" stroke-linecap="round" stroke-linejoin="round"><path stroke="#000" d="M108.9 155.8h13.5m619.7 0h-13.5"/><text transform="translate(96.3 162.5)" stroke="none" fill="#000" font-family="Verdana" font-size="18" text-anchor="end"><tspan>1600</tspan></text></g><path stroke="gray" stroke-dasharray="2,4" class="gridline" d="M108.9 118.4h633.2" fill="none" color="gray" stroke-width=".5" stroke-linecap="round" stroke-linejoin="round"/><g fill="none" color="#000" stroke="currentColor" stroke-linecap="round" stroke-linejoin="round"><path stroke="#000" d="M108.9 118.4h13.5m619.7 0h-13.5"/><text transform="translate(96.3 125.1)" stroke="none" fill="#000" font-family="Verdana" font-size="18" text-anchor="end"><tspan>1800</tspan></text></g><path stroke="gray" stroke-dasharray="2,4" class="gridline" d="M108.9 81.1h633.2" fill="none" color="gray" stroke-width=".5" stroke-linecap="round" stroke-linejoin="round"/><g fill="none" color="#000" stroke="currentColor" stroke-linecap="round" stroke-linejoin="round"><path stroke="#000" d="M108.9 81.1h13.5m619.7 0h-13.5"/><text transform="translate(96.3 87.8)" stroke="none" fill="#000" font-family="Verdana" font-size="18" text-anchor="end"><tspan>2000</tspan></text></g><path stroke="gray" stroke-dasharray="2,4" class="gridline" d="M148.5 454.4V81.1" fill="none" color="gray" stroke-width=".5" stroke-linecap="round" stroke-linejoin="round"/><g fill="none" color="#000" stroke="currentColor" stroke-linecap="round" stroke-linejoin="round"><path stroke="#000" d="M148.5 454.4v-13.5m0-359.8v13.5"/><text transform="rotate(45 -492.42 405.633)" stroke="none" fill="#000" font-family="Verdana" font-size="18"><tspan>Intel</tspan></text></g><path stroke="gray" stroke-dasharray="2,4" class="gridline" d="M227.6 454.4V81.1" fill="none" color="gray" stroke-width=".5" stroke-linecap="round" stroke-linejoin="round"/><g fill="none" color="#000" stroke="currentColor" stroke-linecap="round" stroke-linejoin="round"><path stroke="#000" d="M227.6 454.4v-13.5m0-359.8v13.5"/><text transform="rotate(45 -452.87 501.116)" stroke="none" fill="#000" font-family="Verdana" font-size="18"><tspan>No pref</tspan></text></g><path stroke="gray" stroke-dasharray="2,4" class="gridline" d="M306.8 454.4V81.1" fill="none" color="gray" stroke-width=".5" stroke-linecap="round" stroke-linejoin="round"/><g fill="none" color="#000" stroke="currentColor" stroke-linecap="round" stroke-linejoin="round"><path stroke="#000" d="M306.8 454.4v-13.5m0-359.8v13.5"/><text transform="rotate(45 -413.27 596.718)" stroke="none" fill="#000" font-family="Verdana" font-size="18"><tspan>AMD</tspan></text></g><path stroke="gray" stroke-dasharray="2,4" class="gridline" d="M385.9 454.4V81.1" fill="none" color="gray" stroke-width=".5" stroke-linecap="round" stroke-linejoin="round"/><g fill="none" color="#000" stroke="currentColor" stroke-linecap="round" stroke-linejoin="round"><path stroke="#000" d="M385.9 454.4v-13.5m0-359.8v13.5"/><text transform="rotate(45 -373.72 692.2)" stroke="none" fill="#000" font-family="Verdana" font-size="18"><tspan>ARM</tspan></text></g><path stroke="gray" stroke-dasharray="2,4" class="gridline" d="M465.1 454.4V81.1" fill="none" color="gray" stroke-width=".5" stroke-linecap="round" stroke-linejoin="round"/><g fill="none" color="#000" stroke="currentColor" stroke-linecap="round" stroke-linejoin="round"><path stroke="#000" d="M465.1 454.4v-13.5m0-359.8v13.5"/><text transform="rotate(45 -334.12 787.803)" stroke="none" fill="#000" font-family="Verdana" font-size="18"><tspan>Lemote</tspan></text></g><path stroke="gray" stroke-dasharray="2,4" class="gridline" d="M544.2 454.4V81.1" fill="none" color="gray" stroke-width=".5" stroke-linecap="round" stroke-linejoin="round"/><g fill="none" color="#000" stroke="currentColor" stroke-linecap="round" stroke-linejoin="round"><path stroke="#000" d="M544.2 454.4v-13.5m0-359.8v13.5"/><text transform="rotate(45 -294.57 883.286)" stroke="none" fill="#000" font-family="Verdana" font-size="18"><tspan>IBM</tspan></text></g><path stroke="gray" stroke-dasharray="2,4" class="gridline" d="M623.4 454.4V81.1" fill="none" color="gray" stroke-width=".5" stroke-linecap="round" stroke-linejoin="round"/><g fill="none" color="#000" stroke="currentColor" stroke-linecap="round" stroke-linejoin="round"><path stroke="#000" d="M623.4 454.4v-13.5m0-359.8v13.5"/><text transform="rotate(45 -254.97 978.888)" stroke="none" fill="#000" font-family="Verdana" font-size="18"><tspan>Qualcomm</tspan></text></g><path stroke="gray" stroke-dasharray="2,4" class="gridline" d="M702.5 454.4V81.1" fill="none" color="gray" stroke-width=".5" stroke-linecap="round" stroke-linejoin="round"/><g fill="none" color="#000" stroke="currentColor" stroke-linecap="round" stroke-linejoin="round"><path stroke="#000" d="M702.5 454.4v-13.5m0-359.8v13.5"/><text transform="rotate(45 -215.42 1074.37)" stroke="none" fill="#000" font-family="Verdana" font-size="18"><tspan>Custom</tspan></text></g><path stroke="#000" d="M108.9 81.1v373.3h633.2V81.1H108.9z" fill="none" color="#000" stroke-linecap="round" stroke-linejoin="round"/><text transform="rotate(-90 147.15 120.65)" font-family="Verdana" font-size="18" text-anchor="middle" color="#000" stroke-linecap="round" stroke-linejoin="round"><tspan>Number of Responses</tspan></text><text transform="translate(425.5 572.8)" font-family="Verdana" font-size="18" text-anchor="middle" color="#000" stroke-linecap="round" stroke-linejoin="round"><tspan>CPU Vendor</tspan></text><text transform="translate(425.5 47.3)" font-family="Verdana" font-size="18" text-anchor="middle" color="#000" stroke-linecap="round" stroke-linejoin="round"><tspan>Which CPU vendor do you prefer for Linux?</tspan></text><title>gnuplot_plot_1</title><g fill="none" color="#000" stroke="currentColor" stroke-linecap="round" stroke-linejoin="round"><path fill="#205A87" d="M122 454.4h53.1V95H122" shape-rendering="crispEdges" stroke="none"/><path stroke="#000" d="M122 454.4V95.1h53v359.3h-53z"/></g><g fill="none" color="#000" stroke="currentColor" stroke-linecap="round" stroke-linejoin="round"><path fill="#205A87" d="M201.1 454.4h53.1V281.3h-53.1" shape-rendering="crispEdges" stroke="none"/><path stroke="#000" d="M201.1 454.4v-173h53v173h-53z"/></g><g fill="none" color="#000" stroke="currentColor" stroke-linecap="round" stroke-linejoin="round"><path fill="#205A87" d="M280.3 454.4h53.1V397h-53.1" shape-rendering="crispEdges" stroke="none"/><path stroke="#000" d="M280.3 454.4v-57.3h53v57.3h-53z"/></g><g fill="none" color="#000" stroke="currentColor" stroke-linecap="round" stroke-linejoin="round"><path fill="#205A87" d="M359.4 454.4h53.1v-.7h-53.1" shape-rendering="crispEdges" stroke="none"/><path stroke="#000" d="M359.4 454.4v-.6h53v.6h-53z"/></g><g fill="none" color="#000" stroke="currentColor" stroke-linecap="round" stroke-linejoin="round"><path fill="#205A87" d="M438.6 454.4h53.1v-.5h-53.1" shape-rendering="crispEdges" stroke="none"/><path stroke="#000" d="M438.6 454.4v-.4h53v.4h-53z"/></g><g fill="none" color="#000" stroke="currentColor" stroke-linecap="round" stroke-linejoin="round"><path fill="#205A87" d="M517.7 454.4h53.1v-.3h-53.1" shape-rendering="crispEdges" stroke="none"/><path stroke="#000" d="M517.7 454.4v-.2h53v.2h-53z"/></g><g fill="none" color="#000" stroke="currentColor" stroke-linecap="round" stroke-linejoin="round"><path fill="#205A87" d="M596.9 454.4H650v-.3h-53.1" shape-rendering="crispEdges" stroke="none"/><path stroke="#000" d="M596.9 454.4v-.2h53v.2h-53z"/></g><g fill="none" color="#000" stroke="currentColor" stroke-linecap="round" stroke-linejoin="round"><path fill="#205A87" d="M676 454.4h53.1v-.3H676" shape-rendering="crispEdges" stroke="none"/><path stroke="#000" d="M676 454.4v-.2h53v.2h-53z"/></g><path stroke="#000" d="M108.9 81.1v373.3h633.2V81.1H108.9z" fill="none" color="#000" stroke-linecap="round" stroke-linejoin="round"/></svg>