<svg viewBox="0 0 780 585" xmlns="http://www.w3.org/2000/svg"><title>Gnuplot</title><desc>Produced by GNUPLOT 5.0 patchlevel 0</desc><path fill="none" d="M0 0h780v585H0z"/><path stroke="gray" stroke-dasharray="2,4" class="gridline" d="M108.9 463.3h633.2" fill="none" color="gray" stroke-width=".5" stroke-linecap="round" stroke-linejoin="round"/><g fill="none" color="#000" stroke="currentColor" stroke-linecap="round" stroke-linejoin="round"><path stroke="#000" d="M108.9 463.3h13.5m619.7 0h-13.5"/><text transform="translate(96.3 470)" stroke="none" fill="#000" font-family="Verdana" font-size="18" text-anchor="end"><tspan>0</tspan></text></g><path stroke="gray" stroke-dasharray="2,4" class="gridline" d="M108.9 408.7h633.2" fill="none" color="gray" stroke-width=".5" stroke-linecap="round" stroke-linejoin="round"/><g fill="none" color="#000" stroke="currentColor" stroke-linecap="round" stroke-linejoin="round"><path stroke="#000" d="M108.9 408.7h13.5m619.7 0h-13.5"/><text transform="translate(96.3 415.4)" stroke="none" fill="#000" font-family="Verdana" font-size="18" text-anchor="end"><tspan>200</tspan></text></g><path stroke="gray" stroke-dasharray="2,4" class="gridline" d="M108.9 354.1h633.2" fill="none" color="gray" stroke-width=".5" stroke-linecap="round" stroke-linejoin="round"/><g fill="none" color="#000" stroke="currentColor" stroke-linecap="round" stroke-linejoin="round"><path stroke="#000" d="M108.9 354.1h13.5m619.7 0h-13.5"/><text transform="translate(96.3 360.8)" stroke="none" fill="#000" font-family="Verdana" font-size="18" text-anchor="end"><tspan>400</tspan></text></g><path stroke="gray" stroke-dasharray="2,4" class="gridline" d="M108.9 299.5h633.2" fill="none" color="gray" stroke-width=".5" stroke-linecap="round" stroke-linejoin="round"/><g fill="none" color="#000" stroke="currentColor" stroke-linecap="round" stroke-linejoin="round"><path stroke="#000" d="M108.9 299.5h13.5m619.7 0h-13.5"/><text transform="translate(96.3 306.2)" stroke="none" fill="#000" font-family="Verdana" font-size="18" text-anchor="end"><tspan>600</tspan></text></g><path stroke="gray" stroke-dasharray="2,4" class="gridline" d="M108.9 244.9h633.2" fill="none" color="gray" stroke-width=".5" stroke-linecap="round" stroke-linejoin="round"/><g fill="none" color="#000" stroke="currentColor" stroke-linecap="round" stroke-linejoin="round"><path stroke="#000" d="M108.9 244.9h13.5m619.7 0h-13.5"/><text transform="translate(96.3 251.6)" stroke="none" fill="#000" font-family="Verdana" font-size="18" text-anchor="end"><tspan>800</tspan></text></g><path stroke="gray" stroke-dasharray="2,4" class="gridline" d="M108.9 190.3h633.2" fill="none" color="gray" stroke-width=".5" stroke-linecap="round" stroke-linejoin="round"/><g fill="none" color="#000" stroke="currentColor" stroke-linecap="round" stroke-linejoin="round"><path stroke="#000" d="M108.9 190.3h13.5m619.7 0h-13.5"/><text transform="translate(96.3 197)" stroke="none" fill="#000" font-family="Verdana" font-size="18" text-anchor="end"><tspan>1000</tspan></text></g><path stroke="gray" stroke-dasharray="2,4" class="gridline" d="M108.9 135.7h633.2" fill="none" color="gray" stroke-width=".5" stroke-linecap="round" stroke-linejoin="round"/><g fill="none" color="#000" stroke="currentColor" stroke-linecap="round" stroke-linejoin="round"><path stroke="#000" d="M108.9 135.7h13.5m619.7 0h-13.5"/><text transform="translate(96.3 142.4)" stroke="none" fill="#000" font-family="Verdana" font-size="18" text-anchor="end"><tspan>1200</tspan></text></g><path stroke="gray" stroke-dasharray="2,4" class="gridline" d="M108.9 81.1h633.2" fill="none" color="gray" stroke-width=".5" stroke-linecap="round" stroke-linejoin="round"/><g fill="none" color="#000" stroke="currentColor" stroke-linecap="round" stroke-linejoin="round"><path stroke="#000" d="M108.9 81.1h13.5m619.7 0h-13.5"/><text transform="translate(96.3 87.8)" stroke="none" fill="#000" font-family="Verdana" font-size="18" text-anchor="end"><tspan>1400</tspan></text></g><path stroke="gray" stroke-dasharray="2,4" class="gridline" d="M188.1 463.3V81.1" fill="none" color="gray" stroke-width=".5" stroke-linecap="round" stroke-linejoin="round"/><g fill="none" color="#000" stroke="currentColor" stroke-linecap="round" stroke-linejoin="round"><path stroke="#000" d="M188.1 463.3v-13.5m0-368.7v13.5"/><text transform="rotate(45 -483.362 457.885)" stroke="none" fill="#000" font-family="Verdana" font-size="18"><tspan>NVIDIA</tspan></text></g><path stroke="gray" stroke-dasharray="2,4" class="gridline" d="M346.4 463.3V81.1" fill="none" color="gray" stroke-width=".5" stroke-linecap="round" stroke-linejoin="round"/><g fill="none" color="#000" stroke="currentColor" stroke-linecap="round" stroke-linejoin="round"><path stroke="#000" d="M346.4 463.3v-13.5m0-368.7v13.5"/><text transform="rotate(45 -404.212 648.97)" stroke="none" fill="#000" font-family="Verdana" font-size="18"><tspan>No pref</tspan></text></g><path stroke="gray" stroke-dasharray="2,4" class="gridline" d="M504.7 463.3V81.1" fill="none" color="gray" stroke-width=".5" stroke-linecap="round" stroke-linejoin="round"/><g fill="none" color="#000" stroke="currentColor" stroke-linecap="round" stroke-linejoin="round"><path stroke="#000" d="M504.7 463.3v-13.5m0-368.7v13.5"/><text transform="rotate(45 -325.062 840.055)" stroke="none" fill="#000" font-family="Verdana" font-size="18"><tspan>Intel</tspan></text></g><path stroke="gray" stroke-dasharray="2,4" class="gridline" d="M663 463.3V81.1" fill="none" color="gray" stroke-width=".5" stroke-linecap="round" stroke-linejoin="round"/><g fill="none" color="#000" stroke="currentColor" stroke-linecap="round" stroke-linejoin="round"><path stroke="#000" d="M663 463.3v-13.5m0-368.7v13.5"/><text transform="rotate(45 -245.912 1031.14)" stroke="none" fill="#000" font-family="Verdana" font-size="18"><tspan>AMD</tspan></text></g><path stroke="#000" d="M108.9 81.1v382.2h633.2V81.1H108.9z" fill="none" color="#000" stroke-linecap="round" stroke-linejoin="round"/><text transform="rotate(-90 149.35 122.85)" font-family="Verdana" font-size="18" text-anchor="middle" color="#000" stroke-linecap="round" stroke-linejoin="round"><tspan>Number of Responses</tspan></text><text transform="translate(425.5 572.8)" font-family="Verdana" font-size="18" text-anchor="middle" color="#000" stroke-linecap="round" stroke-linejoin="round"><tspan>CPU Vendor</tspan></text><text transform="translate(425.5 47.3)" font-family="Verdana" font-size="18" text-anchor="middle" color="#000" stroke-linecap="round" stroke-linejoin="round"><tspan>Which GPU vendor do you prefer for Linux?</tspan></text><title>gnuplot_plot_1</title><g fill="none" color="#000" stroke="currentColor" stroke-linecap="round" stroke-linejoin="round"><path fill="#4E9A06" d="M135 463.3h106.2V119.5H135" shape-rendering="crispEdges" stroke="none"/><path stroke="#000" d="M135 463.3V119.6h106.1v343.7H135z"/></g><g fill="none" color="#000" stroke="currentColor" stroke-linecap="round" stroke-linejoin="round"><path fill="#4E9A06" d="M293.3 463.3h106.2V246.7H293.3" shape-rendering="crispEdges" stroke="none"/><path stroke="#000" d="M293.3 463.3V246.8h106.1v216.5H293.3z"/></g><g fill="none" color="#000" stroke="currentColor" stroke-linecap="round" stroke-linejoin="round"><path fill="#4E9A06" d="M451.6 463.3h106.2V260.1H451.6" shape-rendering="crispEdges" stroke="none"/><path stroke="#000" d="M451.6 463.3V260.2h106.1v203.1H451.6z"/></g><g fill="none" color="#000" stroke="currentColor" stroke-linecap="round" stroke-linejoin="round"><path fill="#4E9A06" d="M609.9 463.3h106.2V361.9H609.9" shape-rendering="crispEdges" stroke="none"/><path stroke="#000" d="M609.9 463.3V362H716v101.3H609.9z"/></g><path stroke="#000" d="M108.9 81.1v382.2h633.2V81.1H108.9z" fill="none" color="#000" stroke-linecap="round" stroke-linejoin="round"/></svg>